G04 #@! TF.GenerationSoftware,KiCad,Pcbnew,5.1.4+dfsg1-1*
G04 #@! TF.CreationDate,2020-04-24T21:08:45-06:00*
G04 #@! TF.ProjectId,balanced-xlr,62616c61-6e63-4656-942d-786c722e6b69,rev?*
G04 #@! TF.SameCoordinates,Original*
G04 #@! TF.FileFunction,Soldermask,Bot*
G04 #@! TF.FilePolarity,Negative*
%FSLAX46Y46*%
G04 Gerber Fmt 4.6, Leading zero omitted, Abs format (unit mm)*
G04 Created by KiCad (PCBNEW 5.1.4+dfsg1-1) date 2020-04-24 21:08:45*
%MOMM*%
%LPD*%
G04 APERTURE LIST*
%ADD10C,0.100000*%
G04 APERTURE END LIST*
D10*
G36*
X155689487Y-129138996D02*
G01*
X155912516Y-129231378D01*
X155926255Y-129237069D01*
X156139339Y-129379447D01*
X156320553Y-129560661D01*
X156445349Y-129747431D01*
X156462932Y-129773747D01*
X156561004Y-130010513D01*
X156611000Y-130261861D01*
X156611000Y-130518139D01*
X156561004Y-130769487D01*
X156493453Y-130932569D01*
X156462931Y-131006255D01*
X156320553Y-131219339D01*
X156139339Y-131400553D01*
X155926255Y-131542931D01*
X155926254Y-131542932D01*
X155926253Y-131542932D01*
X155689487Y-131641004D01*
X155438139Y-131691000D01*
X155181861Y-131691000D01*
X154930513Y-131641004D01*
X154693747Y-131542932D01*
X154693746Y-131542932D01*
X154693745Y-131542931D01*
X154480661Y-131400553D01*
X154299447Y-131219339D01*
X154157069Y-131006255D01*
X154126547Y-130932569D01*
X154058996Y-130769487D01*
X154009000Y-130518139D01*
X154009000Y-130261861D01*
X154058996Y-130010513D01*
X154157068Y-129773747D01*
X154174652Y-129747431D01*
X154299447Y-129560661D01*
X154480661Y-129379447D01*
X154693745Y-129237069D01*
X154707484Y-129231378D01*
X154930513Y-129138996D01*
X155181861Y-129089000D01*
X155438139Y-129089000D01*
X155689487Y-129138996D01*
X155689487Y-129138996D01*
G37*
G36*
X68689487Y-129138996D02*
G01*
X68912516Y-129231378D01*
X68926255Y-129237069D01*
X69139339Y-129379447D01*
X69320553Y-129560661D01*
X69445349Y-129747431D01*
X69462932Y-129773747D01*
X69561004Y-130010513D01*
X69611000Y-130261861D01*
X69611000Y-130518139D01*
X69561004Y-130769487D01*
X69493453Y-130932569D01*
X69462931Y-131006255D01*
X69320553Y-131219339D01*
X69139339Y-131400553D01*
X68926255Y-131542931D01*
X68926254Y-131542932D01*
X68926253Y-131542932D01*
X68689487Y-131641004D01*
X68438139Y-131691000D01*
X68181861Y-131691000D01*
X67930513Y-131641004D01*
X67693747Y-131542932D01*
X67693746Y-131542932D01*
X67693745Y-131542931D01*
X67480661Y-131400553D01*
X67299447Y-131219339D01*
X67157069Y-131006255D01*
X67126547Y-130932569D01*
X67058996Y-130769487D01*
X67009000Y-130518139D01*
X67009000Y-130261861D01*
X67058996Y-130010513D01*
X67157068Y-129773747D01*
X67174652Y-129747431D01*
X67299447Y-129560661D01*
X67480661Y-129379447D01*
X67693745Y-129237069D01*
X67707484Y-129231378D01*
X67930513Y-129138996D01*
X68181861Y-129089000D01*
X68438139Y-129089000D01*
X68689487Y-129138996D01*
X68689487Y-129138996D01*
G37*
G36*
X97674903Y-129137075D02*
G01*
X97902571Y-129231378D01*
X98107466Y-129368285D01*
X98281715Y-129542534D01*
X98281716Y-129542536D01*
X98418623Y-129747431D01*
X98512925Y-129975097D01*
X98561000Y-130216786D01*
X98561000Y-130463214D01*
X98512925Y-130704903D01*
X98486174Y-130769487D01*
X98418622Y-130932571D01*
X98281715Y-131137466D01*
X98107466Y-131311715D01*
X97902571Y-131448622D01*
X97902570Y-131448623D01*
X97902569Y-131448623D01*
X97674903Y-131542925D01*
X97433214Y-131591000D01*
X97186786Y-131591000D01*
X96945097Y-131542925D01*
X96717431Y-131448623D01*
X96717430Y-131448623D01*
X96717429Y-131448622D01*
X96512534Y-131311715D01*
X96338285Y-131137466D01*
X96201378Y-130932571D01*
X96133827Y-130769487D01*
X96107075Y-130704903D01*
X96059000Y-130463214D01*
X96059000Y-130216786D01*
X96107075Y-129975097D01*
X96201377Y-129747431D01*
X96338284Y-129542536D01*
X96338285Y-129542534D01*
X96512534Y-129368285D01*
X96717429Y-129231378D01*
X96945097Y-129137075D01*
X97186786Y-129089000D01*
X97433214Y-129089000D01*
X97674903Y-129137075D01*
X97674903Y-129137075D01*
G37*
G36*
X126674903Y-129137075D02*
G01*
X126902571Y-129231378D01*
X127107466Y-129368285D01*
X127281715Y-129542534D01*
X127281716Y-129542536D01*
X127418623Y-129747431D01*
X127512925Y-129975097D01*
X127561000Y-130216786D01*
X127561000Y-130463214D01*
X127512925Y-130704903D01*
X127486174Y-130769487D01*
X127418622Y-130932571D01*
X127281715Y-131137466D01*
X127107466Y-131311715D01*
X126902571Y-131448622D01*
X126902570Y-131448623D01*
X126902569Y-131448623D01*
X126674903Y-131542925D01*
X126433214Y-131591000D01*
X126186786Y-131591000D01*
X125945097Y-131542925D01*
X125717431Y-131448623D01*
X125717430Y-131448623D01*
X125717429Y-131448622D01*
X125512534Y-131311715D01*
X125338285Y-131137466D01*
X125201378Y-130932571D01*
X125133827Y-130769487D01*
X125107075Y-130704903D01*
X125059000Y-130463214D01*
X125059000Y-130216786D01*
X125107075Y-129975097D01*
X125201377Y-129747431D01*
X125338284Y-129542536D01*
X125338285Y-129542534D01*
X125512534Y-129368285D01*
X125717429Y-129231378D01*
X125945097Y-129137075D01*
X126186786Y-129089000D01*
X126433214Y-129089000D01*
X126674903Y-129137075D01*
X126674903Y-129137075D01*
G37*
G36*
X170867184Y-125549938D02*
G01*
X171123268Y-125600876D01*
X171181274Y-125624903D01*
X171605718Y-125800713D01*
X171793601Y-125926253D01*
X172039914Y-126090834D01*
X172409166Y-126460086D01*
X172555212Y-126678659D01*
X172699287Y-126894282D01*
X172899124Y-127376733D01*
X173001000Y-127888898D01*
X173001000Y-128411102D01*
X172899124Y-128923267D01*
X172699287Y-129405718D01*
X172699286Y-129405719D01*
X172409166Y-129839914D01*
X172039914Y-130209166D01*
X172028508Y-130216787D01*
X171605718Y-130499287D01*
X171323105Y-130616349D01*
X171123268Y-130699124D01*
X170867184Y-130750062D01*
X170611102Y-130801000D01*
X170088898Y-130801000D01*
X169832816Y-130750062D01*
X169576732Y-130699124D01*
X169376895Y-130616349D01*
X169094282Y-130499287D01*
X168671492Y-130216787D01*
X168660086Y-130209166D01*
X168290834Y-129839914D01*
X168000714Y-129405719D01*
X168000713Y-129405718D01*
X167800876Y-128923267D01*
X167699000Y-128411102D01*
X167699000Y-127888898D01*
X167800876Y-127376733D01*
X168000713Y-126894282D01*
X168144788Y-126678659D01*
X168290834Y-126460086D01*
X168660086Y-126090834D01*
X168906399Y-125926253D01*
X169094282Y-125800713D01*
X169518726Y-125624903D01*
X169576732Y-125600876D01*
X169832816Y-125549938D01*
X170088898Y-125499000D01*
X170611102Y-125499000D01*
X170867184Y-125549938D01*
X170867184Y-125549938D01*
G37*
G36*
X46017184Y-125549938D02*
G01*
X46273268Y-125600876D01*
X46331274Y-125624903D01*
X46755718Y-125800713D01*
X46943601Y-125926253D01*
X47189914Y-126090834D01*
X47559166Y-126460086D01*
X47705212Y-126678659D01*
X47849287Y-126894282D01*
X48049124Y-127376733D01*
X48151000Y-127888898D01*
X48151000Y-128411102D01*
X48049124Y-128923267D01*
X47849287Y-129405718D01*
X47849286Y-129405719D01*
X47559166Y-129839914D01*
X47189914Y-130209166D01*
X47178508Y-130216787D01*
X46755718Y-130499287D01*
X46473105Y-130616349D01*
X46273268Y-130699124D01*
X46017184Y-130750062D01*
X45761102Y-130801000D01*
X45238898Y-130801000D01*
X44982816Y-130750062D01*
X44726732Y-130699124D01*
X44526895Y-130616349D01*
X44244282Y-130499287D01*
X43821492Y-130216787D01*
X43810086Y-130209166D01*
X43440834Y-129839914D01*
X43150714Y-129405719D01*
X43150713Y-129405718D01*
X42950876Y-128923267D01*
X42849000Y-128411102D01*
X42849000Y-127888898D01*
X42950876Y-127376733D01*
X43150713Y-126894282D01*
X43294788Y-126678659D01*
X43440834Y-126460086D01*
X43810086Y-126090834D01*
X44056399Y-125926253D01*
X44244282Y-125800713D01*
X44668726Y-125624903D01*
X44726732Y-125600876D01*
X44982816Y-125549938D01*
X45238898Y-125499000D01*
X45761102Y-125499000D01*
X46017184Y-125549938D01*
X46017184Y-125549938D01*
G37*
G36*
X148069487Y-124058996D02*
G01*
X148292516Y-124151378D01*
X148306255Y-124157069D01*
X148519339Y-124299447D01*
X148700553Y-124480661D01*
X148825349Y-124667431D01*
X148842932Y-124693747D01*
X148941004Y-124930513D01*
X148991000Y-125181861D01*
X148991000Y-125438139D01*
X148941004Y-125689487D01*
X148894932Y-125800714D01*
X148842931Y-125926255D01*
X148700553Y-126139339D01*
X148519339Y-126320553D01*
X148306255Y-126462931D01*
X148306254Y-126462932D01*
X148306253Y-126462932D01*
X148069487Y-126561004D01*
X147818139Y-126611000D01*
X147561861Y-126611000D01*
X147310513Y-126561004D01*
X147073747Y-126462932D01*
X147073746Y-126462932D01*
X147073745Y-126462931D01*
X146860661Y-126320553D01*
X146679447Y-126139339D01*
X146537069Y-125926255D01*
X146485068Y-125800714D01*
X146438996Y-125689487D01*
X146389000Y-125438139D01*
X146389000Y-125181861D01*
X146438996Y-124930513D01*
X146537068Y-124693747D01*
X146554652Y-124667431D01*
X146679447Y-124480661D01*
X146860661Y-124299447D01*
X147073745Y-124157069D01*
X147087484Y-124151378D01*
X147310513Y-124058996D01*
X147561861Y-124009000D01*
X147818139Y-124009000D01*
X148069487Y-124058996D01*
X148069487Y-124058996D01*
G37*
G36*
X61069487Y-124058996D02*
G01*
X61292516Y-124151378D01*
X61306255Y-124157069D01*
X61519339Y-124299447D01*
X61700553Y-124480661D01*
X61825349Y-124667431D01*
X61842932Y-124693747D01*
X61941004Y-124930513D01*
X61991000Y-125181861D01*
X61991000Y-125438139D01*
X61941004Y-125689487D01*
X61894932Y-125800714D01*
X61842931Y-125926255D01*
X61700553Y-126139339D01*
X61519339Y-126320553D01*
X61306255Y-126462931D01*
X61306254Y-126462932D01*
X61306253Y-126462932D01*
X61069487Y-126561004D01*
X60818139Y-126611000D01*
X60561861Y-126611000D01*
X60310513Y-126561004D01*
X60073747Y-126462932D01*
X60073746Y-126462932D01*
X60073745Y-126462931D01*
X59860661Y-126320553D01*
X59679447Y-126139339D01*
X59537069Y-125926255D01*
X59485068Y-125800714D01*
X59438996Y-125689487D01*
X59389000Y-125438139D01*
X59389000Y-125181861D01*
X59438996Y-124930513D01*
X59537068Y-124693747D01*
X59554652Y-124667431D01*
X59679447Y-124480661D01*
X59860661Y-124299447D01*
X60073745Y-124157069D01*
X60087484Y-124151378D01*
X60310513Y-124058996D01*
X60561861Y-124009000D01*
X60818139Y-124009000D01*
X61069487Y-124058996D01*
X61069487Y-124058996D01*
G37*
G36*
X90054903Y-124057075D02*
G01*
X90282571Y-124151378D01*
X90487466Y-124288285D01*
X90661715Y-124462534D01*
X90661716Y-124462536D01*
X90798623Y-124667431D01*
X90892925Y-124895097D01*
X90941000Y-125136786D01*
X90941000Y-125383214D01*
X90892925Y-125624903D01*
X90866174Y-125689487D01*
X90798622Y-125852571D01*
X90661715Y-126057466D01*
X90487466Y-126231715D01*
X90282571Y-126368622D01*
X90282570Y-126368623D01*
X90282569Y-126368623D01*
X90054903Y-126462925D01*
X89813214Y-126511000D01*
X89566786Y-126511000D01*
X89325097Y-126462925D01*
X89097431Y-126368623D01*
X89097430Y-126368623D01*
X89097429Y-126368622D01*
X88892534Y-126231715D01*
X88718285Y-126057466D01*
X88581378Y-125852571D01*
X88513827Y-125689487D01*
X88487075Y-125624903D01*
X88439000Y-125383214D01*
X88439000Y-125136786D01*
X88487075Y-124895097D01*
X88581377Y-124667431D01*
X88718284Y-124462536D01*
X88718285Y-124462534D01*
X88892534Y-124288285D01*
X89097429Y-124151378D01*
X89325097Y-124057075D01*
X89566786Y-124009000D01*
X89813214Y-124009000D01*
X90054903Y-124057075D01*
X90054903Y-124057075D01*
G37*
G36*
X119054903Y-124057075D02*
G01*
X119282571Y-124151378D01*
X119487466Y-124288285D01*
X119661715Y-124462534D01*
X119661716Y-124462536D01*
X119798623Y-124667431D01*
X119892925Y-124895097D01*
X119941000Y-125136786D01*
X119941000Y-125383214D01*
X119892925Y-125624903D01*
X119866174Y-125689487D01*
X119798622Y-125852571D01*
X119661715Y-126057466D01*
X119487466Y-126231715D01*
X119282571Y-126368622D01*
X119282570Y-126368623D01*
X119282569Y-126368623D01*
X119054903Y-126462925D01*
X118813214Y-126511000D01*
X118566786Y-126511000D01*
X118325097Y-126462925D01*
X118097431Y-126368623D01*
X118097430Y-126368623D01*
X118097429Y-126368622D01*
X117892534Y-126231715D01*
X117718285Y-126057466D01*
X117581378Y-125852571D01*
X117513827Y-125689487D01*
X117487075Y-125624903D01*
X117439000Y-125383214D01*
X117439000Y-125136786D01*
X117487075Y-124895097D01*
X117581377Y-124667431D01*
X117718284Y-124462536D01*
X117718285Y-124462534D01*
X117892534Y-124288285D01*
X118097429Y-124151378D01*
X118325097Y-124057075D01*
X118566786Y-124009000D01*
X118813214Y-124009000D01*
X119054903Y-124057075D01*
X119054903Y-124057075D01*
G37*
G36*
X97550999Y-120222429D02*
G01*
X97674903Y-120247075D01*
X97902571Y-120341378D01*
X98107466Y-120478285D01*
X98281715Y-120652534D01*
X98418622Y-120857429D01*
X98512925Y-121085097D01*
X98561000Y-121326787D01*
X98561000Y-121573213D01*
X98512925Y-121814903D01*
X98418622Y-122042571D01*
X98281715Y-122247466D01*
X98107466Y-122421715D01*
X97902571Y-122558622D01*
X97902570Y-122558623D01*
X97902569Y-122558623D01*
X97674903Y-122652925D01*
X97433214Y-122701000D01*
X97186786Y-122701000D01*
X96945097Y-122652925D01*
X96717431Y-122558623D01*
X96717430Y-122558623D01*
X96717429Y-122558622D01*
X96512534Y-122421715D01*
X96338285Y-122247466D01*
X96201378Y-122042571D01*
X96107075Y-121814903D01*
X96059000Y-121573213D01*
X96059000Y-121326787D01*
X96107075Y-121085097D01*
X96201378Y-120857429D01*
X96338285Y-120652534D01*
X96512534Y-120478285D01*
X96717429Y-120341378D01*
X96945097Y-120247075D01*
X97069001Y-120222429D01*
X97186786Y-120199000D01*
X97433214Y-120199000D01*
X97550999Y-120222429D01*
X97550999Y-120222429D01*
G37*
G36*
X126550999Y-120222429D02*
G01*
X126674903Y-120247075D01*
X126902571Y-120341378D01*
X127107466Y-120478285D01*
X127281715Y-120652534D01*
X127418622Y-120857429D01*
X127512925Y-121085097D01*
X127561000Y-121326787D01*
X127561000Y-121573213D01*
X127512925Y-121814903D01*
X127418622Y-122042571D01*
X127281715Y-122247466D01*
X127107466Y-122421715D01*
X126902571Y-122558622D01*
X126902570Y-122558623D01*
X126902569Y-122558623D01*
X126674903Y-122652925D01*
X126433214Y-122701000D01*
X126186786Y-122701000D01*
X125945097Y-122652925D01*
X125717431Y-122558623D01*
X125717430Y-122558623D01*
X125717429Y-122558622D01*
X125512534Y-122421715D01*
X125338285Y-122247466D01*
X125201378Y-122042571D01*
X125107075Y-121814903D01*
X125059000Y-121573213D01*
X125059000Y-121326787D01*
X125107075Y-121085097D01*
X125201378Y-120857429D01*
X125338285Y-120652534D01*
X125512534Y-120478285D01*
X125717429Y-120341378D01*
X125945097Y-120247075D01*
X126069001Y-120222429D01*
X126186786Y-120199000D01*
X126433214Y-120199000D01*
X126550999Y-120222429D01*
X126550999Y-120222429D01*
G37*
G36*
X64714794Y-120420155D02*
G01*
X64821150Y-120441311D01*
X64910410Y-120478284D01*
X65021520Y-120524307D01*
X65201844Y-120644795D01*
X65355205Y-120798156D01*
X65475693Y-120978480D01*
X65558689Y-121178851D01*
X65601000Y-121391560D01*
X65601000Y-121608440D01*
X65600199Y-121612466D01*
X65559932Y-121814903D01*
X65558689Y-121821149D01*
X65475693Y-122021520D01*
X65355205Y-122201844D01*
X65201844Y-122355205D01*
X65021520Y-122475693D01*
X64821150Y-122558689D01*
X64714794Y-122579845D01*
X64608440Y-122601000D01*
X64391560Y-122601000D01*
X64285206Y-122579845D01*
X64178850Y-122558689D01*
X63978480Y-122475693D01*
X63798156Y-122355205D01*
X63644795Y-122201844D01*
X63524307Y-122021520D01*
X63441311Y-121821149D01*
X63440069Y-121814903D01*
X63399801Y-121612466D01*
X63399000Y-121608440D01*
X63399000Y-121391560D01*
X63441311Y-121178851D01*
X63524307Y-120978480D01*
X63644795Y-120798156D01*
X63798156Y-120644795D01*
X63978480Y-120524307D01*
X64089590Y-120478284D01*
X64178850Y-120441311D01*
X64285206Y-120420155D01*
X64391560Y-120399000D01*
X64608440Y-120399000D01*
X64714794Y-120420155D01*
X64714794Y-120420155D01*
G37*
G36*
X151714794Y-120420155D02*
G01*
X151821150Y-120441311D01*
X151910410Y-120478284D01*
X152021520Y-120524307D01*
X152201844Y-120644795D01*
X152355205Y-120798156D01*
X152475693Y-120978480D01*
X152558689Y-121178851D01*
X152601000Y-121391560D01*
X152601000Y-121608440D01*
X152600199Y-121612466D01*
X152559932Y-121814903D01*
X152558689Y-121821149D01*
X152475693Y-122021520D01*
X152355205Y-122201844D01*
X152201844Y-122355205D01*
X152021520Y-122475693D01*
X151821150Y-122558689D01*
X151714794Y-122579845D01*
X151608440Y-122601000D01*
X151391560Y-122601000D01*
X151285206Y-122579845D01*
X151178850Y-122558689D01*
X150978480Y-122475693D01*
X150798156Y-122355205D01*
X150644795Y-122201844D01*
X150524307Y-122021520D01*
X150441311Y-121821149D01*
X150440069Y-121814903D01*
X150399801Y-121612466D01*
X150399000Y-121608440D01*
X150399000Y-121391560D01*
X150441311Y-121178851D01*
X150524307Y-120978480D01*
X150644795Y-120798156D01*
X150798156Y-120644795D01*
X150978480Y-120524307D01*
X151089590Y-120478284D01*
X151178850Y-120441311D01*
X151285206Y-120420155D01*
X151391560Y-120399000D01*
X151608440Y-120399000D01*
X151714794Y-120420155D01*
X151714794Y-120420155D01*
G37*
G36*
X119054903Y-119612075D02*
G01*
X119282571Y-119706378D01*
X119487466Y-119843285D01*
X119661715Y-120017534D01*
X119661716Y-120017536D01*
X119798623Y-120222431D01*
X119892925Y-120450097D01*
X119941000Y-120691786D01*
X119941000Y-120938214D01*
X119932990Y-120978481D01*
X119892925Y-121179903D01*
X119798622Y-121407571D01*
X119661715Y-121612466D01*
X119487466Y-121786715D01*
X119282571Y-121923622D01*
X119282570Y-121923623D01*
X119282569Y-121923623D01*
X119054903Y-122017925D01*
X118813214Y-122066000D01*
X118566786Y-122066000D01*
X118325097Y-122017925D01*
X118097431Y-121923623D01*
X118097430Y-121923623D01*
X118097429Y-121923622D01*
X117892534Y-121786715D01*
X117718285Y-121612466D01*
X117581378Y-121407571D01*
X117487075Y-121179903D01*
X117447010Y-120978481D01*
X117439000Y-120938214D01*
X117439000Y-120691786D01*
X117487075Y-120450097D01*
X117581377Y-120222431D01*
X117718284Y-120017536D01*
X117718285Y-120017534D01*
X117892534Y-119843285D01*
X118097429Y-119706378D01*
X118325097Y-119612075D01*
X118566786Y-119564000D01*
X118813214Y-119564000D01*
X119054903Y-119612075D01*
X119054903Y-119612075D01*
G37*
G36*
X90054903Y-119612075D02*
G01*
X90282571Y-119706378D01*
X90487466Y-119843285D01*
X90661715Y-120017534D01*
X90661716Y-120017536D01*
X90798623Y-120222431D01*
X90892925Y-120450097D01*
X90941000Y-120691786D01*
X90941000Y-120938214D01*
X90932990Y-120978481D01*
X90892925Y-121179903D01*
X90798622Y-121407571D01*
X90661715Y-121612466D01*
X90487466Y-121786715D01*
X90282571Y-121923622D01*
X90282570Y-121923623D01*
X90282569Y-121923623D01*
X90054903Y-122017925D01*
X89813214Y-122066000D01*
X89566786Y-122066000D01*
X89325097Y-122017925D01*
X89097431Y-121923623D01*
X89097430Y-121923623D01*
X89097429Y-121923622D01*
X88892534Y-121786715D01*
X88718285Y-121612466D01*
X88581378Y-121407571D01*
X88487075Y-121179903D01*
X88447010Y-120978481D01*
X88439000Y-120938214D01*
X88439000Y-120691786D01*
X88487075Y-120450097D01*
X88581377Y-120222431D01*
X88718284Y-120017536D01*
X88718285Y-120017534D01*
X88892534Y-119843285D01*
X89097429Y-119706378D01*
X89325097Y-119612075D01*
X89566786Y-119564000D01*
X89813214Y-119564000D01*
X90054903Y-119612075D01*
X90054903Y-119612075D01*
G37*
G36*
X122806564Y-115989389D02*
G01*
X122997833Y-116068615D01*
X122997835Y-116068616D01*
X123169973Y-116183635D01*
X123316365Y-116330027D01*
X123431385Y-116502167D01*
X123510611Y-116693436D01*
X123551000Y-116896484D01*
X123551000Y-117103516D01*
X123510611Y-117306564D01*
X123431385Y-117497833D01*
X123431384Y-117497835D01*
X123316365Y-117669973D01*
X123169973Y-117816365D01*
X122997835Y-117931384D01*
X122997834Y-117931385D01*
X122997833Y-117931385D01*
X122806564Y-118010611D01*
X122603516Y-118051000D01*
X122396484Y-118051000D01*
X122193436Y-118010611D01*
X122002167Y-117931385D01*
X122002166Y-117931385D01*
X122002165Y-117931384D01*
X121830027Y-117816365D01*
X121683635Y-117669973D01*
X121568616Y-117497835D01*
X121568615Y-117497833D01*
X121489389Y-117306564D01*
X121449000Y-117103516D01*
X121449000Y-116896484D01*
X121489389Y-116693436D01*
X121568615Y-116502167D01*
X121683635Y-116330027D01*
X121830027Y-116183635D01*
X122002165Y-116068616D01*
X122002167Y-116068615D01*
X122193436Y-115989389D01*
X122396484Y-115949000D01*
X122603516Y-115949000D01*
X122806564Y-115989389D01*
X122806564Y-115989389D01*
G37*
G36*
X93806564Y-115989389D02*
G01*
X93997833Y-116068615D01*
X93997835Y-116068616D01*
X94169973Y-116183635D01*
X94316365Y-116330027D01*
X94431385Y-116502167D01*
X94510611Y-116693436D01*
X94551000Y-116896484D01*
X94551000Y-117103516D01*
X94510611Y-117306564D01*
X94431385Y-117497833D01*
X94431384Y-117497835D01*
X94316365Y-117669973D01*
X94169973Y-117816365D01*
X93997835Y-117931384D01*
X93997834Y-117931385D01*
X93997833Y-117931385D01*
X93806564Y-118010611D01*
X93603516Y-118051000D01*
X93396484Y-118051000D01*
X93193436Y-118010611D01*
X93002167Y-117931385D01*
X93002166Y-117931385D01*
X93002165Y-117931384D01*
X92830027Y-117816365D01*
X92683635Y-117669973D01*
X92568616Y-117497835D01*
X92568615Y-117497833D01*
X92489389Y-117306564D01*
X92449000Y-117103516D01*
X92449000Y-116896484D01*
X92489389Y-116693436D01*
X92568615Y-116502167D01*
X92683635Y-116330027D01*
X92830027Y-116183635D01*
X93002165Y-116068616D01*
X93002167Y-116068615D01*
X93193436Y-115989389D01*
X93396484Y-115949000D01*
X93603516Y-115949000D01*
X93806564Y-115989389D01*
X93806564Y-115989389D01*
G37*
G36*
X155679487Y-115168996D02*
G01*
X155916253Y-115267068D01*
X155916255Y-115267069D01*
X155993975Y-115319000D01*
X156129339Y-115409447D01*
X156310553Y-115590661D01*
X156452932Y-115803747D01*
X156551004Y-116040513D01*
X156601000Y-116291861D01*
X156601000Y-116548139D01*
X156551004Y-116799487D01*
X156452932Y-117036253D01*
X156452931Y-117036255D01*
X156310553Y-117249339D01*
X156129339Y-117430553D01*
X155916255Y-117572931D01*
X155916254Y-117572932D01*
X155916253Y-117572932D01*
X155679487Y-117671004D01*
X155428139Y-117721000D01*
X155171861Y-117721000D01*
X154920513Y-117671004D01*
X154683747Y-117572932D01*
X154683746Y-117572932D01*
X154683745Y-117572931D01*
X154470661Y-117430553D01*
X154289447Y-117249339D01*
X154147069Y-117036255D01*
X154147068Y-117036253D01*
X154048996Y-116799487D01*
X153999000Y-116548139D01*
X153999000Y-116291861D01*
X154048996Y-116040513D01*
X154147068Y-115803747D01*
X154289447Y-115590661D01*
X154470661Y-115409447D01*
X154606025Y-115319000D01*
X154683745Y-115267069D01*
X154683747Y-115267068D01*
X154920513Y-115168996D01*
X155171861Y-115119000D01*
X155428139Y-115119000D01*
X155679487Y-115168996D01*
X155679487Y-115168996D01*
G37*
G36*
X148079487Y-115168996D02*
G01*
X148316253Y-115267068D01*
X148316255Y-115267069D01*
X148393975Y-115319000D01*
X148529339Y-115409447D01*
X148710553Y-115590661D01*
X148852932Y-115803747D01*
X148951004Y-116040513D01*
X149001000Y-116291861D01*
X149001000Y-116548139D01*
X148951004Y-116799487D01*
X148852932Y-117036253D01*
X148852931Y-117036255D01*
X148710553Y-117249339D01*
X148529339Y-117430553D01*
X148316255Y-117572931D01*
X148316254Y-117572932D01*
X148316253Y-117572932D01*
X148079487Y-117671004D01*
X147828139Y-117721000D01*
X147571861Y-117721000D01*
X147320513Y-117671004D01*
X147083747Y-117572932D01*
X147083746Y-117572932D01*
X147083745Y-117572931D01*
X146870661Y-117430553D01*
X146689447Y-117249339D01*
X146547069Y-117036255D01*
X146547068Y-117036253D01*
X146448996Y-116799487D01*
X146399000Y-116548139D01*
X146399000Y-116291861D01*
X146448996Y-116040513D01*
X146547068Y-115803747D01*
X146689447Y-115590661D01*
X146870661Y-115409447D01*
X147006025Y-115319000D01*
X147083745Y-115267069D01*
X147083747Y-115267068D01*
X147320513Y-115168996D01*
X147571861Y-115119000D01*
X147828139Y-115119000D01*
X148079487Y-115168996D01*
X148079487Y-115168996D01*
G37*
G36*
X68679487Y-115168996D02*
G01*
X68916253Y-115267068D01*
X68916255Y-115267069D01*
X68993975Y-115319000D01*
X69129339Y-115409447D01*
X69310553Y-115590661D01*
X69452932Y-115803747D01*
X69551004Y-116040513D01*
X69601000Y-116291861D01*
X69601000Y-116548139D01*
X69551004Y-116799487D01*
X69452932Y-117036253D01*
X69452931Y-117036255D01*
X69310553Y-117249339D01*
X69129339Y-117430553D01*
X68916255Y-117572931D01*
X68916254Y-117572932D01*
X68916253Y-117572932D01*
X68679487Y-117671004D01*
X68428139Y-117721000D01*
X68171861Y-117721000D01*
X67920513Y-117671004D01*
X67683747Y-117572932D01*
X67683746Y-117572932D01*
X67683745Y-117572931D01*
X67470661Y-117430553D01*
X67289447Y-117249339D01*
X67147069Y-117036255D01*
X67147068Y-117036253D01*
X67048996Y-116799487D01*
X66999000Y-116548139D01*
X66999000Y-116291861D01*
X67048996Y-116040513D01*
X67147068Y-115803747D01*
X67289447Y-115590661D01*
X67470661Y-115409447D01*
X67606025Y-115319000D01*
X67683745Y-115267069D01*
X67683747Y-115267068D01*
X67920513Y-115168996D01*
X68171861Y-115119000D01*
X68428139Y-115119000D01*
X68679487Y-115168996D01*
X68679487Y-115168996D01*
G37*
G36*
X61079487Y-115168996D02*
G01*
X61316253Y-115267068D01*
X61316255Y-115267069D01*
X61393975Y-115319000D01*
X61529339Y-115409447D01*
X61710553Y-115590661D01*
X61852932Y-115803747D01*
X61951004Y-116040513D01*
X62001000Y-116291861D01*
X62001000Y-116548139D01*
X61951004Y-116799487D01*
X61852932Y-117036253D01*
X61852931Y-117036255D01*
X61710553Y-117249339D01*
X61529339Y-117430553D01*
X61316255Y-117572931D01*
X61316254Y-117572932D01*
X61316253Y-117572932D01*
X61079487Y-117671004D01*
X60828139Y-117721000D01*
X60571861Y-117721000D01*
X60320513Y-117671004D01*
X60083747Y-117572932D01*
X60083746Y-117572932D01*
X60083745Y-117572931D01*
X59870661Y-117430553D01*
X59689447Y-117249339D01*
X59547069Y-117036255D01*
X59547068Y-117036253D01*
X59448996Y-116799487D01*
X59399000Y-116548139D01*
X59399000Y-116291861D01*
X59448996Y-116040513D01*
X59547068Y-115803747D01*
X59689447Y-115590661D01*
X59870661Y-115409447D01*
X60006025Y-115319000D01*
X60083745Y-115267069D01*
X60083747Y-115267068D01*
X60320513Y-115168996D01*
X60571861Y-115119000D01*
X60828139Y-115119000D01*
X61079487Y-115168996D01*
X61079487Y-115168996D01*
G37*
G36*
X151714795Y-115340156D02*
G01*
X151821150Y-115361311D01*
X152021520Y-115444307D01*
X152201844Y-115564795D01*
X152355205Y-115718156D01*
X152475693Y-115898480D01*
X152475693Y-115898481D01*
X152546166Y-116068616D01*
X152558689Y-116098851D01*
X152601000Y-116311560D01*
X152601000Y-116528440D01*
X152558689Y-116741149D01*
X152475693Y-116941520D01*
X152355205Y-117121844D01*
X152201844Y-117275205D01*
X152021520Y-117395693D01*
X151937360Y-117430553D01*
X151821150Y-117478689D01*
X151724907Y-117497833D01*
X151608440Y-117521000D01*
X151391560Y-117521000D01*
X151275093Y-117497833D01*
X151178850Y-117478689D01*
X151062640Y-117430553D01*
X150978480Y-117395693D01*
X150798156Y-117275205D01*
X150644795Y-117121844D01*
X150524307Y-116941520D01*
X150441311Y-116741149D01*
X150399000Y-116528440D01*
X150399000Y-116311560D01*
X150441311Y-116098851D01*
X150453835Y-116068616D01*
X150524307Y-115898481D01*
X150524307Y-115898480D01*
X150644795Y-115718156D01*
X150798156Y-115564795D01*
X150978480Y-115444307D01*
X151178850Y-115361311D01*
X151285205Y-115340156D01*
X151391560Y-115319000D01*
X151608440Y-115319000D01*
X151714795Y-115340156D01*
X151714795Y-115340156D01*
G37*
G36*
X64714795Y-115340156D02*
G01*
X64821150Y-115361311D01*
X65021520Y-115444307D01*
X65201844Y-115564795D01*
X65355205Y-115718156D01*
X65475693Y-115898480D01*
X65475693Y-115898481D01*
X65546166Y-116068616D01*
X65558689Y-116098851D01*
X65601000Y-116311560D01*
X65601000Y-116528440D01*
X65558689Y-116741149D01*
X65475693Y-116941520D01*
X65355205Y-117121844D01*
X65201844Y-117275205D01*
X65021520Y-117395693D01*
X64937360Y-117430553D01*
X64821150Y-117478689D01*
X64724907Y-117497833D01*
X64608440Y-117521000D01*
X64391560Y-117521000D01*
X64275093Y-117497833D01*
X64178850Y-117478689D01*
X64062640Y-117430553D01*
X63978480Y-117395693D01*
X63798156Y-117275205D01*
X63644795Y-117121844D01*
X63524307Y-116941520D01*
X63441311Y-116741149D01*
X63399000Y-116528440D01*
X63399000Y-116311560D01*
X63441311Y-116098851D01*
X63453835Y-116068616D01*
X63524307Y-115898481D01*
X63524307Y-115898480D01*
X63644795Y-115718156D01*
X63798156Y-115564795D01*
X63978480Y-115444307D01*
X64178850Y-115361311D01*
X64285205Y-115340156D01*
X64391560Y-115319000D01*
X64608440Y-115319000D01*
X64714795Y-115340156D01*
X64714795Y-115340156D01*
G37*
G36*
X152506822Y-103961313D02*
G01*
X152667241Y-104009976D01*
X152815077Y-104088995D01*
X152944659Y-104195341D01*
X153051004Y-104324922D01*
X153051005Y-104324924D01*
X153130024Y-104472758D01*
X153178687Y-104633177D01*
X153191000Y-104758196D01*
X153191000Y-105241803D01*
X153178687Y-105366822D01*
X153130024Y-105527242D01*
X153059114Y-105659906D01*
X153051004Y-105675078D01*
X152944659Y-105804659D01*
X152815078Y-105911004D01*
X152815076Y-105911005D01*
X152667242Y-105990024D01*
X152506823Y-106038687D01*
X152340000Y-106055117D01*
X152173178Y-106038687D01*
X152012759Y-105990024D01*
X151864925Y-105911005D01*
X151864923Y-105911004D01*
X151735342Y-105804659D01*
X151628996Y-105675078D01*
X151620886Y-105659906D01*
X151549976Y-105527242D01*
X151501313Y-105366823D01*
X151489000Y-105241804D01*
X151489000Y-104758197D01*
X151501313Y-104633178D01*
X151549976Y-104472759D01*
X151628995Y-104324923D01*
X151735341Y-104195341D01*
X151864922Y-104088996D01*
X151880094Y-104080886D01*
X152012758Y-104009976D01*
X152173177Y-103961313D01*
X152340000Y-103944883D01*
X152506822Y-103961313D01*
X152506822Y-103961313D01*
G37*
G36*
X157586822Y-103961313D02*
G01*
X157747241Y-104009976D01*
X157895077Y-104088995D01*
X158024659Y-104195341D01*
X158131004Y-104324922D01*
X158131005Y-104324924D01*
X158210024Y-104472758D01*
X158258687Y-104633177D01*
X158271000Y-104758196D01*
X158271000Y-105241803D01*
X158258687Y-105366822D01*
X158210024Y-105527242D01*
X158139114Y-105659906D01*
X158131004Y-105675078D01*
X158024659Y-105804659D01*
X157895078Y-105911004D01*
X157895076Y-105911005D01*
X157747242Y-105990024D01*
X157586823Y-106038687D01*
X157420000Y-106055117D01*
X157253178Y-106038687D01*
X157092759Y-105990024D01*
X156944925Y-105911005D01*
X156944923Y-105911004D01*
X156815342Y-105804659D01*
X156708996Y-105675078D01*
X156700886Y-105659906D01*
X156629976Y-105527242D01*
X156581313Y-105366823D01*
X156569000Y-105241804D01*
X156569000Y-104758197D01*
X156581313Y-104633178D01*
X156629976Y-104472759D01*
X156708995Y-104324923D01*
X156815341Y-104195341D01*
X156944922Y-104088996D01*
X156960094Y-104080886D01*
X157092758Y-104009976D01*
X157253177Y-103961313D01*
X157420000Y-103944883D01*
X157586822Y-103961313D01*
X157586822Y-103961313D01*
G37*
G36*
X160126822Y-103961313D02*
G01*
X160287241Y-104009976D01*
X160435077Y-104088995D01*
X160564659Y-104195341D01*
X160671004Y-104324922D01*
X160671005Y-104324924D01*
X160750024Y-104472758D01*
X160798687Y-104633177D01*
X160811000Y-104758196D01*
X160811000Y-105241803D01*
X160798687Y-105366822D01*
X160750024Y-105527242D01*
X160679114Y-105659906D01*
X160671004Y-105675078D01*
X160564659Y-105804659D01*
X160435078Y-105911004D01*
X160435076Y-105911005D01*
X160287242Y-105990024D01*
X160126823Y-106038687D01*
X159960000Y-106055117D01*
X159793178Y-106038687D01*
X159632759Y-105990024D01*
X159484925Y-105911005D01*
X159484923Y-105911004D01*
X159355342Y-105804659D01*
X159248996Y-105675078D01*
X159240886Y-105659906D01*
X159169976Y-105527242D01*
X159121313Y-105366823D01*
X159109000Y-105241804D01*
X159109000Y-104758197D01*
X159121313Y-104633178D01*
X159169976Y-104472759D01*
X159248995Y-104324923D01*
X159355341Y-104195341D01*
X159484922Y-104088996D01*
X159500094Y-104080886D01*
X159632758Y-104009976D01*
X159793177Y-103961313D01*
X159960000Y-103944883D01*
X160126822Y-103961313D01*
X160126822Y-103961313D01*
G37*
G36*
X162666822Y-103961313D02*
G01*
X162827241Y-104009976D01*
X162975077Y-104088995D01*
X163104659Y-104195341D01*
X163211004Y-104324922D01*
X163211005Y-104324924D01*
X163290024Y-104472758D01*
X163338687Y-104633177D01*
X163351000Y-104758196D01*
X163351000Y-105241803D01*
X163338687Y-105366822D01*
X163290024Y-105527242D01*
X163219114Y-105659906D01*
X163211004Y-105675078D01*
X163104659Y-105804659D01*
X162975078Y-105911004D01*
X162975076Y-105911005D01*
X162827242Y-105990024D01*
X162666823Y-106038687D01*
X162500000Y-106055117D01*
X162333178Y-106038687D01*
X162172759Y-105990024D01*
X162024925Y-105911005D01*
X162024923Y-105911004D01*
X161895342Y-105804659D01*
X161788996Y-105675078D01*
X161780886Y-105659906D01*
X161709976Y-105527242D01*
X161661313Y-105366823D01*
X161649000Y-105241804D01*
X161649000Y-104758197D01*
X161661313Y-104633178D01*
X161709976Y-104472759D01*
X161788995Y-104324923D01*
X161895341Y-104195341D01*
X162024922Y-104088996D01*
X162040094Y-104080886D01*
X162172758Y-104009976D01*
X162333177Y-103961313D01*
X162500000Y-103944883D01*
X162666822Y-103961313D01*
X162666822Y-103961313D01*
G37*
G36*
X165206822Y-103961313D02*
G01*
X165367241Y-104009976D01*
X165515077Y-104088995D01*
X165644659Y-104195341D01*
X165751004Y-104324922D01*
X165751005Y-104324924D01*
X165830024Y-104472758D01*
X165878687Y-104633177D01*
X165891000Y-104758196D01*
X165891000Y-105241803D01*
X165878687Y-105366822D01*
X165830024Y-105527242D01*
X165759114Y-105659906D01*
X165751004Y-105675078D01*
X165644659Y-105804659D01*
X165515078Y-105911004D01*
X165515076Y-105911005D01*
X165367242Y-105990024D01*
X165206823Y-106038687D01*
X165040000Y-106055117D01*
X164873178Y-106038687D01*
X164712759Y-105990024D01*
X164564925Y-105911005D01*
X164564923Y-105911004D01*
X164435342Y-105804659D01*
X164328996Y-105675078D01*
X164320886Y-105659906D01*
X164249976Y-105527242D01*
X164201313Y-105366823D01*
X164189000Y-105241804D01*
X164189000Y-104758197D01*
X164201313Y-104633178D01*
X164249976Y-104472759D01*
X164328995Y-104324923D01*
X164435341Y-104195341D01*
X164564922Y-104088996D01*
X164580094Y-104080886D01*
X164712758Y-104009976D01*
X164873177Y-103961313D01*
X165040000Y-103944883D01*
X165206822Y-103961313D01*
X165206822Y-103961313D01*
G37*
G36*
X167746822Y-103961313D02*
G01*
X167907241Y-104009976D01*
X168055077Y-104088995D01*
X168184659Y-104195341D01*
X168291004Y-104324922D01*
X168291005Y-104324924D01*
X168370024Y-104472758D01*
X168418687Y-104633177D01*
X168431000Y-104758196D01*
X168431000Y-105241803D01*
X168418687Y-105366822D01*
X168370024Y-105527242D01*
X168299114Y-105659906D01*
X168291004Y-105675078D01*
X168184659Y-105804659D01*
X168055078Y-105911004D01*
X168055076Y-105911005D01*
X167907242Y-105990024D01*
X167746823Y-106038687D01*
X167580000Y-106055117D01*
X167413178Y-106038687D01*
X167252759Y-105990024D01*
X167104925Y-105911005D01*
X167104923Y-105911004D01*
X166975342Y-105804659D01*
X166868996Y-105675078D01*
X166860886Y-105659906D01*
X166789976Y-105527242D01*
X166741313Y-105366823D01*
X166729000Y-105241804D01*
X166729000Y-104758197D01*
X166741313Y-104633178D01*
X166789976Y-104472759D01*
X166868995Y-104324923D01*
X166975341Y-104195341D01*
X167104922Y-104088996D01*
X167120094Y-104080886D01*
X167252758Y-104009976D01*
X167413177Y-103961313D01*
X167580000Y-103944883D01*
X167746822Y-103961313D01*
X167746822Y-103961313D01*
G37*
G36*
X155046822Y-103961313D02*
G01*
X155207241Y-104009976D01*
X155355077Y-104088995D01*
X155484659Y-104195341D01*
X155591004Y-104324922D01*
X155591005Y-104324924D01*
X155670024Y-104472758D01*
X155718687Y-104633177D01*
X155731000Y-104758196D01*
X155731000Y-105241803D01*
X155718687Y-105366822D01*
X155670024Y-105527242D01*
X155599114Y-105659906D01*
X155591004Y-105675078D01*
X155484659Y-105804659D01*
X155355078Y-105911004D01*
X155355076Y-105911005D01*
X155207242Y-105990024D01*
X155046823Y-106038687D01*
X154880000Y-106055117D01*
X154713178Y-106038687D01*
X154552759Y-105990024D01*
X154404925Y-105911005D01*
X154404923Y-105911004D01*
X154275342Y-105804659D01*
X154168996Y-105675078D01*
X154160886Y-105659906D01*
X154089976Y-105527242D01*
X154041313Y-105366823D01*
X154029000Y-105241804D01*
X154029000Y-104758197D01*
X154041313Y-104633178D01*
X154089976Y-104472759D01*
X154168995Y-104324923D01*
X154275341Y-104195341D01*
X154404922Y-104088996D01*
X154420094Y-104080886D01*
X154552758Y-104009976D01*
X154713177Y-103961313D01*
X154880000Y-103944883D01*
X155046822Y-103961313D01*
X155046822Y-103961313D01*
G37*
G36*
X150851000Y-106051000D02*
G01*
X148749000Y-106051000D01*
X148749000Y-103949000D01*
X150851000Y-103949000D01*
X150851000Y-106051000D01*
X150851000Y-106051000D01*
G37*
G36*
X100351000Y-100351000D02*
G01*
X98649000Y-100351000D01*
X98649000Y-98649000D01*
X100351000Y-98649000D01*
X100351000Y-100351000D01*
X100351000Y-100351000D01*
G37*
G36*
X99748228Y-96181703D02*
G01*
X99903100Y-96245853D01*
X100042481Y-96338985D01*
X100161015Y-96457519D01*
X100254147Y-96596900D01*
X100318297Y-96751772D01*
X100351000Y-96916184D01*
X100351000Y-97083816D01*
X100318297Y-97248228D01*
X100254147Y-97403100D01*
X100161015Y-97542481D01*
X100042481Y-97661015D01*
X99903100Y-97754147D01*
X99748228Y-97818297D01*
X99583816Y-97851000D01*
X99416184Y-97851000D01*
X99251772Y-97818297D01*
X99096900Y-97754147D01*
X98957519Y-97661015D01*
X98838985Y-97542481D01*
X98745853Y-97403100D01*
X98681703Y-97248228D01*
X98649000Y-97083816D01*
X98649000Y-96916184D01*
X98681703Y-96751772D01*
X98745853Y-96596900D01*
X98838985Y-96457519D01*
X98957519Y-96338985D01*
X99096900Y-96245853D01*
X99251772Y-96181703D01*
X99416184Y-96149000D01*
X99583816Y-96149000D01*
X99748228Y-96181703D01*
X99748228Y-96181703D01*
G37*
G36*
X46273268Y-83650876D02*
G01*
X46473105Y-83733651D01*
X46755718Y-83850713D01*
X46755719Y-83850714D01*
X47189914Y-84140834D01*
X47559166Y-84510086D01*
X47559167Y-84510088D01*
X47849287Y-84944282D01*
X48049124Y-85426733D01*
X48151000Y-85938898D01*
X48151000Y-86461102D01*
X48049124Y-86973267D01*
X47849287Y-87455718D01*
X47849286Y-87455719D01*
X47559166Y-87889914D01*
X47189914Y-88259166D01*
X46971341Y-88405212D01*
X46755718Y-88549287D01*
X46473105Y-88666349D01*
X46273268Y-88749124D01*
X45761102Y-88851000D01*
X45238898Y-88851000D01*
X44726732Y-88749124D01*
X44526895Y-88666349D01*
X44244282Y-88549287D01*
X44028659Y-88405212D01*
X43810086Y-88259166D01*
X43440834Y-87889914D01*
X43150714Y-87455719D01*
X43150713Y-87455718D01*
X42950876Y-86973267D01*
X42849000Y-86461102D01*
X42849000Y-85938898D01*
X42950876Y-85426733D01*
X43150713Y-84944282D01*
X43440833Y-84510088D01*
X43440834Y-84510086D01*
X43810086Y-84140834D01*
X44244281Y-83850714D01*
X44244282Y-83850713D01*
X44526895Y-83733651D01*
X44726732Y-83650876D01*
X45238898Y-83549000D01*
X45761102Y-83549000D01*
X46273268Y-83650876D01*
X46273268Y-83650876D01*
G37*
G36*
X116773268Y-83650876D02*
G01*
X116973105Y-83733651D01*
X117255718Y-83850713D01*
X117255719Y-83850714D01*
X117689914Y-84140834D01*
X118059166Y-84510086D01*
X118059167Y-84510088D01*
X118349287Y-84944282D01*
X118549124Y-85426733D01*
X118651000Y-85938898D01*
X118651000Y-86461102D01*
X118549124Y-86973267D01*
X118349287Y-87455718D01*
X118349286Y-87455719D01*
X118059166Y-87889914D01*
X117689914Y-88259166D01*
X117471341Y-88405212D01*
X117255718Y-88549287D01*
X116973105Y-88666349D01*
X116773268Y-88749124D01*
X116261102Y-88851000D01*
X115738898Y-88851000D01*
X115226732Y-88749124D01*
X115026895Y-88666349D01*
X114744282Y-88549287D01*
X114528659Y-88405212D01*
X114310086Y-88259166D01*
X113940834Y-87889914D01*
X113650714Y-87455719D01*
X113650713Y-87455718D01*
X113450876Y-86973267D01*
X113349000Y-86461102D01*
X113349000Y-85938898D01*
X113450876Y-85426733D01*
X113650713Y-84944282D01*
X113940833Y-84510088D01*
X113940834Y-84510086D01*
X114310086Y-84140834D01*
X114744281Y-83850714D01*
X114744282Y-83850713D01*
X115026895Y-83733651D01*
X115226732Y-83650876D01*
X115738898Y-83549000D01*
X116261102Y-83549000D01*
X116773268Y-83650876D01*
X116773268Y-83650876D01*
G37*
G36*
X160126822Y-81101313D02*
G01*
X160287241Y-81149976D01*
X160435077Y-81228995D01*
X160564659Y-81335341D01*
X160671004Y-81464922D01*
X160671005Y-81464924D01*
X160750024Y-81612758D01*
X160798687Y-81773177D01*
X160811000Y-81898196D01*
X160811000Y-82381803D01*
X160798687Y-82506822D01*
X160750024Y-82667242D01*
X160679114Y-82799906D01*
X160671004Y-82815078D01*
X160564659Y-82944659D01*
X160435078Y-83051004D01*
X160435076Y-83051005D01*
X160287242Y-83130024D01*
X160126823Y-83178687D01*
X159960000Y-83195117D01*
X159793178Y-83178687D01*
X159632759Y-83130024D01*
X159484925Y-83051005D01*
X159484923Y-83051004D01*
X159355342Y-82944659D01*
X159248996Y-82815078D01*
X159240886Y-82799906D01*
X159169976Y-82667242D01*
X159121313Y-82506823D01*
X159109000Y-82381804D01*
X159109000Y-81898197D01*
X159121313Y-81773178D01*
X159169976Y-81612759D01*
X159248995Y-81464923D01*
X159355341Y-81335341D01*
X159484922Y-81228996D01*
X159500094Y-81220886D01*
X159632758Y-81149976D01*
X159793177Y-81101313D01*
X159960000Y-81084883D01*
X160126822Y-81101313D01*
X160126822Y-81101313D01*
G37*
G36*
X157586822Y-81101313D02*
G01*
X157747241Y-81149976D01*
X157895077Y-81228995D01*
X158024659Y-81335341D01*
X158131004Y-81464922D01*
X158131005Y-81464924D01*
X158210024Y-81612758D01*
X158258687Y-81773177D01*
X158271000Y-81898196D01*
X158271000Y-82381803D01*
X158258687Y-82506822D01*
X158210024Y-82667242D01*
X158139114Y-82799906D01*
X158131004Y-82815078D01*
X158024659Y-82944659D01*
X157895078Y-83051004D01*
X157895076Y-83051005D01*
X157747242Y-83130024D01*
X157586823Y-83178687D01*
X157420000Y-83195117D01*
X157253178Y-83178687D01*
X157092759Y-83130024D01*
X156944925Y-83051005D01*
X156944923Y-83051004D01*
X156815342Y-82944659D01*
X156708996Y-82815078D01*
X156700886Y-82799906D01*
X156629976Y-82667242D01*
X156581313Y-82506823D01*
X156569000Y-82381804D01*
X156569000Y-81898197D01*
X156581313Y-81773178D01*
X156629976Y-81612759D01*
X156708995Y-81464923D01*
X156815341Y-81335341D01*
X156944922Y-81228996D01*
X156960094Y-81220886D01*
X157092758Y-81149976D01*
X157253177Y-81101313D01*
X157420000Y-81084883D01*
X157586822Y-81101313D01*
X157586822Y-81101313D01*
G37*
G36*
X155046822Y-81101313D02*
G01*
X155207241Y-81149976D01*
X155355077Y-81228995D01*
X155484659Y-81335341D01*
X155591004Y-81464922D01*
X155591005Y-81464924D01*
X155670024Y-81612758D01*
X155718687Y-81773177D01*
X155731000Y-81898196D01*
X155731000Y-82381803D01*
X155718687Y-82506822D01*
X155670024Y-82667242D01*
X155599114Y-82799906D01*
X155591004Y-82815078D01*
X155484659Y-82944659D01*
X155355078Y-83051004D01*
X155355076Y-83051005D01*
X155207242Y-83130024D01*
X155046823Y-83178687D01*
X154880000Y-83195117D01*
X154713178Y-83178687D01*
X154552759Y-83130024D01*
X154404925Y-83051005D01*
X154404923Y-83051004D01*
X154275342Y-82944659D01*
X154168996Y-82815078D01*
X154160886Y-82799906D01*
X154089976Y-82667242D01*
X154041313Y-82506823D01*
X154029000Y-82381804D01*
X154029000Y-81898197D01*
X154041313Y-81773178D01*
X154089976Y-81612759D01*
X154168995Y-81464923D01*
X154275341Y-81335341D01*
X154404922Y-81228996D01*
X154420094Y-81220886D01*
X154552758Y-81149976D01*
X154713177Y-81101313D01*
X154880000Y-81084883D01*
X155046822Y-81101313D01*
X155046822Y-81101313D01*
G37*
G36*
X152506822Y-81101313D02*
G01*
X152667241Y-81149976D01*
X152815077Y-81228995D01*
X152944659Y-81335341D01*
X153051004Y-81464922D01*
X153051005Y-81464924D01*
X153130024Y-81612758D01*
X153178687Y-81773177D01*
X153191000Y-81898196D01*
X153191000Y-82381803D01*
X153178687Y-82506822D01*
X153130024Y-82667242D01*
X153059114Y-82799906D01*
X153051004Y-82815078D01*
X152944659Y-82944659D01*
X152815078Y-83051004D01*
X152815076Y-83051005D01*
X152667242Y-83130024D01*
X152506823Y-83178687D01*
X152340000Y-83195117D01*
X152173178Y-83178687D01*
X152012759Y-83130024D01*
X151864925Y-83051005D01*
X151864923Y-83051004D01*
X151735342Y-82944659D01*
X151628996Y-82815078D01*
X151620886Y-82799906D01*
X151549976Y-82667242D01*
X151501313Y-82506823D01*
X151489000Y-82381804D01*
X151489000Y-81898197D01*
X151501313Y-81773178D01*
X151549976Y-81612759D01*
X151628995Y-81464923D01*
X151735341Y-81335341D01*
X151864922Y-81228996D01*
X151880094Y-81220886D01*
X152012758Y-81149976D01*
X152173177Y-81101313D01*
X152340000Y-81084883D01*
X152506822Y-81101313D01*
X152506822Y-81101313D01*
G37*
G36*
X149966822Y-81101313D02*
G01*
X150127241Y-81149976D01*
X150275077Y-81228995D01*
X150404659Y-81335341D01*
X150511004Y-81464922D01*
X150511005Y-81464924D01*
X150590024Y-81612758D01*
X150638687Y-81773177D01*
X150651000Y-81898196D01*
X150651000Y-82381803D01*
X150638687Y-82506822D01*
X150590024Y-82667242D01*
X150519114Y-82799906D01*
X150511004Y-82815078D01*
X150404659Y-82944659D01*
X150275078Y-83051004D01*
X150275076Y-83051005D01*
X150127242Y-83130024D01*
X149966823Y-83178687D01*
X149800000Y-83195117D01*
X149633178Y-83178687D01*
X149472759Y-83130024D01*
X149324925Y-83051005D01*
X149324923Y-83051004D01*
X149195342Y-82944659D01*
X149088996Y-82815078D01*
X149080886Y-82799906D01*
X149009976Y-82667242D01*
X148961313Y-82506823D01*
X148949000Y-82381804D01*
X148949000Y-81898197D01*
X148961313Y-81773178D01*
X149009976Y-81612759D01*
X149088995Y-81464923D01*
X149195341Y-81335341D01*
X149324922Y-81228996D01*
X149340094Y-81220886D01*
X149472758Y-81149976D01*
X149633177Y-81101313D01*
X149800000Y-81084883D01*
X149966822Y-81101313D01*
X149966822Y-81101313D01*
G37*
G36*
X162666822Y-81101313D02*
G01*
X162827241Y-81149976D01*
X162975077Y-81228995D01*
X163104659Y-81335341D01*
X163211004Y-81464922D01*
X163211005Y-81464924D01*
X163290024Y-81612758D01*
X163338687Y-81773177D01*
X163351000Y-81898196D01*
X163351000Y-82381803D01*
X163338687Y-82506822D01*
X163290024Y-82667242D01*
X163219114Y-82799906D01*
X163211004Y-82815078D01*
X163104659Y-82944659D01*
X162975078Y-83051004D01*
X162975076Y-83051005D01*
X162827242Y-83130024D01*
X162666823Y-83178687D01*
X162500000Y-83195117D01*
X162333178Y-83178687D01*
X162172759Y-83130024D01*
X162024925Y-83051005D01*
X162024923Y-83051004D01*
X161895342Y-82944659D01*
X161788996Y-82815078D01*
X161780886Y-82799906D01*
X161709976Y-82667242D01*
X161661313Y-82506823D01*
X161649000Y-82381804D01*
X161649000Y-81898197D01*
X161661313Y-81773178D01*
X161709976Y-81612759D01*
X161788995Y-81464923D01*
X161895341Y-81335341D01*
X162024922Y-81228996D01*
X162040094Y-81220886D01*
X162172758Y-81149976D01*
X162333177Y-81101313D01*
X162500000Y-81084883D01*
X162666822Y-81101313D01*
X162666822Y-81101313D01*
G37*
G36*
X167746822Y-81101313D02*
G01*
X167907241Y-81149976D01*
X168055077Y-81228995D01*
X168184659Y-81335341D01*
X168291004Y-81464922D01*
X168291005Y-81464924D01*
X168370024Y-81612758D01*
X168418687Y-81773177D01*
X168431000Y-81898196D01*
X168431000Y-82381803D01*
X168418687Y-82506822D01*
X168370024Y-82667242D01*
X168299114Y-82799906D01*
X168291004Y-82815078D01*
X168184659Y-82944659D01*
X168055078Y-83051004D01*
X168055076Y-83051005D01*
X167907242Y-83130024D01*
X167746823Y-83178687D01*
X167580000Y-83195117D01*
X167413178Y-83178687D01*
X167252759Y-83130024D01*
X167104925Y-83051005D01*
X167104923Y-83051004D01*
X166975342Y-82944659D01*
X166868996Y-82815078D01*
X166860886Y-82799906D01*
X166789976Y-82667242D01*
X166741313Y-82506823D01*
X166729000Y-82381804D01*
X166729000Y-81898197D01*
X166741313Y-81773178D01*
X166789976Y-81612759D01*
X166868995Y-81464923D01*
X166975341Y-81335341D01*
X167104922Y-81228996D01*
X167120094Y-81220886D01*
X167252758Y-81149976D01*
X167413177Y-81101313D01*
X167580000Y-81084883D01*
X167746822Y-81101313D01*
X167746822Y-81101313D01*
G37*
G36*
X165206822Y-81101313D02*
G01*
X165367241Y-81149976D01*
X165515077Y-81228995D01*
X165644659Y-81335341D01*
X165751004Y-81464922D01*
X165751005Y-81464924D01*
X165830024Y-81612758D01*
X165878687Y-81773177D01*
X165891000Y-81898196D01*
X165891000Y-82381803D01*
X165878687Y-82506822D01*
X165830024Y-82667242D01*
X165759114Y-82799906D01*
X165751004Y-82815078D01*
X165644659Y-82944659D01*
X165515078Y-83051004D01*
X165515076Y-83051005D01*
X165367242Y-83130024D01*
X165206823Y-83178687D01*
X165040000Y-83195117D01*
X164873178Y-83178687D01*
X164712759Y-83130024D01*
X164564925Y-83051005D01*
X164564923Y-83051004D01*
X164435342Y-82944659D01*
X164328996Y-82815078D01*
X164320886Y-82799906D01*
X164249976Y-82667242D01*
X164201313Y-82506823D01*
X164189000Y-82381804D01*
X164189000Y-81898197D01*
X164201313Y-81773178D01*
X164249976Y-81612759D01*
X164328995Y-81464923D01*
X164435341Y-81335341D01*
X164564922Y-81228996D01*
X164580094Y-81220886D01*
X164712758Y-81149976D01*
X164873177Y-81101313D01*
X165040000Y-81084883D01*
X165206822Y-81101313D01*
X165206822Y-81101313D01*
G37*
M02*
