G04 #@! TF.GenerationSoftware,KiCad,Pcbnew,5.1.4+dfsg1-1*
G04 #@! TF.CreationDate,2020-04-24T21:08:45-06:00*
G04 #@! TF.ProjectId,balanced-xlr,62616c61-6e63-4656-942d-786c722e6b69,rev?*
G04 #@! TF.SameCoordinates,Original*
G04 #@! TF.FileFunction,Paste,Top*
G04 #@! TF.FilePolarity,Positive*
%FSLAX46Y46*%
G04 Gerber Fmt 4.6, Leading zero omitted, Abs format (unit mm)*
G04 Created by KiCad (PCBNEW 5.1.4+dfsg1-1) date 2020-04-24 21:08:45*
%MOMM*%
%LPD*%
G04 APERTURE LIST*
%ADD10R,1.450000X0.450000*%
%ADD11R,2.000000X1.500000*%
%ADD12C,0.100000*%
%ADD13C,0.950000*%
G04 APERTURE END LIST*
D10*
X110750000Y-106250000D03*
X110750000Y-106900000D03*
X110750000Y-107550000D03*
X110750000Y-108200000D03*
X110750000Y-108850000D03*
X110750000Y-109500000D03*
X110750000Y-110150000D03*
X104850000Y-110150000D03*
X104850000Y-109500000D03*
X104850000Y-108850000D03*
X104850000Y-108200000D03*
X104850000Y-107550000D03*
X104850000Y-106900000D03*
X104850000Y-106250000D03*
D11*
X78500000Y-86050000D03*
X71500000Y-86050000D03*
X78500000Y-81550000D03*
X71500000Y-81550000D03*
X56100000Y-81550000D03*
X63100000Y-81550000D03*
X56100000Y-86050000D03*
X63100000Y-86050000D03*
D12*
G36*
X91835779Y-112126144D02*
G01*
X91858834Y-112129563D01*
X91881443Y-112135227D01*
X91903387Y-112143079D01*
X91924457Y-112153044D01*
X91944448Y-112165026D01*
X91963168Y-112178910D01*
X91980438Y-112194562D01*
X91996090Y-112211832D01*
X92009974Y-112230552D01*
X92021956Y-112250543D01*
X92031921Y-112271613D01*
X92039773Y-112293557D01*
X92045437Y-112316166D01*
X92048856Y-112339221D01*
X92050000Y-112362500D01*
X92050000Y-112837500D01*
X92048856Y-112860779D01*
X92045437Y-112883834D01*
X92039773Y-112906443D01*
X92031921Y-112928387D01*
X92021956Y-112949457D01*
X92009974Y-112969448D01*
X91996090Y-112988168D01*
X91980438Y-113005438D01*
X91963168Y-113021090D01*
X91944448Y-113034974D01*
X91924457Y-113046956D01*
X91903387Y-113056921D01*
X91881443Y-113064773D01*
X91858834Y-113070437D01*
X91835779Y-113073856D01*
X91812500Y-113075000D01*
X91237500Y-113075000D01*
X91214221Y-113073856D01*
X91191166Y-113070437D01*
X91168557Y-113064773D01*
X91146613Y-113056921D01*
X91125543Y-113046956D01*
X91105552Y-113034974D01*
X91086832Y-113021090D01*
X91069562Y-113005438D01*
X91053910Y-112988168D01*
X91040026Y-112969448D01*
X91028044Y-112949457D01*
X91018079Y-112928387D01*
X91010227Y-112906443D01*
X91004563Y-112883834D01*
X91001144Y-112860779D01*
X91000000Y-112837500D01*
X91000000Y-112362500D01*
X91001144Y-112339221D01*
X91004563Y-112316166D01*
X91010227Y-112293557D01*
X91018079Y-112271613D01*
X91028044Y-112250543D01*
X91040026Y-112230552D01*
X91053910Y-112211832D01*
X91069562Y-112194562D01*
X91086832Y-112178910D01*
X91105552Y-112165026D01*
X91125543Y-112153044D01*
X91146613Y-112143079D01*
X91168557Y-112135227D01*
X91191166Y-112129563D01*
X91214221Y-112126144D01*
X91237500Y-112125000D01*
X91812500Y-112125000D01*
X91835779Y-112126144D01*
X91835779Y-112126144D01*
G37*
D13*
X91525000Y-112600000D03*
D12*
G36*
X93585779Y-112126144D02*
G01*
X93608834Y-112129563D01*
X93631443Y-112135227D01*
X93653387Y-112143079D01*
X93674457Y-112153044D01*
X93694448Y-112165026D01*
X93713168Y-112178910D01*
X93730438Y-112194562D01*
X93746090Y-112211832D01*
X93759974Y-112230552D01*
X93771956Y-112250543D01*
X93781921Y-112271613D01*
X93789773Y-112293557D01*
X93795437Y-112316166D01*
X93798856Y-112339221D01*
X93800000Y-112362500D01*
X93800000Y-112837500D01*
X93798856Y-112860779D01*
X93795437Y-112883834D01*
X93789773Y-112906443D01*
X93781921Y-112928387D01*
X93771956Y-112949457D01*
X93759974Y-112969448D01*
X93746090Y-112988168D01*
X93730438Y-113005438D01*
X93713168Y-113021090D01*
X93694448Y-113034974D01*
X93674457Y-113046956D01*
X93653387Y-113056921D01*
X93631443Y-113064773D01*
X93608834Y-113070437D01*
X93585779Y-113073856D01*
X93562500Y-113075000D01*
X92987500Y-113075000D01*
X92964221Y-113073856D01*
X92941166Y-113070437D01*
X92918557Y-113064773D01*
X92896613Y-113056921D01*
X92875543Y-113046956D01*
X92855552Y-113034974D01*
X92836832Y-113021090D01*
X92819562Y-113005438D01*
X92803910Y-112988168D01*
X92790026Y-112969448D01*
X92778044Y-112949457D01*
X92768079Y-112928387D01*
X92760227Y-112906443D01*
X92754563Y-112883834D01*
X92751144Y-112860779D01*
X92750000Y-112837500D01*
X92750000Y-112362500D01*
X92751144Y-112339221D01*
X92754563Y-112316166D01*
X92760227Y-112293557D01*
X92768079Y-112271613D01*
X92778044Y-112250543D01*
X92790026Y-112230552D01*
X92803910Y-112211832D01*
X92819562Y-112194562D01*
X92836832Y-112178910D01*
X92855552Y-112165026D01*
X92875543Y-112153044D01*
X92896613Y-112143079D01*
X92918557Y-112135227D01*
X92941166Y-112129563D01*
X92964221Y-112126144D01*
X92987500Y-112125000D01*
X93562500Y-112125000D01*
X93585779Y-112126144D01*
X93585779Y-112126144D01*
G37*
D13*
X93275000Y-112600000D03*
D12*
G36*
X96235779Y-112126144D02*
G01*
X96258834Y-112129563D01*
X96281443Y-112135227D01*
X96303387Y-112143079D01*
X96324457Y-112153044D01*
X96344448Y-112165026D01*
X96363168Y-112178910D01*
X96380438Y-112194562D01*
X96396090Y-112211832D01*
X96409974Y-112230552D01*
X96421956Y-112250543D01*
X96431921Y-112271613D01*
X96439773Y-112293557D01*
X96445437Y-112316166D01*
X96448856Y-112339221D01*
X96450000Y-112362500D01*
X96450000Y-112837500D01*
X96448856Y-112860779D01*
X96445437Y-112883834D01*
X96439773Y-112906443D01*
X96431921Y-112928387D01*
X96421956Y-112949457D01*
X96409974Y-112969448D01*
X96396090Y-112988168D01*
X96380438Y-113005438D01*
X96363168Y-113021090D01*
X96344448Y-113034974D01*
X96324457Y-113046956D01*
X96303387Y-113056921D01*
X96281443Y-113064773D01*
X96258834Y-113070437D01*
X96235779Y-113073856D01*
X96212500Y-113075000D01*
X95637500Y-113075000D01*
X95614221Y-113073856D01*
X95591166Y-113070437D01*
X95568557Y-113064773D01*
X95546613Y-113056921D01*
X95525543Y-113046956D01*
X95505552Y-113034974D01*
X95486832Y-113021090D01*
X95469562Y-113005438D01*
X95453910Y-112988168D01*
X95440026Y-112969448D01*
X95428044Y-112949457D01*
X95418079Y-112928387D01*
X95410227Y-112906443D01*
X95404563Y-112883834D01*
X95401144Y-112860779D01*
X95400000Y-112837500D01*
X95400000Y-112362500D01*
X95401144Y-112339221D01*
X95404563Y-112316166D01*
X95410227Y-112293557D01*
X95418079Y-112271613D01*
X95428044Y-112250543D01*
X95440026Y-112230552D01*
X95453910Y-112211832D01*
X95469562Y-112194562D01*
X95486832Y-112178910D01*
X95505552Y-112165026D01*
X95525543Y-112153044D01*
X95546613Y-112143079D01*
X95568557Y-112135227D01*
X95591166Y-112129563D01*
X95614221Y-112126144D01*
X95637500Y-112125000D01*
X96212500Y-112125000D01*
X96235779Y-112126144D01*
X96235779Y-112126144D01*
G37*
D13*
X95925000Y-112600000D03*
D12*
G36*
X97985779Y-112126144D02*
G01*
X98008834Y-112129563D01*
X98031443Y-112135227D01*
X98053387Y-112143079D01*
X98074457Y-112153044D01*
X98094448Y-112165026D01*
X98113168Y-112178910D01*
X98130438Y-112194562D01*
X98146090Y-112211832D01*
X98159974Y-112230552D01*
X98171956Y-112250543D01*
X98181921Y-112271613D01*
X98189773Y-112293557D01*
X98195437Y-112316166D01*
X98198856Y-112339221D01*
X98200000Y-112362500D01*
X98200000Y-112837500D01*
X98198856Y-112860779D01*
X98195437Y-112883834D01*
X98189773Y-112906443D01*
X98181921Y-112928387D01*
X98171956Y-112949457D01*
X98159974Y-112969448D01*
X98146090Y-112988168D01*
X98130438Y-113005438D01*
X98113168Y-113021090D01*
X98094448Y-113034974D01*
X98074457Y-113046956D01*
X98053387Y-113056921D01*
X98031443Y-113064773D01*
X98008834Y-113070437D01*
X97985779Y-113073856D01*
X97962500Y-113075000D01*
X97387500Y-113075000D01*
X97364221Y-113073856D01*
X97341166Y-113070437D01*
X97318557Y-113064773D01*
X97296613Y-113056921D01*
X97275543Y-113046956D01*
X97255552Y-113034974D01*
X97236832Y-113021090D01*
X97219562Y-113005438D01*
X97203910Y-112988168D01*
X97190026Y-112969448D01*
X97178044Y-112949457D01*
X97168079Y-112928387D01*
X97160227Y-112906443D01*
X97154563Y-112883834D01*
X97151144Y-112860779D01*
X97150000Y-112837500D01*
X97150000Y-112362500D01*
X97151144Y-112339221D01*
X97154563Y-112316166D01*
X97160227Y-112293557D01*
X97168079Y-112271613D01*
X97178044Y-112250543D01*
X97190026Y-112230552D01*
X97203910Y-112211832D01*
X97219562Y-112194562D01*
X97236832Y-112178910D01*
X97255552Y-112165026D01*
X97275543Y-112153044D01*
X97296613Y-112143079D01*
X97318557Y-112135227D01*
X97341166Y-112129563D01*
X97364221Y-112126144D01*
X97387500Y-112125000D01*
X97962500Y-112125000D01*
X97985779Y-112126144D01*
X97985779Y-112126144D01*
G37*
D13*
X97675000Y-112600000D03*
D12*
G36*
X122635779Y-112126144D02*
G01*
X122658834Y-112129563D01*
X122681443Y-112135227D01*
X122703387Y-112143079D01*
X122724457Y-112153044D01*
X122744448Y-112165026D01*
X122763168Y-112178910D01*
X122780438Y-112194562D01*
X122796090Y-112211832D01*
X122809974Y-112230552D01*
X122821956Y-112250543D01*
X122831921Y-112271613D01*
X122839773Y-112293557D01*
X122845437Y-112316166D01*
X122848856Y-112339221D01*
X122850000Y-112362500D01*
X122850000Y-112837500D01*
X122848856Y-112860779D01*
X122845437Y-112883834D01*
X122839773Y-112906443D01*
X122831921Y-112928387D01*
X122821956Y-112949457D01*
X122809974Y-112969448D01*
X122796090Y-112988168D01*
X122780438Y-113005438D01*
X122763168Y-113021090D01*
X122744448Y-113034974D01*
X122724457Y-113046956D01*
X122703387Y-113056921D01*
X122681443Y-113064773D01*
X122658834Y-113070437D01*
X122635779Y-113073856D01*
X122612500Y-113075000D01*
X122037500Y-113075000D01*
X122014221Y-113073856D01*
X121991166Y-113070437D01*
X121968557Y-113064773D01*
X121946613Y-113056921D01*
X121925543Y-113046956D01*
X121905552Y-113034974D01*
X121886832Y-113021090D01*
X121869562Y-113005438D01*
X121853910Y-112988168D01*
X121840026Y-112969448D01*
X121828044Y-112949457D01*
X121818079Y-112928387D01*
X121810227Y-112906443D01*
X121804563Y-112883834D01*
X121801144Y-112860779D01*
X121800000Y-112837500D01*
X121800000Y-112362500D01*
X121801144Y-112339221D01*
X121804563Y-112316166D01*
X121810227Y-112293557D01*
X121818079Y-112271613D01*
X121828044Y-112250543D01*
X121840026Y-112230552D01*
X121853910Y-112211832D01*
X121869562Y-112194562D01*
X121886832Y-112178910D01*
X121905552Y-112165026D01*
X121925543Y-112153044D01*
X121946613Y-112143079D01*
X121968557Y-112135227D01*
X121991166Y-112129563D01*
X122014221Y-112126144D01*
X122037500Y-112125000D01*
X122612500Y-112125000D01*
X122635779Y-112126144D01*
X122635779Y-112126144D01*
G37*
D13*
X122325000Y-112600000D03*
D12*
G36*
X124385779Y-112126144D02*
G01*
X124408834Y-112129563D01*
X124431443Y-112135227D01*
X124453387Y-112143079D01*
X124474457Y-112153044D01*
X124494448Y-112165026D01*
X124513168Y-112178910D01*
X124530438Y-112194562D01*
X124546090Y-112211832D01*
X124559974Y-112230552D01*
X124571956Y-112250543D01*
X124581921Y-112271613D01*
X124589773Y-112293557D01*
X124595437Y-112316166D01*
X124598856Y-112339221D01*
X124600000Y-112362500D01*
X124600000Y-112837500D01*
X124598856Y-112860779D01*
X124595437Y-112883834D01*
X124589773Y-112906443D01*
X124581921Y-112928387D01*
X124571956Y-112949457D01*
X124559974Y-112969448D01*
X124546090Y-112988168D01*
X124530438Y-113005438D01*
X124513168Y-113021090D01*
X124494448Y-113034974D01*
X124474457Y-113046956D01*
X124453387Y-113056921D01*
X124431443Y-113064773D01*
X124408834Y-113070437D01*
X124385779Y-113073856D01*
X124362500Y-113075000D01*
X123787500Y-113075000D01*
X123764221Y-113073856D01*
X123741166Y-113070437D01*
X123718557Y-113064773D01*
X123696613Y-113056921D01*
X123675543Y-113046956D01*
X123655552Y-113034974D01*
X123636832Y-113021090D01*
X123619562Y-113005438D01*
X123603910Y-112988168D01*
X123590026Y-112969448D01*
X123578044Y-112949457D01*
X123568079Y-112928387D01*
X123560227Y-112906443D01*
X123554563Y-112883834D01*
X123551144Y-112860779D01*
X123550000Y-112837500D01*
X123550000Y-112362500D01*
X123551144Y-112339221D01*
X123554563Y-112316166D01*
X123560227Y-112293557D01*
X123568079Y-112271613D01*
X123578044Y-112250543D01*
X123590026Y-112230552D01*
X123603910Y-112211832D01*
X123619562Y-112194562D01*
X123636832Y-112178910D01*
X123655552Y-112165026D01*
X123675543Y-112153044D01*
X123696613Y-112143079D01*
X123718557Y-112135227D01*
X123741166Y-112129563D01*
X123764221Y-112126144D01*
X123787500Y-112125000D01*
X124362500Y-112125000D01*
X124385779Y-112126144D01*
X124385779Y-112126144D01*
G37*
D13*
X124075000Y-112600000D03*
D12*
G36*
X119985779Y-112126144D02*
G01*
X120008834Y-112129563D01*
X120031443Y-112135227D01*
X120053387Y-112143079D01*
X120074457Y-112153044D01*
X120094448Y-112165026D01*
X120113168Y-112178910D01*
X120130438Y-112194562D01*
X120146090Y-112211832D01*
X120159974Y-112230552D01*
X120171956Y-112250543D01*
X120181921Y-112271613D01*
X120189773Y-112293557D01*
X120195437Y-112316166D01*
X120198856Y-112339221D01*
X120200000Y-112362500D01*
X120200000Y-112837500D01*
X120198856Y-112860779D01*
X120195437Y-112883834D01*
X120189773Y-112906443D01*
X120181921Y-112928387D01*
X120171956Y-112949457D01*
X120159974Y-112969448D01*
X120146090Y-112988168D01*
X120130438Y-113005438D01*
X120113168Y-113021090D01*
X120094448Y-113034974D01*
X120074457Y-113046956D01*
X120053387Y-113056921D01*
X120031443Y-113064773D01*
X120008834Y-113070437D01*
X119985779Y-113073856D01*
X119962500Y-113075000D01*
X119387500Y-113075000D01*
X119364221Y-113073856D01*
X119341166Y-113070437D01*
X119318557Y-113064773D01*
X119296613Y-113056921D01*
X119275543Y-113046956D01*
X119255552Y-113034974D01*
X119236832Y-113021090D01*
X119219562Y-113005438D01*
X119203910Y-112988168D01*
X119190026Y-112969448D01*
X119178044Y-112949457D01*
X119168079Y-112928387D01*
X119160227Y-112906443D01*
X119154563Y-112883834D01*
X119151144Y-112860779D01*
X119150000Y-112837500D01*
X119150000Y-112362500D01*
X119151144Y-112339221D01*
X119154563Y-112316166D01*
X119160227Y-112293557D01*
X119168079Y-112271613D01*
X119178044Y-112250543D01*
X119190026Y-112230552D01*
X119203910Y-112211832D01*
X119219562Y-112194562D01*
X119236832Y-112178910D01*
X119255552Y-112165026D01*
X119275543Y-112153044D01*
X119296613Y-112143079D01*
X119318557Y-112135227D01*
X119341166Y-112129563D01*
X119364221Y-112126144D01*
X119387500Y-112125000D01*
X119962500Y-112125000D01*
X119985779Y-112126144D01*
X119985779Y-112126144D01*
G37*
D13*
X119675000Y-112600000D03*
D12*
G36*
X118235779Y-112126144D02*
G01*
X118258834Y-112129563D01*
X118281443Y-112135227D01*
X118303387Y-112143079D01*
X118324457Y-112153044D01*
X118344448Y-112165026D01*
X118363168Y-112178910D01*
X118380438Y-112194562D01*
X118396090Y-112211832D01*
X118409974Y-112230552D01*
X118421956Y-112250543D01*
X118431921Y-112271613D01*
X118439773Y-112293557D01*
X118445437Y-112316166D01*
X118448856Y-112339221D01*
X118450000Y-112362500D01*
X118450000Y-112837500D01*
X118448856Y-112860779D01*
X118445437Y-112883834D01*
X118439773Y-112906443D01*
X118431921Y-112928387D01*
X118421956Y-112949457D01*
X118409974Y-112969448D01*
X118396090Y-112988168D01*
X118380438Y-113005438D01*
X118363168Y-113021090D01*
X118344448Y-113034974D01*
X118324457Y-113046956D01*
X118303387Y-113056921D01*
X118281443Y-113064773D01*
X118258834Y-113070437D01*
X118235779Y-113073856D01*
X118212500Y-113075000D01*
X117637500Y-113075000D01*
X117614221Y-113073856D01*
X117591166Y-113070437D01*
X117568557Y-113064773D01*
X117546613Y-113056921D01*
X117525543Y-113046956D01*
X117505552Y-113034974D01*
X117486832Y-113021090D01*
X117469562Y-113005438D01*
X117453910Y-112988168D01*
X117440026Y-112969448D01*
X117428044Y-112949457D01*
X117418079Y-112928387D01*
X117410227Y-112906443D01*
X117404563Y-112883834D01*
X117401144Y-112860779D01*
X117400000Y-112837500D01*
X117400000Y-112362500D01*
X117401144Y-112339221D01*
X117404563Y-112316166D01*
X117410227Y-112293557D01*
X117418079Y-112271613D01*
X117428044Y-112250543D01*
X117440026Y-112230552D01*
X117453910Y-112211832D01*
X117469562Y-112194562D01*
X117486832Y-112178910D01*
X117505552Y-112165026D01*
X117525543Y-112153044D01*
X117546613Y-112143079D01*
X117568557Y-112135227D01*
X117591166Y-112129563D01*
X117614221Y-112126144D01*
X117637500Y-112125000D01*
X118212500Y-112125000D01*
X118235779Y-112126144D01*
X118235779Y-112126144D01*
G37*
D13*
X117925000Y-112600000D03*
D12*
G36*
X107235779Y-95926144D02*
G01*
X107258834Y-95929563D01*
X107281443Y-95935227D01*
X107303387Y-95943079D01*
X107324457Y-95953044D01*
X107344448Y-95965026D01*
X107363168Y-95978910D01*
X107380438Y-95994562D01*
X107396090Y-96011832D01*
X107409974Y-96030552D01*
X107421956Y-96050543D01*
X107431921Y-96071613D01*
X107439773Y-96093557D01*
X107445437Y-96116166D01*
X107448856Y-96139221D01*
X107450000Y-96162500D01*
X107450000Y-96637500D01*
X107448856Y-96660779D01*
X107445437Y-96683834D01*
X107439773Y-96706443D01*
X107431921Y-96728387D01*
X107421956Y-96749457D01*
X107409974Y-96769448D01*
X107396090Y-96788168D01*
X107380438Y-96805438D01*
X107363168Y-96821090D01*
X107344448Y-96834974D01*
X107324457Y-96846956D01*
X107303387Y-96856921D01*
X107281443Y-96864773D01*
X107258834Y-96870437D01*
X107235779Y-96873856D01*
X107212500Y-96875000D01*
X106637500Y-96875000D01*
X106614221Y-96873856D01*
X106591166Y-96870437D01*
X106568557Y-96864773D01*
X106546613Y-96856921D01*
X106525543Y-96846956D01*
X106505552Y-96834974D01*
X106486832Y-96821090D01*
X106469562Y-96805438D01*
X106453910Y-96788168D01*
X106440026Y-96769448D01*
X106428044Y-96749457D01*
X106418079Y-96728387D01*
X106410227Y-96706443D01*
X106404563Y-96683834D01*
X106401144Y-96660779D01*
X106400000Y-96637500D01*
X106400000Y-96162500D01*
X106401144Y-96139221D01*
X106404563Y-96116166D01*
X106410227Y-96093557D01*
X106418079Y-96071613D01*
X106428044Y-96050543D01*
X106440026Y-96030552D01*
X106453910Y-96011832D01*
X106469562Y-95994562D01*
X106486832Y-95978910D01*
X106505552Y-95965026D01*
X106525543Y-95953044D01*
X106546613Y-95943079D01*
X106568557Y-95935227D01*
X106591166Y-95929563D01*
X106614221Y-95926144D01*
X106637500Y-95925000D01*
X107212500Y-95925000D01*
X107235779Y-95926144D01*
X107235779Y-95926144D01*
G37*
D13*
X106925000Y-96400000D03*
D12*
G36*
X108985779Y-95926144D02*
G01*
X109008834Y-95929563D01*
X109031443Y-95935227D01*
X109053387Y-95943079D01*
X109074457Y-95953044D01*
X109094448Y-95965026D01*
X109113168Y-95978910D01*
X109130438Y-95994562D01*
X109146090Y-96011832D01*
X109159974Y-96030552D01*
X109171956Y-96050543D01*
X109181921Y-96071613D01*
X109189773Y-96093557D01*
X109195437Y-96116166D01*
X109198856Y-96139221D01*
X109200000Y-96162500D01*
X109200000Y-96637500D01*
X109198856Y-96660779D01*
X109195437Y-96683834D01*
X109189773Y-96706443D01*
X109181921Y-96728387D01*
X109171956Y-96749457D01*
X109159974Y-96769448D01*
X109146090Y-96788168D01*
X109130438Y-96805438D01*
X109113168Y-96821090D01*
X109094448Y-96834974D01*
X109074457Y-96846956D01*
X109053387Y-96856921D01*
X109031443Y-96864773D01*
X109008834Y-96870437D01*
X108985779Y-96873856D01*
X108962500Y-96875000D01*
X108387500Y-96875000D01*
X108364221Y-96873856D01*
X108341166Y-96870437D01*
X108318557Y-96864773D01*
X108296613Y-96856921D01*
X108275543Y-96846956D01*
X108255552Y-96834974D01*
X108236832Y-96821090D01*
X108219562Y-96805438D01*
X108203910Y-96788168D01*
X108190026Y-96769448D01*
X108178044Y-96749457D01*
X108168079Y-96728387D01*
X108160227Y-96706443D01*
X108154563Y-96683834D01*
X108151144Y-96660779D01*
X108150000Y-96637500D01*
X108150000Y-96162500D01*
X108151144Y-96139221D01*
X108154563Y-96116166D01*
X108160227Y-96093557D01*
X108168079Y-96071613D01*
X108178044Y-96050543D01*
X108190026Y-96030552D01*
X108203910Y-96011832D01*
X108219562Y-95994562D01*
X108236832Y-95978910D01*
X108255552Y-95965026D01*
X108275543Y-95953044D01*
X108296613Y-95943079D01*
X108318557Y-95935227D01*
X108341166Y-95929563D01*
X108364221Y-95926144D01*
X108387500Y-95925000D01*
X108962500Y-95925000D01*
X108985779Y-95926144D01*
X108985779Y-95926144D01*
G37*
D13*
X108675000Y-96400000D03*
D12*
G36*
X107235779Y-99126144D02*
G01*
X107258834Y-99129563D01*
X107281443Y-99135227D01*
X107303387Y-99143079D01*
X107324457Y-99153044D01*
X107344448Y-99165026D01*
X107363168Y-99178910D01*
X107380438Y-99194562D01*
X107396090Y-99211832D01*
X107409974Y-99230552D01*
X107421956Y-99250543D01*
X107431921Y-99271613D01*
X107439773Y-99293557D01*
X107445437Y-99316166D01*
X107448856Y-99339221D01*
X107450000Y-99362500D01*
X107450000Y-99837500D01*
X107448856Y-99860779D01*
X107445437Y-99883834D01*
X107439773Y-99906443D01*
X107431921Y-99928387D01*
X107421956Y-99949457D01*
X107409974Y-99969448D01*
X107396090Y-99988168D01*
X107380438Y-100005438D01*
X107363168Y-100021090D01*
X107344448Y-100034974D01*
X107324457Y-100046956D01*
X107303387Y-100056921D01*
X107281443Y-100064773D01*
X107258834Y-100070437D01*
X107235779Y-100073856D01*
X107212500Y-100075000D01*
X106637500Y-100075000D01*
X106614221Y-100073856D01*
X106591166Y-100070437D01*
X106568557Y-100064773D01*
X106546613Y-100056921D01*
X106525543Y-100046956D01*
X106505552Y-100034974D01*
X106486832Y-100021090D01*
X106469562Y-100005438D01*
X106453910Y-99988168D01*
X106440026Y-99969448D01*
X106428044Y-99949457D01*
X106418079Y-99928387D01*
X106410227Y-99906443D01*
X106404563Y-99883834D01*
X106401144Y-99860779D01*
X106400000Y-99837500D01*
X106400000Y-99362500D01*
X106401144Y-99339221D01*
X106404563Y-99316166D01*
X106410227Y-99293557D01*
X106418079Y-99271613D01*
X106428044Y-99250543D01*
X106440026Y-99230552D01*
X106453910Y-99211832D01*
X106469562Y-99194562D01*
X106486832Y-99178910D01*
X106505552Y-99165026D01*
X106525543Y-99153044D01*
X106546613Y-99143079D01*
X106568557Y-99135227D01*
X106591166Y-99129563D01*
X106614221Y-99126144D01*
X106637500Y-99125000D01*
X107212500Y-99125000D01*
X107235779Y-99126144D01*
X107235779Y-99126144D01*
G37*
D13*
X106925000Y-99600000D03*
D12*
G36*
X108985779Y-99126144D02*
G01*
X109008834Y-99129563D01*
X109031443Y-99135227D01*
X109053387Y-99143079D01*
X109074457Y-99153044D01*
X109094448Y-99165026D01*
X109113168Y-99178910D01*
X109130438Y-99194562D01*
X109146090Y-99211832D01*
X109159974Y-99230552D01*
X109171956Y-99250543D01*
X109181921Y-99271613D01*
X109189773Y-99293557D01*
X109195437Y-99316166D01*
X109198856Y-99339221D01*
X109200000Y-99362500D01*
X109200000Y-99837500D01*
X109198856Y-99860779D01*
X109195437Y-99883834D01*
X109189773Y-99906443D01*
X109181921Y-99928387D01*
X109171956Y-99949457D01*
X109159974Y-99969448D01*
X109146090Y-99988168D01*
X109130438Y-100005438D01*
X109113168Y-100021090D01*
X109094448Y-100034974D01*
X109074457Y-100046956D01*
X109053387Y-100056921D01*
X109031443Y-100064773D01*
X109008834Y-100070437D01*
X108985779Y-100073856D01*
X108962500Y-100075000D01*
X108387500Y-100075000D01*
X108364221Y-100073856D01*
X108341166Y-100070437D01*
X108318557Y-100064773D01*
X108296613Y-100056921D01*
X108275543Y-100046956D01*
X108255552Y-100034974D01*
X108236832Y-100021090D01*
X108219562Y-100005438D01*
X108203910Y-99988168D01*
X108190026Y-99969448D01*
X108178044Y-99949457D01*
X108168079Y-99928387D01*
X108160227Y-99906443D01*
X108154563Y-99883834D01*
X108151144Y-99860779D01*
X108150000Y-99837500D01*
X108150000Y-99362500D01*
X108151144Y-99339221D01*
X108154563Y-99316166D01*
X108160227Y-99293557D01*
X108168079Y-99271613D01*
X108178044Y-99250543D01*
X108190026Y-99230552D01*
X108203910Y-99211832D01*
X108219562Y-99194562D01*
X108236832Y-99178910D01*
X108255552Y-99165026D01*
X108275543Y-99153044D01*
X108296613Y-99143079D01*
X108318557Y-99135227D01*
X108341166Y-99129563D01*
X108364221Y-99126144D01*
X108387500Y-99125000D01*
X108962500Y-99125000D01*
X108985779Y-99126144D01*
X108985779Y-99126144D01*
G37*
D13*
X108675000Y-99600000D03*
D12*
G36*
X107235779Y-103726144D02*
G01*
X107258834Y-103729563D01*
X107281443Y-103735227D01*
X107303387Y-103743079D01*
X107324457Y-103753044D01*
X107344448Y-103765026D01*
X107363168Y-103778910D01*
X107380438Y-103794562D01*
X107396090Y-103811832D01*
X107409974Y-103830552D01*
X107421956Y-103850543D01*
X107431921Y-103871613D01*
X107439773Y-103893557D01*
X107445437Y-103916166D01*
X107448856Y-103939221D01*
X107450000Y-103962500D01*
X107450000Y-104437500D01*
X107448856Y-104460779D01*
X107445437Y-104483834D01*
X107439773Y-104506443D01*
X107431921Y-104528387D01*
X107421956Y-104549457D01*
X107409974Y-104569448D01*
X107396090Y-104588168D01*
X107380438Y-104605438D01*
X107363168Y-104621090D01*
X107344448Y-104634974D01*
X107324457Y-104646956D01*
X107303387Y-104656921D01*
X107281443Y-104664773D01*
X107258834Y-104670437D01*
X107235779Y-104673856D01*
X107212500Y-104675000D01*
X106637500Y-104675000D01*
X106614221Y-104673856D01*
X106591166Y-104670437D01*
X106568557Y-104664773D01*
X106546613Y-104656921D01*
X106525543Y-104646956D01*
X106505552Y-104634974D01*
X106486832Y-104621090D01*
X106469562Y-104605438D01*
X106453910Y-104588168D01*
X106440026Y-104569448D01*
X106428044Y-104549457D01*
X106418079Y-104528387D01*
X106410227Y-104506443D01*
X106404563Y-104483834D01*
X106401144Y-104460779D01*
X106400000Y-104437500D01*
X106400000Y-103962500D01*
X106401144Y-103939221D01*
X106404563Y-103916166D01*
X106410227Y-103893557D01*
X106418079Y-103871613D01*
X106428044Y-103850543D01*
X106440026Y-103830552D01*
X106453910Y-103811832D01*
X106469562Y-103794562D01*
X106486832Y-103778910D01*
X106505552Y-103765026D01*
X106525543Y-103753044D01*
X106546613Y-103743079D01*
X106568557Y-103735227D01*
X106591166Y-103729563D01*
X106614221Y-103726144D01*
X106637500Y-103725000D01*
X107212500Y-103725000D01*
X107235779Y-103726144D01*
X107235779Y-103726144D01*
G37*
D13*
X106925000Y-104200000D03*
D12*
G36*
X108985779Y-103726144D02*
G01*
X109008834Y-103729563D01*
X109031443Y-103735227D01*
X109053387Y-103743079D01*
X109074457Y-103753044D01*
X109094448Y-103765026D01*
X109113168Y-103778910D01*
X109130438Y-103794562D01*
X109146090Y-103811832D01*
X109159974Y-103830552D01*
X109171956Y-103850543D01*
X109181921Y-103871613D01*
X109189773Y-103893557D01*
X109195437Y-103916166D01*
X109198856Y-103939221D01*
X109200000Y-103962500D01*
X109200000Y-104437500D01*
X109198856Y-104460779D01*
X109195437Y-104483834D01*
X109189773Y-104506443D01*
X109181921Y-104528387D01*
X109171956Y-104549457D01*
X109159974Y-104569448D01*
X109146090Y-104588168D01*
X109130438Y-104605438D01*
X109113168Y-104621090D01*
X109094448Y-104634974D01*
X109074457Y-104646956D01*
X109053387Y-104656921D01*
X109031443Y-104664773D01*
X109008834Y-104670437D01*
X108985779Y-104673856D01*
X108962500Y-104675000D01*
X108387500Y-104675000D01*
X108364221Y-104673856D01*
X108341166Y-104670437D01*
X108318557Y-104664773D01*
X108296613Y-104656921D01*
X108275543Y-104646956D01*
X108255552Y-104634974D01*
X108236832Y-104621090D01*
X108219562Y-104605438D01*
X108203910Y-104588168D01*
X108190026Y-104569448D01*
X108178044Y-104549457D01*
X108168079Y-104528387D01*
X108160227Y-104506443D01*
X108154563Y-104483834D01*
X108151144Y-104460779D01*
X108150000Y-104437500D01*
X108150000Y-103962500D01*
X108151144Y-103939221D01*
X108154563Y-103916166D01*
X108160227Y-103893557D01*
X108168079Y-103871613D01*
X108178044Y-103850543D01*
X108190026Y-103830552D01*
X108203910Y-103811832D01*
X108219562Y-103794562D01*
X108236832Y-103778910D01*
X108255552Y-103765026D01*
X108275543Y-103753044D01*
X108296613Y-103743079D01*
X108318557Y-103735227D01*
X108341166Y-103729563D01*
X108364221Y-103726144D01*
X108387500Y-103725000D01*
X108962500Y-103725000D01*
X108985779Y-103726144D01*
X108985779Y-103726144D01*
G37*
D13*
X108675000Y-104200000D03*
M02*
