G04 #@! TF.GenerationSoftware,KiCad,Pcbnew,5.1.4+dfsg1-1*
G04 #@! TF.CreationDate,2020-04-24T21:08:45-06:00*
G04 #@! TF.ProjectId,balanced-xlr,62616c61-6e63-4656-942d-786c722e6b69,rev?*
G04 #@! TF.SameCoordinates,Original*
G04 #@! TF.FileFunction,Legend,Top*
G04 #@! TF.FilePolarity,Positive*
%FSLAX46Y46*%
G04 Gerber Fmt 4.6, Leading zero omitted, Abs format (unit mm)*
G04 Created by KiCad (PCBNEW 5.1.4+dfsg1-1) date 2020-04-24 21:08:45*
%MOMM*%
%LPD*%
G04 APERTURE LIST*
%ADD10C,0.200000*%
%ADD11C,0.300000*%
%ADD12C,0.120000*%
%ADD13C,0.002540*%
%ADD14C,0.150000*%
G04 APERTURE END LIST*
D10*
X129657142Y-114104761D02*
X128990476Y-113152380D01*
X128514285Y-114104761D02*
X128514285Y-112104761D01*
X129276190Y-112104761D01*
X129466666Y-112200000D01*
X129561904Y-112295238D01*
X129657142Y-112485714D01*
X129657142Y-112771428D01*
X129561904Y-112961904D01*
X129466666Y-113057142D01*
X129276190Y-113152380D01*
X128514285Y-113152380D01*
X130514285Y-113342857D02*
X132038095Y-113342857D01*
X132990476Y-114104761D02*
X132990476Y-112104761D01*
X133942857Y-114104761D02*
X133942857Y-112104761D01*
X135085714Y-114104761D01*
X135085714Y-112104761D01*
X155723809Y-114504761D02*
X155057142Y-113552380D01*
X154580952Y-114504761D02*
X154580952Y-112504761D01*
X155342857Y-112504761D01*
X155533333Y-112600000D01*
X155628571Y-112695238D01*
X155723809Y-112885714D01*
X155723809Y-113171428D01*
X155628571Y-113361904D01*
X155533333Y-113457142D01*
X155342857Y-113552380D01*
X154580952Y-113552380D01*
X156580952Y-113742857D02*
X158104761Y-113742857D01*
X159438095Y-112504761D02*
X159819047Y-112504761D01*
X160009523Y-112600000D01*
X160200000Y-112790476D01*
X160295238Y-113171428D01*
X160295238Y-113838095D01*
X160200000Y-114219047D01*
X160009523Y-114409523D01*
X159819047Y-114504761D01*
X159438095Y-114504761D01*
X159247619Y-114409523D01*
X159057142Y-114219047D01*
X158961904Y-113838095D01*
X158961904Y-113171428D01*
X159057142Y-112790476D01*
X159247619Y-112600000D01*
X159438095Y-112504761D01*
X161152380Y-112504761D02*
X161152380Y-114123809D01*
X161247619Y-114314285D01*
X161342857Y-114409523D01*
X161533333Y-114504761D01*
X161914285Y-114504761D01*
X162104761Y-114409523D01*
X162200000Y-114314285D01*
X162295238Y-114123809D01*
X162295238Y-112504761D01*
X162961904Y-112504761D02*
X164104761Y-112504761D01*
X163533333Y-114504761D02*
X163533333Y-112504761D01*
X81657142Y-114104761D02*
X80704761Y-114104761D01*
X80704761Y-112104761D01*
X82323809Y-113342857D02*
X83847619Y-113342857D01*
X84800000Y-114104761D02*
X84800000Y-112104761D01*
X85752380Y-114104761D02*
X85752380Y-112104761D01*
X86895238Y-114104761D01*
X86895238Y-112104761D01*
X52723809Y-114504761D02*
X51771428Y-114504761D01*
X51771428Y-112504761D01*
X53390476Y-113742857D02*
X54914285Y-113742857D01*
X56247619Y-112504761D02*
X56628571Y-112504761D01*
X56819047Y-112600000D01*
X57009523Y-112790476D01*
X57104761Y-113171428D01*
X57104761Y-113838095D01*
X57009523Y-114219047D01*
X56819047Y-114409523D01*
X56628571Y-114504761D01*
X56247619Y-114504761D01*
X56057142Y-114409523D01*
X55866666Y-114219047D01*
X55771428Y-113838095D01*
X55771428Y-113171428D01*
X55866666Y-112790476D01*
X56057142Y-112600000D01*
X56247619Y-112504761D01*
X57961904Y-112504761D02*
X57961904Y-114123809D01*
X58057142Y-114314285D01*
X58152380Y-114409523D01*
X58342857Y-114504761D01*
X58723809Y-114504761D01*
X58914285Y-114409523D01*
X59009523Y-114314285D01*
X59104761Y-114123809D01*
X59104761Y-112504761D01*
X59771428Y-112504761D02*
X60914285Y-112504761D01*
X60342857Y-114504761D02*
X60342857Y-112504761D01*
X40219047Y-94171428D02*
X40600000Y-95504761D01*
X40980952Y-94552380D01*
X41361904Y-95504761D01*
X41742857Y-94171428D01*
X42504761Y-95504761D02*
X42504761Y-94171428D01*
X42504761Y-93504761D02*
X42409523Y-93600000D01*
X42504761Y-93695238D01*
X42600000Y-93600000D01*
X42504761Y-93504761D01*
X42504761Y-93695238D01*
X43171428Y-94171428D02*
X43933333Y-94171428D01*
X43457142Y-95504761D02*
X43457142Y-93790476D01*
X43552380Y-93600000D01*
X43742857Y-93504761D01*
X43933333Y-93504761D01*
X44600000Y-95504761D02*
X44600000Y-94171428D01*
X44600000Y-93504761D02*
X44504761Y-93600000D01*
X44600000Y-93695238D01*
X44695238Y-93600000D01*
X44600000Y-93504761D01*
X44600000Y-93695238D01*
X46885714Y-94171428D02*
X47361904Y-95504761D01*
X47838095Y-94171428D01*
X48885714Y-95504761D02*
X48695238Y-95409523D01*
X48600000Y-95314285D01*
X48504761Y-95123809D01*
X48504761Y-94552380D01*
X48600000Y-94361904D01*
X48695238Y-94266666D01*
X48885714Y-94171428D01*
X49171428Y-94171428D01*
X49361904Y-94266666D01*
X49457142Y-94361904D01*
X49552380Y-94552380D01*
X49552380Y-95123809D01*
X49457142Y-95314285D01*
X49361904Y-95409523D01*
X49171428Y-95504761D01*
X48885714Y-95504761D01*
X50695238Y-95504761D02*
X50504761Y-95409523D01*
X50409523Y-95219047D01*
X50409523Y-93504761D01*
X52314285Y-94171428D02*
X52314285Y-95504761D01*
X51457142Y-94171428D02*
X51457142Y-95219047D01*
X51552380Y-95409523D01*
X51742857Y-95504761D01*
X52028571Y-95504761D01*
X52219047Y-95409523D01*
X52314285Y-95314285D01*
X53266666Y-95504761D02*
X53266666Y-94171428D01*
X53266666Y-94361904D02*
X53361904Y-94266666D01*
X53552380Y-94171428D01*
X53838095Y-94171428D01*
X54028571Y-94266666D01*
X54123809Y-94457142D01*
X54123809Y-95504761D01*
X54123809Y-94457142D02*
X54219047Y-94266666D01*
X54409523Y-94171428D01*
X54695238Y-94171428D01*
X54885714Y-94266666D01*
X54980952Y-94457142D01*
X54980952Y-95504761D01*
X56695238Y-95409523D02*
X56504761Y-95504761D01*
X56123809Y-95504761D01*
X55933333Y-95409523D01*
X55838095Y-95219047D01*
X55838095Y-94457142D01*
X55933333Y-94266666D01*
X56123809Y-94171428D01*
X56504761Y-94171428D01*
X56695238Y-94266666D01*
X56790476Y-94457142D01*
X56790476Y-94647619D01*
X55838095Y-94838095D01*
X60028571Y-95409523D02*
X59838095Y-95504761D01*
X59457142Y-95504761D01*
X59266666Y-95409523D01*
X59171428Y-95314285D01*
X59076190Y-95123809D01*
X59076190Y-94552380D01*
X59171428Y-94361904D01*
X59266666Y-94266666D01*
X59457142Y-94171428D01*
X59838095Y-94171428D01*
X60028571Y-94266666D01*
X61171428Y-95504761D02*
X60980952Y-95409523D01*
X60885714Y-95314285D01*
X60790476Y-95123809D01*
X60790476Y-94552380D01*
X60885714Y-94361904D01*
X60980952Y-94266666D01*
X61171428Y-94171428D01*
X61457142Y-94171428D01*
X61647619Y-94266666D01*
X61742857Y-94361904D01*
X61838095Y-94552380D01*
X61838095Y-95123809D01*
X61742857Y-95314285D01*
X61647619Y-95409523D01*
X61457142Y-95504761D01*
X61171428Y-95504761D01*
X62695238Y-94171428D02*
X62695238Y-95504761D01*
X62695238Y-94361904D02*
X62790476Y-94266666D01*
X62980952Y-94171428D01*
X63266666Y-94171428D01*
X63457142Y-94266666D01*
X63552380Y-94457142D01*
X63552380Y-95504761D01*
X64219047Y-94171428D02*
X64980952Y-94171428D01*
X64504761Y-93504761D02*
X64504761Y-95219047D01*
X64600000Y-95409523D01*
X64790476Y-95504761D01*
X64980952Y-95504761D01*
X65647619Y-95504761D02*
X65647619Y-94171428D01*
X65647619Y-94552380D02*
X65742857Y-94361904D01*
X65838095Y-94266666D01*
X66028571Y-94171428D01*
X66219047Y-94171428D01*
X67171428Y-95504761D02*
X66980952Y-95409523D01*
X66885714Y-95314285D01*
X66790476Y-95123809D01*
X66790476Y-94552380D01*
X66885714Y-94361904D01*
X66980952Y-94266666D01*
X67171428Y-94171428D01*
X67457142Y-94171428D01*
X67647619Y-94266666D01*
X67742857Y-94361904D01*
X67838095Y-94552380D01*
X67838095Y-95123809D01*
X67742857Y-95314285D01*
X67647619Y-95409523D01*
X67457142Y-95504761D01*
X67171428Y-95504761D01*
X68980952Y-95504761D02*
X68790476Y-95409523D01*
X68695238Y-95219047D01*
X68695238Y-93504761D01*
X41219047Y-98704761D02*
X41219047Y-96704761D01*
X41219047Y-97466666D02*
X41409523Y-97371428D01*
X41790476Y-97371428D01*
X41980952Y-97466666D01*
X42076190Y-97561904D01*
X42171428Y-97752380D01*
X42171428Y-98323809D01*
X42076190Y-98514285D01*
X41980952Y-98609523D01*
X41790476Y-98704761D01*
X41409523Y-98704761D01*
X41219047Y-98609523D01*
X43885714Y-98704761D02*
X43885714Y-97657142D01*
X43790476Y-97466666D01*
X43600000Y-97371428D01*
X43219047Y-97371428D01*
X43028571Y-97466666D01*
X43885714Y-98609523D02*
X43695238Y-98704761D01*
X43219047Y-98704761D01*
X43028571Y-98609523D01*
X42933333Y-98419047D01*
X42933333Y-98228571D01*
X43028571Y-98038095D01*
X43219047Y-97942857D01*
X43695238Y-97942857D01*
X43885714Y-97847619D01*
X45123809Y-98704761D02*
X44933333Y-98609523D01*
X44838095Y-98419047D01*
X44838095Y-96704761D01*
X46742857Y-98704761D02*
X46742857Y-97657142D01*
X46647619Y-97466666D01*
X46457142Y-97371428D01*
X46076190Y-97371428D01*
X45885714Y-97466666D01*
X46742857Y-98609523D02*
X46552380Y-98704761D01*
X46076190Y-98704761D01*
X45885714Y-98609523D01*
X45790476Y-98419047D01*
X45790476Y-98228571D01*
X45885714Y-98038095D01*
X46076190Y-97942857D01*
X46552380Y-97942857D01*
X46742857Y-97847619D01*
X47695238Y-97371428D02*
X47695238Y-98704761D01*
X47695238Y-97561904D02*
X47790476Y-97466666D01*
X47980952Y-97371428D01*
X48266666Y-97371428D01*
X48457142Y-97466666D01*
X48552380Y-97657142D01*
X48552380Y-98704761D01*
X50361904Y-98609523D02*
X50171428Y-98704761D01*
X49790476Y-98704761D01*
X49600000Y-98609523D01*
X49504761Y-98514285D01*
X49409523Y-98323809D01*
X49409523Y-97752380D01*
X49504761Y-97561904D01*
X49600000Y-97466666D01*
X49790476Y-97371428D01*
X50171428Y-97371428D01*
X50361904Y-97466666D01*
X51980952Y-98609523D02*
X51790476Y-98704761D01*
X51409523Y-98704761D01*
X51219047Y-98609523D01*
X51123809Y-98419047D01*
X51123809Y-97657142D01*
X51219047Y-97466666D01*
X51409523Y-97371428D01*
X51790476Y-97371428D01*
X51980952Y-97466666D01*
X52076190Y-97657142D01*
X52076190Y-97847619D01*
X51123809Y-98038095D01*
X53790476Y-98704761D02*
X53790476Y-96704761D01*
X53790476Y-98609523D02*
X53600000Y-98704761D01*
X53219047Y-98704761D01*
X53028571Y-98609523D01*
X52933333Y-98514285D01*
X52838095Y-98323809D01*
X52838095Y-97752380D01*
X52933333Y-97561904D01*
X53028571Y-97466666D01*
X53219047Y-97371428D01*
X53600000Y-97371428D01*
X53790476Y-97466666D01*
X54742857Y-97942857D02*
X56266666Y-97942857D01*
X57028571Y-98704761D02*
X58076190Y-97371428D01*
X57028571Y-97371428D02*
X58076190Y-98704761D01*
X59123809Y-98704761D02*
X58933333Y-98609523D01*
X58838095Y-98419047D01*
X58838095Y-96704761D01*
X59885714Y-98704761D02*
X59885714Y-97371428D01*
X59885714Y-97752380D02*
X59980952Y-97561904D01*
X60076190Y-97466666D01*
X60266666Y-97371428D01*
X60457142Y-97371428D01*
X62457142Y-97371428D02*
X62933333Y-98704761D01*
X63409523Y-97371428D01*
X65219047Y-98704761D02*
X64076190Y-98704761D01*
X64647619Y-98704761D02*
X64647619Y-96704761D01*
X64457142Y-96990476D01*
X64266666Y-97180952D01*
X64076190Y-97276190D01*
X66076190Y-98514285D02*
X66171428Y-98609523D01*
X66076190Y-98704761D01*
X65980952Y-98609523D01*
X66076190Y-98514285D01*
X66076190Y-98704761D01*
X67409523Y-96704761D02*
X67600000Y-96704761D01*
X67790476Y-96800000D01*
X67885714Y-96895238D01*
X67980952Y-97085714D01*
X68076190Y-97466666D01*
X68076190Y-97942857D01*
X67980952Y-98323809D01*
X67885714Y-98514285D01*
X67790476Y-98609523D01*
X67600000Y-98704761D01*
X67409523Y-98704761D01*
X67219047Y-98609523D01*
X67123809Y-98514285D01*
X67028571Y-98323809D01*
X66933333Y-97942857D01*
X66933333Y-97466666D01*
X67028571Y-97085714D01*
X67123809Y-96895238D01*
X67219047Y-96800000D01*
X67409523Y-96704761D01*
D11*
X74057142Y-88814285D02*
X76342857Y-88814285D01*
X75200000Y-89957142D02*
X75200000Y-87671428D01*
X58657142Y-88814285D02*
X60942857Y-88814285D01*
D12*
X97346000Y-101435241D02*
X97976000Y-101435241D01*
X97661000Y-101750241D02*
X97661000Y-101120241D01*
X99098000Y-95009000D02*
X99902000Y-95009000D01*
X98867000Y-95049000D02*
X100133000Y-95049000D01*
X98698000Y-95089000D02*
X100302000Y-95089000D01*
X98560000Y-95129000D02*
X100440000Y-95129000D01*
X98441000Y-95169000D02*
X100559000Y-95169000D01*
X98335000Y-95209000D02*
X100665000Y-95209000D01*
X98238000Y-95249000D02*
X100762000Y-95249000D01*
X98150000Y-95289000D02*
X100850000Y-95289000D01*
X98068000Y-95329000D02*
X100932000Y-95329000D01*
X97991000Y-95369000D02*
X101009000Y-95369000D01*
X97919000Y-95409000D02*
X101081000Y-95409000D01*
X97850000Y-95449000D02*
X101150000Y-95449000D01*
X97786000Y-95489000D02*
X101214000Y-95489000D01*
X97724000Y-95529000D02*
X101276000Y-95529000D01*
X97666000Y-95569000D02*
X101334000Y-95569000D01*
X97610000Y-95609000D02*
X101390000Y-95609000D01*
X97556000Y-95649000D02*
X101444000Y-95649000D01*
X97505000Y-95689000D02*
X101495000Y-95689000D01*
X97456000Y-95729000D02*
X101544000Y-95729000D01*
X97408000Y-95769000D02*
X101592000Y-95769000D01*
X97363000Y-95809000D02*
X101637000Y-95809000D01*
X97318000Y-95849000D02*
X101682000Y-95849000D01*
X97276000Y-95889000D02*
X101724000Y-95889000D01*
X97235000Y-95929000D02*
X101765000Y-95929000D01*
X100540000Y-95969000D02*
X101805000Y-95969000D01*
X97195000Y-95969000D02*
X98460000Y-95969000D01*
X100540000Y-96009000D02*
X101843000Y-96009000D01*
X97157000Y-96009000D02*
X98460000Y-96009000D01*
X100540000Y-96049000D02*
X101880000Y-96049000D01*
X97120000Y-96049000D02*
X98460000Y-96049000D01*
X100540000Y-96089000D02*
X101916000Y-96089000D01*
X97084000Y-96089000D02*
X98460000Y-96089000D01*
X100540000Y-96129000D02*
X101950000Y-96129000D01*
X97050000Y-96129000D02*
X98460000Y-96129000D01*
X100540000Y-96169000D02*
X101984000Y-96169000D01*
X97016000Y-96169000D02*
X98460000Y-96169000D01*
X100540000Y-96209000D02*
X102016000Y-96209000D01*
X96984000Y-96209000D02*
X98460000Y-96209000D01*
X100540000Y-96249000D02*
X102048000Y-96249000D01*
X96952000Y-96249000D02*
X98460000Y-96249000D01*
X100540000Y-96289000D02*
X102078000Y-96289000D01*
X96922000Y-96289000D02*
X98460000Y-96289000D01*
X100540000Y-96329000D02*
X102107000Y-96329000D01*
X96893000Y-96329000D02*
X98460000Y-96329000D01*
X100540000Y-96369000D02*
X102136000Y-96369000D01*
X96864000Y-96369000D02*
X98460000Y-96369000D01*
X100540000Y-96409000D02*
X102164000Y-96409000D01*
X96836000Y-96409000D02*
X98460000Y-96409000D01*
X100540000Y-96449000D02*
X102190000Y-96449000D01*
X96810000Y-96449000D02*
X98460000Y-96449000D01*
X100540000Y-96489000D02*
X102216000Y-96489000D01*
X96784000Y-96489000D02*
X98460000Y-96489000D01*
X100540000Y-96529000D02*
X102242000Y-96529000D01*
X96758000Y-96529000D02*
X98460000Y-96529000D01*
X100540000Y-96569000D02*
X102266000Y-96569000D01*
X96734000Y-96569000D02*
X98460000Y-96569000D01*
X100540000Y-96609000D02*
X102290000Y-96609000D01*
X96710000Y-96609000D02*
X98460000Y-96609000D01*
X100540000Y-96649000D02*
X102312000Y-96649000D01*
X96688000Y-96649000D02*
X98460000Y-96649000D01*
X100540000Y-96689000D02*
X102334000Y-96689000D01*
X96666000Y-96689000D02*
X98460000Y-96689000D01*
X100540000Y-96729000D02*
X102356000Y-96729000D01*
X96644000Y-96729000D02*
X98460000Y-96729000D01*
X100540000Y-96769000D02*
X102376000Y-96769000D01*
X96624000Y-96769000D02*
X98460000Y-96769000D01*
X100540000Y-96809000D02*
X102396000Y-96809000D01*
X96604000Y-96809000D02*
X98460000Y-96809000D01*
X100540000Y-96849000D02*
X102416000Y-96849000D01*
X96584000Y-96849000D02*
X98460000Y-96849000D01*
X100540000Y-96889000D02*
X102434000Y-96889000D01*
X96566000Y-96889000D02*
X98460000Y-96889000D01*
X100540000Y-96929000D02*
X102452000Y-96929000D01*
X96548000Y-96929000D02*
X98460000Y-96929000D01*
X100540000Y-96969000D02*
X102470000Y-96969000D01*
X96530000Y-96969000D02*
X98460000Y-96969000D01*
X100540000Y-97009000D02*
X102486000Y-97009000D01*
X96514000Y-97009000D02*
X98460000Y-97009000D01*
X100540000Y-97049000D02*
X102502000Y-97049000D01*
X96498000Y-97049000D02*
X98460000Y-97049000D01*
X100540000Y-97089000D02*
X102518000Y-97089000D01*
X96482000Y-97089000D02*
X98460000Y-97089000D01*
X100540000Y-97129000D02*
X102533000Y-97129000D01*
X96467000Y-97129000D02*
X98460000Y-97129000D01*
X100540000Y-97169000D02*
X102547000Y-97169000D01*
X96453000Y-97169000D02*
X98460000Y-97169000D01*
X100540000Y-97209000D02*
X102561000Y-97209000D01*
X96439000Y-97209000D02*
X98460000Y-97209000D01*
X100540000Y-97249000D02*
X102574000Y-97249000D01*
X96426000Y-97249000D02*
X98460000Y-97249000D01*
X100540000Y-97289000D02*
X102586000Y-97289000D01*
X96414000Y-97289000D02*
X98460000Y-97289000D01*
X100540000Y-97329000D02*
X102598000Y-97329000D01*
X96402000Y-97329000D02*
X98460000Y-97329000D01*
X100540000Y-97369000D02*
X102610000Y-97369000D01*
X96390000Y-97369000D02*
X98460000Y-97369000D01*
X100540000Y-97409000D02*
X102621000Y-97409000D01*
X96379000Y-97409000D02*
X98460000Y-97409000D01*
X100540000Y-97449000D02*
X102631000Y-97449000D01*
X96369000Y-97449000D02*
X98460000Y-97449000D01*
X100540000Y-97489000D02*
X102641000Y-97489000D01*
X96359000Y-97489000D02*
X98460000Y-97489000D01*
X100540000Y-97529000D02*
X102650000Y-97529000D01*
X96350000Y-97529000D02*
X98460000Y-97529000D01*
X100540000Y-97570000D02*
X102659000Y-97570000D01*
X96341000Y-97570000D02*
X98460000Y-97570000D01*
X100540000Y-97610000D02*
X102667000Y-97610000D01*
X96333000Y-97610000D02*
X98460000Y-97610000D01*
X100540000Y-97650000D02*
X102675000Y-97650000D01*
X96325000Y-97650000D02*
X98460000Y-97650000D01*
X100540000Y-97690000D02*
X102682000Y-97690000D01*
X96318000Y-97690000D02*
X98460000Y-97690000D01*
X100540000Y-97730000D02*
X102689000Y-97730000D01*
X96311000Y-97730000D02*
X98460000Y-97730000D01*
X100540000Y-97770000D02*
X102695000Y-97770000D01*
X96305000Y-97770000D02*
X98460000Y-97770000D01*
X100540000Y-97810000D02*
X102701000Y-97810000D01*
X96299000Y-97810000D02*
X98460000Y-97810000D01*
X100540000Y-97850000D02*
X102706000Y-97850000D01*
X96294000Y-97850000D02*
X98460000Y-97850000D01*
X100540000Y-97890000D02*
X102711000Y-97890000D01*
X96289000Y-97890000D02*
X98460000Y-97890000D01*
X100540000Y-97930000D02*
X102715000Y-97930000D01*
X96285000Y-97930000D02*
X98460000Y-97930000D01*
X100540000Y-97970000D02*
X102718000Y-97970000D01*
X96282000Y-97970000D02*
X98460000Y-97970000D01*
X100540000Y-98010000D02*
X102722000Y-98010000D01*
X96278000Y-98010000D02*
X98460000Y-98010000D01*
X96276000Y-98050000D02*
X102724000Y-98050000D01*
X96273000Y-98090000D02*
X102727000Y-98090000D01*
X96272000Y-98130000D02*
X102728000Y-98130000D01*
X96270000Y-98170000D02*
X102730000Y-98170000D01*
X96270000Y-98210000D02*
X102730000Y-98210000D01*
X96270000Y-98250000D02*
X102730000Y-98250000D01*
X102770000Y-98250000D02*
G75*
G03X102770000Y-98250000I-3270000J0D01*
G01*
D13*
G36*
X41788420Y-105395780D02*
G01*
X41808740Y-105385620D01*
X41857000Y-105355140D01*
X41923040Y-105311960D01*
X42001780Y-105258620D01*
X42080520Y-105205280D01*
X42146560Y-105162100D01*
X42192280Y-105131620D01*
X42210060Y-105121460D01*
X42220220Y-105124000D01*
X42258320Y-105144320D01*
X42314200Y-105172260D01*
X42344680Y-105187500D01*
X42395480Y-105210360D01*
X42420880Y-105215440D01*
X42423420Y-105207820D01*
X42443740Y-105169720D01*
X42471680Y-105103680D01*
X42509780Y-105017320D01*
X42552960Y-104915720D01*
X42598680Y-104806500D01*
X42644400Y-104694740D01*
X42690120Y-104588060D01*
X42728220Y-104491540D01*
X42761240Y-104415340D01*
X42781560Y-104359460D01*
X42789180Y-104336600D01*
X42786640Y-104331520D01*
X42761240Y-104308660D01*
X42718060Y-104275640D01*
X42621540Y-104196900D01*
X42530100Y-104080060D01*
X42471680Y-103947980D01*
X42453900Y-103800660D01*
X42469140Y-103666040D01*
X42522480Y-103536500D01*
X42613920Y-103417120D01*
X42725680Y-103330760D01*
X42855220Y-103274880D01*
X43000000Y-103257100D01*
X43139700Y-103272340D01*
X43271780Y-103325680D01*
X43391160Y-103414580D01*
X43439420Y-103473000D01*
X43508000Y-103592380D01*
X43548640Y-103719380D01*
X43551180Y-103749860D01*
X43546100Y-103892100D01*
X43505460Y-104026720D01*
X43431800Y-104146100D01*
X43327660Y-104245160D01*
X43314960Y-104255320D01*
X43266700Y-104290880D01*
X43236220Y-104313740D01*
X43210820Y-104334060D01*
X43388620Y-104765860D01*
X43416560Y-104834440D01*
X43467360Y-104951280D01*
X43510540Y-105052880D01*
X43543560Y-105134160D01*
X43568960Y-105187500D01*
X43579120Y-105210360D01*
X43594360Y-105212900D01*
X43627380Y-105200200D01*
X43688340Y-105172260D01*
X43728980Y-105151940D01*
X43774700Y-105129080D01*
X43795020Y-105121460D01*
X43812800Y-105131620D01*
X43855980Y-105159560D01*
X43919480Y-105202740D01*
X43995680Y-105253540D01*
X44069340Y-105304340D01*
X44137920Y-105350060D01*
X44186180Y-105380540D01*
X44211580Y-105393240D01*
X44214120Y-105393240D01*
X44234440Y-105380540D01*
X44275080Y-105350060D01*
X44333500Y-105294180D01*
X44414780Y-105212900D01*
X44427480Y-105200200D01*
X44496060Y-105129080D01*
X44551940Y-105070660D01*
X44590040Y-105030020D01*
X44602740Y-105012240D01*
X44590040Y-104986840D01*
X44559560Y-104938580D01*
X44513840Y-104870000D01*
X44460500Y-104791260D01*
X44318260Y-104582980D01*
X44397000Y-104387400D01*
X44419860Y-104328980D01*
X44450340Y-104255320D01*
X44473200Y-104204520D01*
X44485900Y-104181660D01*
X44506220Y-104174040D01*
X44559560Y-104161340D01*
X44638300Y-104143560D01*
X44729740Y-104128320D01*
X44818640Y-104110540D01*
X44897380Y-104095300D01*
X44955800Y-104085140D01*
X44981200Y-104080060D01*
X44986280Y-104074980D01*
X44991360Y-104062280D01*
X44996440Y-104036880D01*
X44996440Y-103988620D01*
X44998980Y-103912420D01*
X44998980Y-103800660D01*
X44998980Y-103790500D01*
X44996440Y-103683820D01*
X44996440Y-103600000D01*
X44993900Y-103546660D01*
X44988820Y-103526340D01*
X44963420Y-103518720D01*
X44907540Y-103508560D01*
X44828800Y-103490780D01*
X44732280Y-103473000D01*
X44727200Y-103473000D01*
X44633220Y-103455220D01*
X44554480Y-103437440D01*
X44498600Y-103424740D01*
X44475740Y-103417120D01*
X44470660Y-103412040D01*
X44450340Y-103373940D01*
X44422400Y-103315520D01*
X44391920Y-103244400D01*
X44361440Y-103170740D01*
X44333500Y-103102160D01*
X44315720Y-103053900D01*
X44310640Y-103031040D01*
X44325880Y-103008180D01*
X44358900Y-102957380D01*
X44404620Y-102891340D01*
X44460500Y-102810060D01*
X44463040Y-102802440D01*
X44518920Y-102723700D01*
X44562100Y-102655120D01*
X44592580Y-102606860D01*
X44602740Y-102586540D01*
X44602740Y-102584000D01*
X44584960Y-102561140D01*
X44544320Y-102515420D01*
X44485900Y-102454460D01*
X44414780Y-102383340D01*
X44391920Y-102363020D01*
X44315720Y-102286820D01*
X44262380Y-102236020D01*
X44226820Y-102210620D01*
X44211580Y-102203000D01*
X44211580Y-102205540D01*
X44186180Y-102218240D01*
X44135380Y-102251260D01*
X44066800Y-102299520D01*
X43985520Y-102352860D01*
X43980440Y-102357940D01*
X43901700Y-102411280D01*
X43835660Y-102457000D01*
X43787400Y-102487480D01*
X43767080Y-102500180D01*
X43762000Y-102500180D01*
X43731520Y-102490020D01*
X43673100Y-102472240D01*
X43604520Y-102444300D01*
X43530860Y-102413820D01*
X43462280Y-102385880D01*
X43411480Y-102363020D01*
X43388620Y-102350320D01*
X43388620Y-102347780D01*
X43378460Y-102319840D01*
X43365760Y-102258880D01*
X43347980Y-102177600D01*
X43330200Y-102078540D01*
X43327660Y-102063300D01*
X43309880Y-101969320D01*
X43294640Y-101890580D01*
X43281940Y-101834700D01*
X43276860Y-101811840D01*
X43264160Y-101809300D01*
X43215900Y-101806760D01*
X43144780Y-101804220D01*
X43058420Y-101804220D01*
X42969520Y-101804220D01*
X42883160Y-101806760D01*
X42806960Y-101809300D01*
X42753620Y-101811840D01*
X42730760Y-101816920D01*
X42728220Y-101819460D01*
X42720600Y-101847400D01*
X42707900Y-101908360D01*
X42690120Y-101989640D01*
X42672340Y-102088700D01*
X42669800Y-102106480D01*
X42652020Y-102200460D01*
X42634240Y-102279200D01*
X42624080Y-102332540D01*
X42616460Y-102352860D01*
X42608840Y-102357940D01*
X42570740Y-102375720D01*
X42507240Y-102401120D01*
X42425960Y-102434140D01*
X42243080Y-102507800D01*
X42019560Y-102352860D01*
X41999240Y-102340160D01*
X41917960Y-102284280D01*
X41851920Y-102241100D01*
X41806200Y-102210620D01*
X41785880Y-102200460D01*
X41763020Y-102220780D01*
X41717300Y-102261420D01*
X41656340Y-102322380D01*
X41587760Y-102390960D01*
X41534420Y-102444300D01*
X41473460Y-102507800D01*
X41432820Y-102548440D01*
X41412500Y-102576380D01*
X41404880Y-102594160D01*
X41407420Y-102604320D01*
X41420120Y-102627180D01*
X41453140Y-102675440D01*
X41498860Y-102744020D01*
X41554740Y-102822760D01*
X41600460Y-102891340D01*
X41648720Y-102965000D01*
X41679200Y-103018340D01*
X41691900Y-103046280D01*
X41689360Y-103056440D01*
X41671580Y-103099620D01*
X41646180Y-103168200D01*
X41613160Y-103246940D01*
X41534420Y-103424740D01*
X41417580Y-103445060D01*
X41346460Y-103460300D01*
X41247400Y-103478080D01*
X41153420Y-103495860D01*
X41006100Y-103526340D01*
X41001020Y-104064820D01*
X41023880Y-104074980D01*
X41046740Y-104082600D01*
X41100080Y-104092760D01*
X41178820Y-104108000D01*
X41270260Y-104125780D01*
X41349000Y-104141020D01*
X41427740Y-104156260D01*
X41483620Y-104166420D01*
X41509020Y-104171500D01*
X41516640Y-104181660D01*
X41536960Y-104219760D01*
X41564900Y-104280720D01*
X41595380Y-104354380D01*
X41625860Y-104428040D01*
X41653800Y-104499160D01*
X41674120Y-104552500D01*
X41681740Y-104580440D01*
X41671580Y-104600760D01*
X41641100Y-104646480D01*
X41597920Y-104712520D01*
X41544580Y-104791260D01*
X41488700Y-104870000D01*
X41445520Y-104938580D01*
X41412500Y-104986840D01*
X41399800Y-105007160D01*
X41407420Y-105022400D01*
X41437900Y-105060500D01*
X41496320Y-105121460D01*
X41585220Y-105210360D01*
X41600460Y-105223060D01*
X41669040Y-105291640D01*
X41730000Y-105344980D01*
X41770640Y-105383080D01*
X41788420Y-105395780D01*
X41788420Y-105395780D01*
G37*
X41788420Y-105395780D02*
X41808740Y-105385620D01*
X41857000Y-105355140D01*
X41923040Y-105311960D01*
X42001780Y-105258620D01*
X42080520Y-105205280D01*
X42146560Y-105162100D01*
X42192280Y-105131620D01*
X42210060Y-105121460D01*
X42220220Y-105124000D01*
X42258320Y-105144320D01*
X42314200Y-105172260D01*
X42344680Y-105187500D01*
X42395480Y-105210360D01*
X42420880Y-105215440D01*
X42423420Y-105207820D01*
X42443740Y-105169720D01*
X42471680Y-105103680D01*
X42509780Y-105017320D01*
X42552960Y-104915720D01*
X42598680Y-104806500D01*
X42644400Y-104694740D01*
X42690120Y-104588060D01*
X42728220Y-104491540D01*
X42761240Y-104415340D01*
X42781560Y-104359460D01*
X42789180Y-104336600D01*
X42786640Y-104331520D01*
X42761240Y-104308660D01*
X42718060Y-104275640D01*
X42621540Y-104196900D01*
X42530100Y-104080060D01*
X42471680Y-103947980D01*
X42453900Y-103800660D01*
X42469140Y-103666040D01*
X42522480Y-103536500D01*
X42613920Y-103417120D01*
X42725680Y-103330760D01*
X42855220Y-103274880D01*
X43000000Y-103257100D01*
X43139700Y-103272340D01*
X43271780Y-103325680D01*
X43391160Y-103414580D01*
X43439420Y-103473000D01*
X43508000Y-103592380D01*
X43548640Y-103719380D01*
X43551180Y-103749860D01*
X43546100Y-103892100D01*
X43505460Y-104026720D01*
X43431800Y-104146100D01*
X43327660Y-104245160D01*
X43314960Y-104255320D01*
X43266700Y-104290880D01*
X43236220Y-104313740D01*
X43210820Y-104334060D01*
X43388620Y-104765860D01*
X43416560Y-104834440D01*
X43467360Y-104951280D01*
X43510540Y-105052880D01*
X43543560Y-105134160D01*
X43568960Y-105187500D01*
X43579120Y-105210360D01*
X43594360Y-105212900D01*
X43627380Y-105200200D01*
X43688340Y-105172260D01*
X43728980Y-105151940D01*
X43774700Y-105129080D01*
X43795020Y-105121460D01*
X43812800Y-105131620D01*
X43855980Y-105159560D01*
X43919480Y-105202740D01*
X43995680Y-105253540D01*
X44069340Y-105304340D01*
X44137920Y-105350060D01*
X44186180Y-105380540D01*
X44211580Y-105393240D01*
X44214120Y-105393240D01*
X44234440Y-105380540D01*
X44275080Y-105350060D01*
X44333500Y-105294180D01*
X44414780Y-105212900D01*
X44427480Y-105200200D01*
X44496060Y-105129080D01*
X44551940Y-105070660D01*
X44590040Y-105030020D01*
X44602740Y-105012240D01*
X44590040Y-104986840D01*
X44559560Y-104938580D01*
X44513840Y-104870000D01*
X44460500Y-104791260D01*
X44318260Y-104582980D01*
X44397000Y-104387400D01*
X44419860Y-104328980D01*
X44450340Y-104255320D01*
X44473200Y-104204520D01*
X44485900Y-104181660D01*
X44506220Y-104174040D01*
X44559560Y-104161340D01*
X44638300Y-104143560D01*
X44729740Y-104128320D01*
X44818640Y-104110540D01*
X44897380Y-104095300D01*
X44955800Y-104085140D01*
X44981200Y-104080060D01*
X44986280Y-104074980D01*
X44991360Y-104062280D01*
X44996440Y-104036880D01*
X44996440Y-103988620D01*
X44998980Y-103912420D01*
X44998980Y-103800660D01*
X44998980Y-103790500D01*
X44996440Y-103683820D01*
X44996440Y-103600000D01*
X44993900Y-103546660D01*
X44988820Y-103526340D01*
X44963420Y-103518720D01*
X44907540Y-103508560D01*
X44828800Y-103490780D01*
X44732280Y-103473000D01*
X44727200Y-103473000D01*
X44633220Y-103455220D01*
X44554480Y-103437440D01*
X44498600Y-103424740D01*
X44475740Y-103417120D01*
X44470660Y-103412040D01*
X44450340Y-103373940D01*
X44422400Y-103315520D01*
X44391920Y-103244400D01*
X44361440Y-103170740D01*
X44333500Y-103102160D01*
X44315720Y-103053900D01*
X44310640Y-103031040D01*
X44325880Y-103008180D01*
X44358900Y-102957380D01*
X44404620Y-102891340D01*
X44460500Y-102810060D01*
X44463040Y-102802440D01*
X44518920Y-102723700D01*
X44562100Y-102655120D01*
X44592580Y-102606860D01*
X44602740Y-102586540D01*
X44602740Y-102584000D01*
X44584960Y-102561140D01*
X44544320Y-102515420D01*
X44485900Y-102454460D01*
X44414780Y-102383340D01*
X44391920Y-102363020D01*
X44315720Y-102286820D01*
X44262380Y-102236020D01*
X44226820Y-102210620D01*
X44211580Y-102203000D01*
X44211580Y-102205540D01*
X44186180Y-102218240D01*
X44135380Y-102251260D01*
X44066800Y-102299520D01*
X43985520Y-102352860D01*
X43980440Y-102357940D01*
X43901700Y-102411280D01*
X43835660Y-102457000D01*
X43787400Y-102487480D01*
X43767080Y-102500180D01*
X43762000Y-102500180D01*
X43731520Y-102490020D01*
X43673100Y-102472240D01*
X43604520Y-102444300D01*
X43530860Y-102413820D01*
X43462280Y-102385880D01*
X43411480Y-102363020D01*
X43388620Y-102350320D01*
X43388620Y-102347780D01*
X43378460Y-102319840D01*
X43365760Y-102258880D01*
X43347980Y-102177600D01*
X43330200Y-102078540D01*
X43327660Y-102063300D01*
X43309880Y-101969320D01*
X43294640Y-101890580D01*
X43281940Y-101834700D01*
X43276860Y-101811840D01*
X43264160Y-101809300D01*
X43215900Y-101806760D01*
X43144780Y-101804220D01*
X43058420Y-101804220D01*
X42969520Y-101804220D01*
X42883160Y-101806760D01*
X42806960Y-101809300D01*
X42753620Y-101811840D01*
X42730760Y-101816920D01*
X42728220Y-101819460D01*
X42720600Y-101847400D01*
X42707900Y-101908360D01*
X42690120Y-101989640D01*
X42672340Y-102088700D01*
X42669800Y-102106480D01*
X42652020Y-102200460D01*
X42634240Y-102279200D01*
X42624080Y-102332540D01*
X42616460Y-102352860D01*
X42608840Y-102357940D01*
X42570740Y-102375720D01*
X42507240Y-102401120D01*
X42425960Y-102434140D01*
X42243080Y-102507800D01*
X42019560Y-102352860D01*
X41999240Y-102340160D01*
X41917960Y-102284280D01*
X41851920Y-102241100D01*
X41806200Y-102210620D01*
X41785880Y-102200460D01*
X41763020Y-102220780D01*
X41717300Y-102261420D01*
X41656340Y-102322380D01*
X41587760Y-102390960D01*
X41534420Y-102444300D01*
X41473460Y-102507800D01*
X41432820Y-102548440D01*
X41412500Y-102576380D01*
X41404880Y-102594160D01*
X41407420Y-102604320D01*
X41420120Y-102627180D01*
X41453140Y-102675440D01*
X41498860Y-102744020D01*
X41554740Y-102822760D01*
X41600460Y-102891340D01*
X41648720Y-102965000D01*
X41679200Y-103018340D01*
X41691900Y-103046280D01*
X41689360Y-103056440D01*
X41671580Y-103099620D01*
X41646180Y-103168200D01*
X41613160Y-103246940D01*
X41534420Y-103424740D01*
X41417580Y-103445060D01*
X41346460Y-103460300D01*
X41247400Y-103478080D01*
X41153420Y-103495860D01*
X41006100Y-103526340D01*
X41001020Y-104064820D01*
X41023880Y-104074980D01*
X41046740Y-104082600D01*
X41100080Y-104092760D01*
X41178820Y-104108000D01*
X41270260Y-104125780D01*
X41349000Y-104141020D01*
X41427740Y-104156260D01*
X41483620Y-104166420D01*
X41509020Y-104171500D01*
X41516640Y-104181660D01*
X41536960Y-104219760D01*
X41564900Y-104280720D01*
X41595380Y-104354380D01*
X41625860Y-104428040D01*
X41653800Y-104499160D01*
X41674120Y-104552500D01*
X41681740Y-104580440D01*
X41671580Y-104600760D01*
X41641100Y-104646480D01*
X41597920Y-104712520D01*
X41544580Y-104791260D01*
X41488700Y-104870000D01*
X41445520Y-104938580D01*
X41412500Y-104986840D01*
X41399800Y-105007160D01*
X41407420Y-105022400D01*
X41437900Y-105060500D01*
X41496320Y-105121460D01*
X41585220Y-105210360D01*
X41600460Y-105223060D01*
X41669040Y-105291640D01*
X41730000Y-105344980D01*
X41770640Y-105383080D01*
X41788420Y-105395780D01*
D14*
X175350000Y-128150000D02*
G75*
G03X175350000Y-128150000I-5000000J0D01*
G01*
X50500000Y-86200000D02*
G75*
G03X50500000Y-86200000I-5000000J0D01*
G01*
X50500000Y-128150000D02*
G75*
G03X50500000Y-128150000I-5000000J0D01*
G01*
X121000000Y-86200000D02*
G75*
G03X121000000Y-86200000I-5000000J0D01*
G01*
X138500000Y-137100000D02*
X164200000Y-137100000D01*
X138500000Y-115000000D02*
X138500000Y-137100000D01*
X164200000Y-115000000D02*
X138500000Y-115000000D01*
X164200000Y-137100000D02*
X164200000Y-115000000D01*
X105475000Y-105700000D02*
X104125000Y-105700000D01*
X105475000Y-110825000D02*
X110125000Y-110825000D01*
X105475000Y-105575000D02*
X110125000Y-105575000D01*
X105475000Y-110825000D02*
X105475000Y-110600000D01*
X110125000Y-110825000D02*
X110125000Y-110600000D01*
X110125000Y-105575000D02*
X110125000Y-105800000D01*
X105475000Y-105575000D02*
X105475000Y-105700000D01*
D12*
X141460000Y-82770000D02*
G75*
G02X143590000Y-80640000I2130000J0D01*
G01*
X143590000Y-106500000D02*
G75*
G02X141460000Y-104370000I0J2130000D01*
G01*
X169020000Y-103960000D02*
X175920000Y-103960000D01*
X169020000Y-106500000D02*
X169020000Y-103960000D01*
D14*
G36*
X149165000Y-107540000D02*
G01*
X150435000Y-107540000D01*
X149800000Y-106905000D01*
X149165000Y-107540000D01*
G37*
X149165000Y-107540000D02*
X150435000Y-107540000D01*
X149800000Y-106905000D01*
X149165000Y-107540000D01*
D12*
X141460000Y-82760000D02*
X141460000Y-104370000D01*
X175920000Y-80640000D02*
X143590000Y-80640000D01*
X169020000Y-106500000D02*
X143590000Y-106500000D01*
X175920000Y-103960000D02*
X175920000Y-80640000D01*
D14*
X72400000Y-85200000D02*
X72400000Y-82400000D01*
X77400000Y-86400000D02*
X72600000Y-86400000D01*
X77600000Y-82400000D02*
X77600000Y-85200000D01*
X72600000Y-81200000D02*
X77400000Y-81200000D01*
X62200000Y-82400000D02*
X62200000Y-85200000D01*
X57200000Y-81200000D02*
X62000000Y-81200000D01*
X57000000Y-85200000D02*
X57000000Y-82400000D01*
X62000000Y-86400000D02*
X57200000Y-86400000D01*
D12*
X92571267Y-112090000D02*
X92228733Y-112090000D01*
X92571267Y-113110000D02*
X92228733Y-113110000D01*
X96971267Y-112090000D02*
X96628733Y-112090000D01*
X96971267Y-113110000D02*
X96628733Y-113110000D01*
X123371267Y-112090000D02*
X123028733Y-112090000D01*
X123371267Y-113110000D02*
X123028733Y-113110000D01*
X118628733Y-113110000D02*
X118971267Y-113110000D01*
X118628733Y-112090000D02*
X118971267Y-112090000D01*
X107971267Y-95890000D02*
X107628733Y-95890000D01*
X107971267Y-96910000D02*
X107628733Y-96910000D01*
X107971267Y-99090000D02*
X107628733Y-99090000D01*
X107971267Y-100110000D02*
X107628733Y-100110000D01*
D14*
X51500000Y-137100000D02*
X77200000Y-137100000D01*
X51500000Y-115000000D02*
X51500000Y-137100000D01*
X77200000Y-115000000D02*
X51500000Y-115000000D01*
X77200000Y-137100000D02*
X77200000Y-115000000D01*
X122500000Y-114500000D02*
X109500000Y-114500000D01*
X122500000Y-114500000D02*
X135250000Y-114500000D01*
X109500000Y-114500000D02*
X109500000Y-137000000D01*
X135250000Y-114500000D02*
X135250000Y-137000000D01*
X135250000Y-137000000D02*
X109500000Y-137000000D01*
X135250000Y-134250000D02*
X109500000Y-134250000D01*
X93500000Y-114500000D02*
X80500000Y-114500000D01*
X93500000Y-114500000D02*
X106250000Y-114500000D01*
X80500000Y-114500000D02*
X80500000Y-137000000D01*
X106250000Y-114500000D02*
X106250000Y-137000000D01*
X106250000Y-137000000D02*
X80500000Y-137000000D01*
X106250000Y-134250000D02*
X80500000Y-134250000D01*
D12*
X107971267Y-103690000D02*
X107628733Y-103690000D01*
X107971267Y-104710000D02*
X107628733Y-104710000D01*
M02*
