G04 #@! TF.GenerationSoftware,KiCad,Pcbnew,5.1.4+dfsg1-1*
G04 #@! TF.CreationDate,2020-04-24T21:08:45-06:00*
G04 #@! TF.ProjectId,balanced-xlr,62616c61-6e63-4656-942d-786c722e6b69,rev?*
G04 #@! TF.SameCoordinates,Original*
G04 #@! TF.FileFunction,Other,Fab,Top*
%FSLAX46Y46*%
G04 Gerber Fmt 4.6, Leading zero omitted, Abs format (unit mm)*
G04 Created by KiCad (PCBNEW 5.1.4+dfsg1-1) date 2020-04-24 21:08:45*
%MOMM*%
%LPD*%
G04 APERTURE LIST*
%ADD10C,0.100000*%
%ADD11C,0.150000*%
G04 APERTURE END LIST*
D10*
X97811500Y-100628972D02*
X98441500Y-100628972D01*
X98126500Y-100943972D02*
X98126500Y-100313972D01*
X102650000Y-98250000D02*
G75*
G03X102650000Y-98250000I-3150000J0D01*
G01*
D11*
X164000000Y-136900000D02*
X164000000Y-134200000D01*
X138700000Y-136900000D02*
X164000000Y-136900000D01*
X138700000Y-134200000D02*
X138700000Y-136900000D01*
X138700000Y-134200000D02*
X164000000Y-134200000D01*
X105600000Y-106700000D02*
X106600000Y-105700000D01*
X105600000Y-110700000D02*
X105600000Y-106700000D01*
X110000000Y-110700000D02*
X105600000Y-110700000D01*
X110000000Y-105700000D02*
X110000000Y-110700000D01*
X106600000Y-105700000D02*
X110000000Y-105700000D01*
D10*
X141590000Y-82750000D02*
G75*
G02X143610000Y-80770000I2000000J-20000D01*
G01*
X143590000Y-106370000D02*
G75*
G02X141590000Y-104370000I0J2000000D01*
G01*
X149800000Y-105370000D02*
X148800000Y-106370000D01*
X150800000Y-106370000D02*
X149800000Y-105370000D01*
X143590000Y-106370000D02*
X148800000Y-106370000D01*
X168890000Y-103830000D02*
X175790000Y-103830000D01*
X168890000Y-106370000D02*
X168890000Y-103830000D01*
X150800000Y-106370000D02*
X168890000Y-106370000D01*
X141590000Y-82770000D02*
X141590000Y-104370000D01*
X175790000Y-80770000D02*
X143590000Y-80770000D01*
X175790000Y-103830000D02*
X175790000Y-80770000D01*
X91600000Y-112200000D02*
X93200000Y-112200000D01*
X91600000Y-113000000D02*
X91600000Y-112200000D01*
X93200000Y-113000000D02*
X91600000Y-113000000D01*
X93200000Y-112200000D02*
X93200000Y-113000000D01*
X96000000Y-112200000D02*
X97600000Y-112200000D01*
X96000000Y-113000000D02*
X96000000Y-112200000D01*
X97600000Y-113000000D02*
X96000000Y-113000000D01*
X97600000Y-112200000D02*
X97600000Y-113000000D01*
X122400000Y-112200000D02*
X124000000Y-112200000D01*
X122400000Y-113000000D02*
X122400000Y-112200000D01*
X124000000Y-113000000D02*
X122400000Y-113000000D01*
X124000000Y-112200000D02*
X124000000Y-113000000D01*
X119600000Y-113000000D02*
X118000000Y-113000000D01*
X119600000Y-112200000D02*
X119600000Y-113000000D01*
X118000000Y-112200000D02*
X119600000Y-112200000D01*
X118000000Y-113000000D02*
X118000000Y-112200000D01*
X107000000Y-96000000D02*
X108600000Y-96000000D01*
X107000000Y-96800000D02*
X107000000Y-96000000D01*
X108600000Y-96800000D02*
X107000000Y-96800000D01*
X108600000Y-96000000D02*
X108600000Y-96800000D01*
X107000000Y-99200000D02*
X108600000Y-99200000D01*
X107000000Y-100000000D02*
X107000000Y-99200000D01*
X108600000Y-100000000D02*
X107000000Y-100000000D01*
X108600000Y-99200000D02*
X108600000Y-100000000D01*
D11*
X77000000Y-136900000D02*
X77000000Y-134200000D01*
X51700000Y-136900000D02*
X77000000Y-136900000D01*
X51700000Y-134200000D02*
X51700000Y-136900000D01*
X51700000Y-134200000D02*
X77000000Y-134200000D01*
D10*
X107000000Y-103800000D02*
X108600000Y-103800000D01*
X107000000Y-104600000D02*
X107000000Y-103800000D01*
X108600000Y-104600000D02*
X107000000Y-104600000D01*
X108600000Y-103800000D02*
X108600000Y-104600000D01*
M02*
