M48
; DRILL file {KiCad 5.1.4+dfsg1-1} date Fri 24 Apr 2020 09:08:47 PM MDT
; FORMAT={-:-/ absolute / inch / decimal}
; #@! TF.CreationDate,2020-04-24T21:08:47-06:00
; #@! TF.GenerationSoftware,Kicad,Pcbnew,5.1.4+dfsg1-1
; #@! TF.FileFunction,Plated,1,2,PTH
FMAT,2
INCH
T1C0.0157
T2C0.0315
T3C0.0394
T4C0.0472
T5C0.0630
T6C0.1969
%
G90
G05
T1
X3.0866Y-3.4882
X3.0866Y-3.6142
X3.9843Y-3.5197
X3.9843Y-3.6693
X4.1654Y-3.8583
X4.1732Y-3.7402
X4.2047Y-3.9843
X4.2096Y-4.2549
X4.4587Y-4.3169
X5.8346Y-4.7795
X6.315Y-4.3543
X1.6437Y-3.3937
X1.687Y-3.2894
X1.687Y-3.498
X1.7913Y-3.2461
X1.7913Y-3.5413
X1.8957Y-3.2894
X1.8957Y-3.498
X1.939Y-3.3937
X6.5591Y-5.0453
X6.6024Y-4.9409
X6.6024Y-5.1496
X6.7067Y-4.8976
X6.7067Y-5.1929
X6.811Y-4.9409
X6.811Y-5.1496
X6.8543Y-5.0453
X4.4193Y-3.3937
X4.4626Y-3.2894
X4.4626Y-3.498
X4.5669Y-3.2461
X4.5669Y-3.5413
X4.6713Y-3.2894
X4.6713Y-3.498
X4.7146Y-3.3937
X1.6437Y-5.0453
X1.687Y-4.9409
X1.687Y-5.1496
X1.7913Y-4.8976
X1.7913Y-5.1929
X1.8957Y-4.9409
X1.8957Y-5.1496
X1.939Y-5.0453
T2
X3.9173Y-3.8189
X3.9173Y-3.9173
T3
X5.8976Y-3.2339
X5.8976Y-4.1339
X5.9976Y-3.2339
X5.9976Y-4.1339
X6.0976Y-3.2339
X6.0976Y-4.1339
X6.1976Y-3.2339
X6.1976Y-4.1339
X6.2976Y-3.2339
X6.2976Y-4.1339
X6.3976Y-3.2339
X6.3976Y-4.1339
X6.4976Y-3.2339
X6.4976Y-4.1339
X6.5976Y-3.2339
X6.5976Y-4.1339
T4
X4.8228Y-4.6063
X5.9646Y-4.5835
X5.9646Y-4.7835
X3.6811Y-4.6063
X2.5394Y-4.5835
X2.5394Y-4.7835
T5
X4.6728Y-4.7565
X4.6728Y-4.9315
X4.9728Y-4.7815
X4.9728Y-5.1315
X5.8146Y-4.9335
X5.815Y-4.5835
X6.1142Y-4.5835
X6.1146Y-5.1335
X3.5311Y-4.7565
X3.5311Y-4.9315
X3.8311Y-4.7815
X3.8311Y-5.1315
X2.3894Y-4.9335
X2.3898Y-4.5835
X2.689Y-4.5835
X2.6894Y-5.1335
T6
X1.7913Y-5.0453
X1.7913Y-3.3937
X6.7067Y-5.0453
X4.5669Y-3.3937
T0
M30
