<?xml version="1.0" standalone="no"?>
 <!DOCTYPE svg PUBLIC "-//W3C//DTD SVG 1.1//EN" 
 "http://www.w3.org/Graphics/SVG/1.1/DTD/svg11.dtd"> 
<svg xmlns="http://www.w3.org/2000/svg" version="1.1" 
    width="13.8303cm" height="6.39318cm" viewBox="0 0 54450 25170 ">
<title>SVG Picture created as balanced-xlr-brd.svg date 2020/04/24 21:09:02 </title>
  <desc>Picture generated by PCBNEW </desc>
<g style="fill:#000000; fill-opacity:1;stroke:#000000; stroke-opacity:1;
stroke-linecap:round; stroke-linejoin:round; "
 transform="translate(0 0) scale(1 1)">
</g>
<g style="fill:#000000; fill-opacity:0.0; 
stroke:#000000; stroke-width:-0.000393701; stroke-opacity:1; 
stroke-linecap:round; stroke-linejoin:round;">
</g>
<g style="fill:#840084; fill-opacity:0.0; 
stroke:#840084; stroke-width:-0.000393701; stroke-opacity:1; 
stroke-linecap:round; stroke-linejoin:round;">
</g>
<g style="fill:#840084; fill-opacity:1.0; 
stroke:#840084; stroke-width:0; stroke-opacity:1; 
stroke-linecap:round; stroke-linejoin:round;">
<path style="fill:#840084; fill-opacity:1.0; 
stroke:#840084; stroke-width:0; stroke-opacity:1; 
stroke-linecap:round; stroke-linejoin:round;fill-rule:evenodd;"
d="M 45793,20786
45880,20822
45886,20824
45970,20880
46041,20952
46090,21025
46097,21035
46136,21129
46155,21228
46155,21328
46136,21427
46109,21492
46097,21521
46041,21605
45970,21676
45886,21732
45886,21732
45886,21732
45793,21771
45694,21790
45593,21790
45494,21771
45401,21732
45401,21732
45401,21732
45317,21676
45245,21605
45189,21521
45177,21492
45151,21427
45131,21328
45131,21228
45151,21129
45189,21035
45196,21025
45245,20952
45317,20880
45401,20824
45406,20822
45494,20786
45593,20766
45694,20766
45793,20786
Z" /> 
<path style="fill:#840084; fill-opacity:1.0; 
stroke:#840084; stroke-width:0; stroke-opacity:1; 
stroke-linecap:round; stroke-linejoin:round;fill-rule:evenodd;"
d="M 11541,20786
11628,20822
11634,20824
11718,20880
11789,20952
11838,21025
11845,21035
11884,21129
11903,21228
11903,21328
11884,21427
11857,21492
11845,21521
11789,21605
11718,21676
11634,21732
11634,21732
11634,21732
11541,21771
11442,21790
11341,21790
11242,21771
11149,21732
11149,21732
11149,21732
11065,21676
10993,21605
10937,21521
10925,21492
10899,21427
10879,21328
10879,21228
10899,21129
10937,21035
10944,21025
10993,20952
11065,20880
11149,20824
11154,20822
11242,20786
11341,20766
11442,20766
11541,20786
Z" /> 
<path style="fill:#840084; fill-opacity:1.0; 
stroke:#840084; stroke-width:0; stroke-opacity:1; 
stroke-linecap:round; stroke-linejoin:round;fill-rule:evenodd;"
d="M 22952,20785
23042,20822
23123,20876
23191,20944
23191,20944
23245,21025
23282,21115
23301,21210
23301,21307
23282,21402
23272,21427
23245,21492
23191,21572
23123,21641
23042,21695
23042,21695
23042,21695
22952,21732
22857,21751
22760,21751
22665,21732
22575,21695
22575,21695
22575,21695
22495,21641
22426,21572
22372,21492
22345,21427
22335,21402
22316,21307
22316,21210
22335,21115
22372,21025
22426,20944
22426,20944
22495,20876
22575,20822
22665,20785
22760,20766
22857,20766
22952,20785
Z" /> 
<path style="fill:#840084; fill-opacity:1.0; 
stroke:#840084; stroke-width:0; stroke-opacity:1; 
stroke-linecap:round; stroke-linejoin:round;fill-rule:evenodd;"
d="M 34370,20785
34459,20822
34540,20876
34608,20944
34608,20944
34662,21025
34699,21115
34718,21210
34718,21307
34699,21402
34689,21427
34662,21492
34608,21572
34540,21641
34459,21695
34459,21695
34459,21695
34370,21732
34274,21751
34177,21751
34082,21732
33993,21695
33993,21695
33993,21695
33912,21641
33843,21572
33789,21492
33763,21427
33752,21402
33733,21307
33733,21210
33752,21115
33789,21025
33843,20944
33843,20944
33912,20876
33993,20822
34082,20785
34177,20766
34274,20766
34370,20785
Z" /> 
<path style="fill:#840084; fill-opacity:1.0; 
stroke:#840084; stroke-width:0; stroke-opacity:1; 
stroke-linecap:round; stroke-linejoin:round;fill-rule:evenodd;"
d="M 2615,19373
2715,19393
2738,19402
2905,19471
2979,19521
3076,19585
3222,19731
3279,19817
3336,19902
3415,20092
3455,20293
3455,20499
3415,20701
3336,20891
3336,20891
3222,21061
3076,21207
3072,21210
2905,21321
2794,21367
2715,21400
2615,21420
2514,21440
2308,21440
2207,21420
2106,21400
2028,21367
1917,21321
1750,21210
1746,21207
1600,21061
1486,20891
1486,20891
1407,20701
1367,20499
1367,20293
1407,20092
1486,19902
1543,19817
1600,19731
1746,19585
1843,19521
1917,19471
2084,19402
2106,19393
2207,19373
2308,19352
2514,19352
2615,19373
Z" /> 
<path style="fill:#840084; fill-opacity:1.0; 
stroke:#840084; stroke-width:0; stroke-opacity:1; 
stroke-linecap:round; stroke-linejoin:round;fill-rule:evenodd;"
d="M 51768,19373
51869,19393
51892,19402
52059,19471
52133,19521
52230,19585
52375,19731
52433,19817
52489,19902
52568,20092
52608,20293
52608,20499
52568,20701
52489,20891
52489,20891
52375,21061
52230,21207
52225,21210
52059,21321
51948,21367
51869,21400
51768,21420
51667,21440
51462,21440
51361,21420
51260,21400
51181,21367
51070,21321
50904,21210
50899,21207
50754,21061
50640,20891
50640,20891
50561,20701
50521,20499
50521,20293
50561,20092
50640,19902
50696,19817
50754,19731
50899,19585
50996,19521
51070,19471
51237,19402
51260,19393
51361,19373
51462,19352
51667,19352
51768,19373
Z" /> 
<path style="fill:#840084; fill-opacity:1.0; 
stroke:#840084; stroke-width:0; stroke-opacity:1; 
stroke-linecap:round; stroke-linejoin:round;fill-rule:evenodd;"
d="M 42793,18786
42880,18822
42886,18824
42970,18880
43041,18952
43090,19025
43097,19035
43136,19129
43155,19228
43155,19328
43136,19427
43118,19471
43097,19521
43041,19605
42970,19676
42886,19732
42886,19732
42886,19732
42793,19771
42694,19790
42593,19790
42494,19771
42401,19732
42401,19732
42401,19732
42317,19676
42245,19605
42189,19521
42169,19471
42151,19427
42131,19328
42131,19228
42151,19129
42189,19035
42196,19025
42245,18952
42317,18880
42401,18824
42406,18822
42494,18786
42593,18766
42694,18766
42793,18786
Z" /> 
<path style="fill:#840084; fill-opacity:1.0; 
stroke:#840084; stroke-width:0; stroke-opacity:1; 
stroke-linecap:round; stroke-linejoin:round;fill-rule:evenodd;"
d="M 8541,18786
8628,18822
8634,18824
8718,18880
8789,18952
8838,19025
8845,19035
8884,19129
8903,19228
8903,19328
8884,19427
8866,19471
8845,19521
8789,19605
8718,19676
8634,19732
8634,19732
8634,19732
8541,19771
8442,19790
8341,19790
8242,19771
8149,19732
8149,19732
8149,19732
8065,19676
7993,19605
7937,19521
7917,19471
7899,19427
7879,19328
7879,19228
7899,19129
7937,19035
7944,19025
7993,18952
8065,18880
8149,18824
8154,18822
8242,18786
8341,18766
8442,18766
8541,18786
Z" /> 
<path style="fill:#840084; fill-opacity:1.0; 
stroke:#840084; stroke-width:0; stroke-opacity:1; 
stroke-linecap:round; stroke-linejoin:round;fill-rule:evenodd;"
d="M 19952,18785
20042,18822
20123,18876
20191,18944
20191,18944
20245,19025
20282,19115
20301,19210
20301,19307
20282,19402
20272,19427
20245,19492
20191,19572
20123,19641
20042,19695
20042,19695
20042,19695
19952,19732
19857,19751
19760,19751
19665,19732
19575,19695
19575,19695
19575,19695
19495,19641
19426,19572
19372,19492
19345,19427
19335,19402
19316,19307
19316,19210
19335,19115
19372,19025
19426,18944
19426,18944
19495,18876
19575,18822
19665,18785
19760,18766
19857,18766
19952,18785
Z" /> 
<path style="fill:#840084; fill-opacity:1.0; 
stroke:#840084; stroke-width:0; stroke-opacity:1; 
stroke-linecap:round; stroke-linejoin:round;fill-rule:evenodd;"
d="M 31370,18785
31459,18822
31540,18876
31608,18944
31608,18944
31662,19025
31699,19115
31718,19210
31718,19307
31699,19402
31689,19427
31662,19492
31608,19572
31540,19641
31459,19695
31459,19695
31459,19695
31370,19732
31274,19751
31177,19751
31082,19732
30993,19695
30993,19695
30993,19695
30912,19641
30843,19572
30789,19492
30763,19427
30752,19402
30733,19307
30733,19210
30752,19115
30789,19025
30843,18944
30843,18944
30912,18876
30993,18822
31082,18785
31177,18766
31274,18766
31370,18785
Z" /> 
<path style="fill:#840084; fill-opacity:1.0; 
stroke:#840084; stroke-width:0; stroke-opacity:1; 
stroke-linecap:round; stroke-linejoin:round;fill-rule:evenodd;"
d="M 22903,17275
22952,17285
23042,17322
23123,17376
23191,17444
23245,17525
23282,17615
23301,17710
23301,17807
23282,17902
23245,17992
23191,18072
23123,18141
23042,18195
23042,18195
23042,18195
22952,18232
22857,18251
22760,18251
22665,18232
22575,18195
22575,18195
22575,18195
22495,18141
22426,18072
22372,17992
22335,17902
22316,17807
22316,17710
22335,17615
22372,17525
22426,17444
22495,17376
22575,17322
22665,17285
22714,17275
22760,17266
22857,17266
22903,17275
Z" /> 
<path style="fill:#840084; fill-opacity:1.0; 
stroke:#840084; stroke-width:0; stroke-opacity:1; 
stroke-linecap:round; stroke-linejoin:round;fill-rule:evenodd;"
d="M 34321,17275
34370,17285
34459,17322
34540,17376
34608,17444
34662,17525
34699,17615
34718,17710
34718,17807
34699,17902
34662,17992
34608,18072
34540,18141
34459,18195
34459,18195
34459,18195
34370,18232
34274,18251
34177,18251
34082,18232
33993,18195
33993,18195
33993,18195
33912,18141
33843,18072
33789,17992
33752,17902
33733,17807
33733,17710
33752,17615
33789,17525
33843,17444
33912,17376
33993,17322
34082,17285
34131,17275
34177,17266
34274,17266
34321,17275
Z" /> 
<path style="fill:#840084; fill-opacity:1.0; 
stroke:#840084; stroke-width:0; stroke-opacity:1; 
stroke-linecap:round; stroke-linejoin:round;fill-rule:evenodd;"
d="M 44228,17353
44270,17361
44305,17376
44349,17394
44420,17441
44480,17502
44527,17573
44560,17652
44577,17735
44577,17821
44576,17822
44560,17902
44560,17904
44527,17983
44480,18054
44420,18115
44349,18162
44270,18195
44228,18203
44186,18212
44101,18212
44059,18203
44017,18195
43938,18162
43867,18115
43807,18054
43759,17983
43726,17904
43726,17902
43710,17822
43710,17821
43710,17735
43726,17652
43759,17573
43807,17502
43867,17441
43938,17394
43982,17376
44017,17361
44059,17353
44101,17345
44186,17345
44228,17353
Z" /> 
<path style="fill:#840084; fill-opacity:1.0; 
stroke:#840084; stroke-width:0; stroke-opacity:1; 
stroke-linecap:round; stroke-linejoin:round;fill-rule:evenodd;"
d="M 9976,17353
10018,17361
10053,17376
10097,17394
10168,17441
10228,17502
10275,17573
10308,17652
10325,17735
10325,17821
10324,17822
10309,17902
10308,17904
10275,17983
10228,18054
10168,18115
10097,18162
10018,18195
9976,18203
9934,18212
9849,18212
9807,18203
9765,18195
9686,18162
9615,18115
9555,18054
9507,17983
9474,17904
9474,17902
9458,17822
9458,17821
9458,17735
9474,17652
9507,17573
9555,17502
9615,17441
9686,17394
9730,17376
9765,17361
9807,17353
9849,17345
9934,17345
9976,17353
Z" /> 
<path style="fill:#840084; fill-opacity:1.0; 
stroke:#840084; stroke-width:0; stroke-opacity:1; 
stroke-linecap:round; stroke-linejoin:round;fill-rule:evenodd;"
d="M 19952,17035
20042,17072
20123,17126
20191,17194
20191,17194
20245,17275
20282,17365
20301,17460
20301,17557
20298,17573
20282,17652
20245,17742
20191,17822
20123,17891
20042,17945
20042,17945
20042,17945
19952,17982
19857,18001
19760,18001
19665,17982
19575,17945
19575,17945
19575,17945
19495,17891
19426,17822
19372,17742
19335,17652
19319,17573
19316,17557
19316,17460
19335,17365
19372,17275
19426,17194
19426,17194
19495,17126
19575,17072
19665,17035
19760,17016
19857,17016
19952,17035
Z" /> 
<path style="fill:#840084; fill-opacity:1.0; 
stroke:#840084; stroke-width:0; stroke-opacity:1; 
stroke-linecap:round; stroke-linejoin:round;fill-rule:evenodd;"
d="M 31370,17035
31459,17072
31540,17126
31608,17194
31608,17194
31662,17275
31699,17365
31718,17460
31718,17557
31715,17573
31699,17652
31662,17742
31608,17822
31540,17891
31459,17945
31459,17945
31459,17945
31370,17982
31274,18001
31177,18001
31082,17982
30993,17945
30993,17945
30993,17945
30912,17891
30843,17822
30789,17742
30752,17652
30737,17573
30733,17557
30733,17460
30752,17365
30789,17275
30843,17194
30843,17194
30912,17126
30993,17072
31082,17035
31177,17016
31274,17016
31370,17035
Z" /> 
<path style="fill:#840084; fill-opacity:1.0; 
stroke:#840084; stroke-width:0; stroke-opacity:1; 
stroke-linecap:round; stroke-linejoin:round;fill-rule:evenodd;"
d="M 21429,15609
21505,15640
21505,15640
21572,15685
21630,15743
21675,15810
21706,15886
21722,15966
21722,16047
21706,16127
21675,16202
21675,16202
21630,16270
21572,16328
21505,16373
21505,16373
21505,16373
21429,16404
21349,16420
21268,16420
21188,16404
21113,16373
21113,16373
21113,16373
21045,16328
20987,16270
20942,16202
20942,16202
20911,16127
20895,16047
20895,15966
20911,15886
20942,15810
20987,15743
21045,15685
21113,15640
21113,15640
21188,15609
21268,15593
21349,15593
21429,15609
Z" /> 
<path style="fill:#840084; fill-opacity:1.0; 
stroke:#840084; stroke-width:0; stroke-opacity:1; 
stroke-linecap:round; stroke-linejoin:round;fill-rule:evenodd;"
d="M 32847,15609
32922,15640
32922,15640
32990,15685
33047,15743
33093,15810
33124,15886
33140,15966
33140,16047
33124,16127
33093,16202
33093,16202
33047,16270
32990,16328
32922,16373
32922,16373
32922,16373
32847,16404
32767,16420
32685,16420
32605,16404
32530,16373
32530,16373
32530,16373
32462,16328
32404,16270
32359,16202
32359,16202
32328,16127
32312,16047
32312,15966
32328,15886
32359,15810
32404,15743
32462,15685
32530,15640
32530,15640
32605,15609
32685,15593
32767,15593
32847,15609
Z" /> 
<path style="fill:#840084; fill-opacity:1.0; 
stroke:#840084; stroke-width:0; stroke-opacity:1; 
stroke-linecap:round; stroke-linejoin:round;fill-rule:evenodd;"
d="M 11537,15286
11630,15324
11630,15324
11661,15345
11714,15380
11785,15452
11841,15535
11880,15629
11900,15728
11900,15828
11880,15927
11841,16021
11841,16021
11785,16105
11714,16176
11630,16232
11630,16232
11630,16232
11537,16271
11438,16290
11337,16290
11238,16271
11145,16232
11145,16232
11145,16232
11061,16176
10989,16105
10933,16021
10933,16021
10895,15927
10875,15828
10875,15728
10895,15629
10933,15535
10989,15452
11061,15380
11114,15345
11145,15324
11145,15324
11238,15286
11337,15266
11438,15266
11537,15286
Z" /> 
<path style="fill:#840084; fill-opacity:1.0; 
stroke:#840084; stroke-width:0; stroke-opacity:1; 
stroke-linecap:round; stroke-linejoin:round;fill-rule:evenodd;"
d="M 45789,15286
45882,15324
45882,15324
45912,15345
45966,15380
46037,15452
46093,15535
46132,15629
46151,15728
46151,15828
46132,15927
46093,16021
46093,16021
46037,16105
45966,16176
45882,16232
45882,16232
45882,16232
45789,16271
45690,16290
45589,16290
45490,16271
45397,16232
45397,16232
45397,16232
45313,16176
45241,16105
45185,16021
45185,16021
45147,15927
45127,15828
45127,15728
45147,15629
45185,15535
45241,15452
45313,15380
45366,15345
45397,15324
45397,15324
45490,15286
45589,15266
45690,15266
45789,15286
Z" /> 
<path style="fill:#840084; fill-opacity:1.0; 
stroke:#840084; stroke-width:0; stroke-opacity:1; 
stroke-linecap:round; stroke-linejoin:round;fill-rule:evenodd;"
d="M 42797,15286
42890,15324
42890,15324
42920,15345
42974,15380
43045,15452
43101,15535
43140,15629
43159,15728
43159,15828
43140,15927
43101,16021
43101,16021
43045,16105
42974,16176
42890,16232
42890,16232
42890,16232
42797,16271
42698,16290
42597,16290
42498,16271
42405,16232
42405,16232
42405,16232
42321,16176
42249,16105
42193,16021
42193,16021
42155,15927
42135,15828
42135,15728
42155,15629
42193,15535
42249,15452
42321,15380
42374,15345
42405,15324
42405,15324
42498,15286
42597,15266
42698,15266
42797,15286
Z" /> 
<path style="fill:#840084; fill-opacity:1.0; 
stroke:#840084; stroke-width:0; stroke-opacity:1; 
stroke-linecap:round; stroke-linejoin:round;fill-rule:evenodd;"
d="M 8545,15286
8638,15324
8638,15324
8668,15345
8722,15380
8793,15452
8849,15535
8888,15629
8907,15728
8907,15828
8888,15927
8849,16021
8849,16021
8793,16105
8722,16176
8638,16232
8638,16232
8638,16232
8545,16271
8446,16290
8345,16290
8246,16271
8153,16232
8153,16232
8153,16232
8069,16176
7997,16105
7941,16021
7941,16021
7903,15927
7883,15828
7883,15728
7903,15629
7941,15535
7997,15452
8069,15380
8122,15345
8153,15324
8153,15324
8246,15286
8345,15266
8446,15266
8545,15286
Z" /> 
<path style="fill:#840084; fill-opacity:1.0; 
stroke:#840084; stroke-width:0; stroke-opacity:1; 
stroke-linecap:round; stroke-linejoin:round;fill-rule:evenodd;"
d="M 44228,15353
44270,15361
44349,15394
44420,15441
44480,15502
44527,15573
44527,15573
44555,15640
44560,15652
44577,15735
44577,15821
44560,15904
44527,15983
44480,16054
44420,16115
44349,16162
44315,16176
44270,16195
44232,16202
44186,16212
44101,16212
44055,16202
44017,16195
43971,16176
43938,16162
43867,16115
43807,16054
43759,15983
43726,15904
43710,15821
43710,15735
43726,15652
43731,15640
43759,15573
43759,15573
43807,15502
43867,15441
43938,15394
44017,15361
44059,15353
44101,15345
44186,15345
44228,15353
Z" /> 
<path style="fill:#840084; fill-opacity:1.0; 
stroke:#840084; stroke-width:0; stroke-opacity:1; 
stroke-linecap:round; stroke-linejoin:round;fill-rule:evenodd;"
d="M 9976,15353
10018,15361
10097,15394
10168,15441
10228,15502
10275,15573
10275,15573
10303,15640
10308,15652
10325,15735
10325,15821
10308,15904
10275,15983
10228,16054
10168,16115
10097,16162
10063,16176
10018,16195
9980,16202
9934,16212
9849,16212
9803,16202
9765,16195
9719,16176
9686,16162
9615,16115
9555,16054
9507,15983
9474,15904
9458,15821
9458,15735
9474,15652
9479,15640
9507,15573
9507,15573
9555,15502
9615,15441
9686,15394
9765,15361
9807,15353
9849,15345
9934,15345
9976,15353
Z" /> 
<path style="fill:#840084; fill-opacity:1.0; 
stroke:#840084; stroke-width:0; stroke-opacity:1; 
stroke-linecap:round; stroke-linejoin:round;fill-rule:evenodd;"
d="M 21383,14069
21398,14073
21412,14081
21423,14090
21433,14102
21441,14116
21445,14131
21447,14148
21447,14400
21445,14418
21441,14432
21433,14446
21423,14458
21412,14468
21398,14475
21383,14479
21365,14481
21075,14481
21057,14479
21042,14475
21028,14468
21016,14458
21007,14446
20999,14432
20995,14418
20993,14400
20993,14148
20995,14131
20999,14116
21007,14102
21016,14090
21028,14081
21042,14073
21057,14069
21075,14067
21365,14067
21383,14069
Z" /> 
<path style="fill:#840084; fill-opacity:1.0; 
stroke:#840084; stroke-width:0; stroke-opacity:1; 
stroke-linecap:round; stroke-linejoin:round;fill-rule:evenodd;"
d="M 20694,14069
20709,14073
20723,14081
20734,14090
20744,14102
20752,14116
20756,14131
20758,14148
20758,14400
20756,14418
20752,14432
20744,14446
20734,14458
20723,14468
20709,14475
20694,14479
20676,14481
20386,14481
20368,14479
20353,14475
20339,14468
20328,14458
20318,14446
20310,14432
20306,14418
20304,14400
20304,14148
20306,14131
20310,14116
20318,14102
20328,14090
20339,14081
20353,14073
20368,14069
20386,14067
20676,14067
20694,14069
Z" /> 
<path style="fill:#840084; fill-opacity:1.0; 
stroke:#840084; stroke-width:0; stroke-opacity:1; 
stroke-linecap:round; stroke-linejoin:round;fill-rule:evenodd;"
d="M 32820,14069
32835,14073
32849,14081
32860,14090
32870,14102
32878,14116
32882,14131
32884,14148
32884,14400
32882,14418
32878,14432
32870,14446
32860,14458
32849,14468
32835,14475
32820,14479
32802,14481
32512,14481
32494,14479
32479,14475
32465,14468
32453,14458
32444,14446
32436,14432
32432,14418
32430,14400
32430,14148
32432,14131
32436,14116
32444,14102
32453,14090
32465,14081
32479,14073
32494,14069
32512,14067
32802,14067
32820,14069
Z" /> 
<path style="fill:#840084; fill-opacity:1.0; 
stroke:#840084; stroke-width:0; stroke-opacity:1; 
stroke-linecap:round; stroke-linejoin:round;fill-rule:evenodd;"
d="M 31777,14069
31792,14073
31805,14081
31817,14090
31827,14102
31834,14116
31839,14131
31840,14148
31840,14400
31839,14418
31834,14432
31827,14446
31817,14458
31805,14468
31792,14475
31777,14479
31759,14481
31468,14481
31450,14479
31436,14475
31422,14468
31410,14458
31400,14446
31393,14432
31389,14418
31387,14400
31387,14148
31389,14131
31393,14116
31400,14102
31410,14090
31422,14081
31436,14073
31450,14069
31468,14067
31759,14067
31777,14069
Z" /> 
<path style="fill:#840084; fill-opacity:1.0; 
stroke:#840084; stroke-width:0; stroke-opacity:1; 
stroke-linecap:round; stroke-linejoin:round;fill-rule:evenodd;"
d="M 33509,14069
33524,14073
33538,14081
33549,14090
33559,14102
33567,14116
33571,14131
33573,14148
33573,14400
33571,14418
33567,14432
33559,14446
33549,14458
33538,14468
33524,14475
33509,14479
33491,14481
33201,14481
33183,14479
33168,14475
33154,14468
33142,14458
33133,14446
33125,14432
33121,14418
33119,14400
33119,14148
33121,14131
33125,14116
33133,14102
33142,14090
33154,14081
33168,14073
33183,14069
33201,14067
33491,14067
33509,14069
Z" /> 
<path style="fill:#840084; fill-opacity:1.0; 
stroke:#840084; stroke-width:0; stroke-opacity:1; 
stroke-linecap:round; stroke-linejoin:round;fill-rule:evenodd;"
d="M 22426,14069
22441,14073
22455,14081
22467,14090
22477,14102
22484,14116
22488,14131
22490,14148
22490,14400
22488,14418
22484,14432
22477,14446
22467,14458
22455,14468
22441,14475
22426,14479
22409,14481
22118,14481
22100,14479
22085,14475
22072,14468
22060,14458
22050,14446
22043,14432
22038,14418
22037,14400
22037,14148
22038,14131
22043,14116
22050,14102
22060,14090
22072,14081
22085,14073
22100,14069
22118,14067
22409,14067
22426,14069
Z" /> 
<path style="fill:#840084; fill-opacity:1.0; 
stroke:#840084; stroke-width:0; stroke-opacity:1; 
stroke-linecap:round; stroke-linejoin:round;fill-rule:evenodd;"
d="M 23115,14069
23130,14073
23144,14081
23156,14090
23166,14102
23173,14116
23177,14131
23179,14148
23179,14400
23177,14418
23173,14432
23166,14446
23156,14458
23144,14468
23130,14475
23115,14479
23098,14481
22807,14481
22789,14479
22774,14475
22761,14468
22749,14458
22739,14446
22732,14432
22727,14418
22725,14400
22725,14148
22727,14131
22732,14116
22739,14102
22749,14090
22761,14081
22774,14073
22789,14069
22807,14067
23098,14067
23115,14069
Z" /> 
<path style="fill:#840084; fill-opacity:1.0; 
stroke:#840084; stroke-width:0; stroke-opacity:1; 
stroke-linecap:round; stroke-linejoin:round;fill-rule:evenodd;"
d="M 31088,14069
31103,14073
31116,14081
31128,14090
31138,14102
31145,14116
31150,14131
31151,14148
31151,14400
31150,14418
31145,14432
31138,14446
31128,14458
31116,14468
31103,14475
31088,14479
31070,14481
30779,14481
30762,14479
30747,14475
30733,14468
30721,14458
30711,14446
30704,14432
30700,14418
30698,14400
30698,14148
30700,14131
30704,14116
30711,14102
30721,14090
30733,14081
30747,14073
30762,14069
30779,14067
31070,14067
31088,14069
Z" /> 
<path style="fill:#840084; fill-opacity:1.0; 
stroke:#840084; stroke-width:0; stroke-opacity:1; 
stroke-linecap:round; stroke-linejoin:round;fill-rule:evenodd;"
d="M 28405,13418
27794,13418
27794,11665
28405,11665
28405,13418
Z" /> 
<path style="fill:#840084; fill-opacity:1.0; 
stroke:#840084; stroke-width:0; stroke-opacity:1; 
stroke-linecap:round; stroke-linejoin:round;fill-rule:evenodd;"
d="M 26083,13418
25472,13418
25472,11665
26083,11665
26083,13418
Z" /> 
<path style="fill:#840084; fill-opacity:1.0; 
stroke:#840084; stroke-width:0; stroke-opacity:1; 
stroke-linecap:round; stroke-linejoin:round;fill-rule:evenodd;"
d="M 48540,10873
48603,10892
48661,10923
48712,10965
48754,11016
48754,11016
48785,11074
48804,11138
48809,11187
48809,11377
48804,11426
48785,11490
48757,11542
48754,11548
48712,11599
48661,11641
48661,11641
48603,11672
48540,11691
48474,11697
48408,11691
48345,11672
48287,11641
48287,11641
48236,11599
48194,11548
48191,11542
48163,11490
48144,11426
48139,11377
48139,11187
48144,11138
48163,11074
48194,11016
48236,10965
48287,10923
48293,10920
48345,10892
48408,10873
48474,10867
48540,10873
Z" /> 
<path style="fill:#840084; fill-opacity:1.0; 
stroke:#840084; stroke-width:0; stroke-opacity:1; 
stroke-linecap:round; stroke-linejoin:round;fill-rule:evenodd;"
d="M 49540,10873
49603,10892
49661,10923
49712,10965
49754,11016
49754,11016
49785,11074
49804,11138
49809,11187
49809,11377
49804,11426
49785,11490
49757,11542
49754,11548
49712,11599
49661,11641
49661,11641
49603,11672
49540,11691
49474,11697
49408,11691
49345,11672
49287,11641
49287,11641
49236,11599
49194,11548
49191,11542
49163,11490
49144,11426
49139,11377
49139,11187
49144,11138
49163,11074
49194,11016
49236,10965
49287,10923
49293,10920
49345,10892
49408,10873
49474,10867
49540,10873
Z" /> 
<path style="fill:#840084; fill-opacity:1.0; 
stroke:#840084; stroke-width:0; stroke-opacity:1; 
stroke-linecap:round; stroke-linejoin:round;fill-rule:evenodd;"
d="M 44540,10873
44603,10892
44661,10923
44712,10965
44754,11016
44754,11016
44785,11074
44804,11138
44809,11187
44809,11377
44804,11426
44785,11490
44757,11542
44754,11548
44712,11599
44661,11641
44661,11641
44603,11672
44540,11691
44474,11697
44408,11691
44345,11672
44287,11641
44287,11641
44236,11599
44194,11548
44191,11542
44163,11490
44144,11426
44139,11377
44139,11187
44144,11138
44163,11074
44194,11016
44236,10965
44287,10923
44293,10920
44345,10892
44408,10873
44474,10867
44540,10873
Z" /> 
<path style="fill:#840084; fill-opacity:1.0; 
stroke:#840084; stroke-width:0; stroke-opacity:1; 
stroke-linecap:round; stroke-linejoin:round;fill-rule:evenodd;"
d="M 50540,10873
50603,10892
50661,10923
50712,10965
50754,11016
50754,11016
50785,11074
50804,11138
50809,11187
50809,11377
50804,11426
50785,11490
50757,11542
50754,11548
50712,11599
50661,11641
50661,11641
50603,11672
50540,11691
50474,11697
50408,11691
50345,11672
50287,11641
50287,11641
50236,11599
50194,11548
50191,11542
50163,11490
50144,11426
50139,11377
50139,11187
50144,11138
50163,11074
50194,11016
50236,10965
50287,10923
50293,10920
50345,10892
50408,10873
50474,10867
50540,10873
Z" /> 
<path style="fill:#840084; fill-opacity:1.0; 
stroke:#840084; stroke-width:0; stroke-opacity:1; 
stroke-linecap:round; stroke-linejoin:round;fill-rule:evenodd;"
d="M 46540,10873
46603,10892
46661,10923
46712,10965
46754,11016
46754,11016
46785,11074
46804,11138
46809,11187
46809,11377
46804,11426
46785,11490
46757,11542
46754,11548
46712,11599
46661,11641
46661,11641
46603,11672
46540,11691
46474,11697
46408,11691
46345,11672
46287,11641
46287,11641
46236,11599
46194,11548
46191,11542
46163,11490
46144,11426
46139,11377
46139,11187
46144,11138
46163,11074
46194,11016
46236,10965
46287,10923
46293,10920
46345,10892
46408,10873
46474,10867
46540,10873
Z" /> 
<path style="fill:#840084; fill-opacity:1.0; 
stroke:#840084; stroke-width:0; stroke-opacity:1; 
stroke-linecap:round; stroke-linejoin:round;fill-rule:evenodd;"
d="M 45540,10873
45603,10892
45661,10923
45712,10965
45754,11016
45754,11016
45785,11074
45804,11138
45809,11187
45809,11377
45804,11426
45785,11490
45757,11542
45754,11548
45712,11599
45661,11641
45661,11641
45603,11672
45540,11691
45474,11697
45408,11691
45345,11672
45287,11641
45287,11641
45236,11599
45194,11548
45191,11542
45163,11490
45144,11426
45139,11377
45139,11187
45144,11138
45163,11074
45194,11016
45236,10965
45287,10923
45293,10920
45345,10892
45408,10873
45474,10867
45540,10873
Z" /> 
<path style="fill:#840084; fill-opacity:1.0; 
stroke:#840084; stroke-width:0; stroke-opacity:1; 
stroke-linecap:round; stroke-linejoin:round;fill-rule:evenodd;"
d="M 47540,10873
47603,10892
47661,10923
47712,10965
47754,11016
47754,11016
47785,11074
47804,11138
47809,11187
47809,11377
47804,11426
47785,11490
47757,11542
47754,11548
47712,11599
47661,11641
47661,11641
47603,11672
47540,11691
47474,11697
47408,11691
47345,11672
47287,11641
47287,11641
47236,11599
47194,11548
47191,11542
47163,11490
47144,11426
47139,11377
47139,11187
47144,11138
47163,11074
47194,11016
47236,10965
47287,10923
47293,10920
47345,10892
47408,10873
47474,10867
47540,10873
Z" /> 
<path style="fill:#840084; fill-opacity:1.0; 
stroke:#840084; stroke-width:0; stroke-opacity:1; 
stroke-linecap:round; stroke-linejoin:round;fill-rule:evenodd;"
d="M 43888,11696
43060,11696
43060,10868
43888,10868
43888,11696
Z" /> 
<path style="fill:#840084; fill-opacity:1.0; 
stroke:#840084; stroke-width:0; stroke-opacity:1; 
stroke-linecap:round; stroke-linejoin:round;fill-rule:evenodd;"
d="M 26757,10762
26772,10766
26786,10773
26797,10783
26807,10795
26815,10809
26819,10824
26821,10841
26821,11093
26819,11111
26815,11125
26807,11139
26797,11151
26786,11161
26772,11168
26757,11172
26739,11174
26449,11174
26431,11172
26416,11168
26402,11161
26391,11151
26381,11139
26373,11125
26369,11111
26367,11093
26367,10841
26369,10824
26373,10809
26381,10795
26391,10783
26402,10773
26416,10766
26431,10762
26449,10760
26739,10760
26757,10762
Z" /> 
<path style="fill:#840084; fill-opacity:1.0; 
stroke:#840084; stroke-width:0; stroke-opacity:1; 
stroke-linecap:round; stroke-linejoin:round;fill-rule:evenodd;"
d="M 27446,10762
27461,10766
27475,10773
27486,10783
27496,10795
27504,10809
27508,10824
27510,10841
27510,11093
27508,11111
27504,11125
27496,11139
27486,11151
27475,11161
27461,11168
27446,11172
27428,11174
27138,11174
27120,11172
27105,11168
27091,11161
27079,11151
27070,11139
27062,11125
27058,11111
27056,11093
27056,10841
27058,10824
27062,10809
27070,10795
27079,10783
27091,10773
27105,10766
27120,10762
27138,10760
27428,10760
27446,10762
Z" /> 
<path style="fill:#840084; fill-opacity:1.0; 
stroke:#840084; stroke-width:0; stroke-opacity:1; 
stroke-linecap:round; stroke-linejoin:round;fill-rule:evenodd;"
d="M 24006,9452
23336,9452
23336,8782
24006,8782
24006,9452
Z" /> 
<path style="fill:#840084; fill-opacity:1.0; 
stroke:#840084; stroke-width:0; stroke-opacity:1; 
stroke-linecap:round; stroke-linejoin:round;fill-rule:evenodd;"
d="M 27446,8951
27461,8955
27475,8962
27486,8972
27496,8984
27504,8998
27508,9012
27510,9030
27510,9282
27508,9299
27504,9314
27496,9328
27486,9340
27475,9350
27461,9357
27446,9361
27428,9363
27138,9363
27120,9361
27105,9357
27091,9350
27079,9340
27070,9328
27062,9314
27058,9299
27056,9282
27056,9030
27058,9012
27062,8998
27070,8984
27079,8972
27091,8962
27105,8955
27120,8951
27138,8949
27428,8949
27446,8951
Z" /> 
<path style="fill:#840084; fill-opacity:1.0; 
stroke:#840084; stroke-width:0; stroke-opacity:1; 
stroke-linecap:round; stroke-linejoin:round;fill-rule:evenodd;"
d="M 26757,8951
26772,8955
26786,8962
26797,8972
26807,8984
26815,8998
26819,9012
26821,9030
26821,9282
26819,9299
26815,9314
26807,9328
26797,9340
26786,9350
26772,9357
26757,9361
26739,9363
26449,9363
26431,9361
26416,9357
26402,9350
26391,9340
26381,9328
26373,9314
26369,9299
26367,9282
26367,9030
26369,9012
26373,8998
26381,8984
26391,8972
26402,8962
26416,8955
26431,8951
26449,8949
26739,8949
26757,8951
Z" /> 
<path style="fill:#840084; fill-opacity:1.0; 
stroke:#840084; stroke-width:0; stroke-opacity:1; 
stroke-linecap:round; stroke-linejoin:round;fill-rule:evenodd;"
d="M 23768,7810
23829,7835
23884,7872
23931,7919
23968,7974
23993,8035
24006,8099
24006,8165
23993,8230
23968,8291
23931,8346
23884,8393
23829,8429
23768,8455
23704,8467
23638,8467
23573,8455
23512,8429
23457,8393
23411,8346
23374,8291
23349,8230
23336,8165
23336,8099
23349,8035
23374,7974
23411,7919
23457,7872
23512,7835
23573,7810
23638,7797
23704,7797
23768,7810
Z" /> 
<path style="fill:#840084; fill-opacity:1.0; 
stroke:#840084; stroke-width:0; stroke-opacity:1; 
stroke-linecap:round; stroke-linejoin:round;fill-rule:evenodd;"
d="M 27446,7691
27461,7695
27475,7703
27486,7712
27496,7724
27504,7738
27508,7753
27510,7770
27510,8022
27508,8040
27504,8054
27496,8068
27486,8080
27475,8090
27461,8097
27446,8101
27428,8103
27138,8103
27120,8101
27105,8097
27091,8090
27079,8080
27070,8068
27062,8054
27058,8040
27056,8022
27056,7770
27058,7753
27062,7738
27070,7724
27079,7712
27091,7703
27105,7695
27120,7691
27138,7689
27428,7689
27446,7691
Z" /> 
<path style="fill:#840084; fill-opacity:1.0; 
stroke:#840084; stroke-width:0; stroke-opacity:1; 
stroke-linecap:round; stroke-linejoin:round;fill-rule:evenodd;"
d="M 26757,7691
26772,7695
26786,7703
26797,7712
26807,7724
26815,7738
26819,7753
26821,7770
26821,8022
26819,8040
26815,8054
26807,8068
26797,8080
26786,8090
26772,8097
26757,8101
26739,8103
26449,8103
26431,8101
26416,8097
26402,8090
26391,8080
26381,8068
26373,8054
26369,8040
26367,8022
26367,7770
26369,7753
26373,7738
26381,7724
26391,7712
26402,7703
26416,7695
26431,7691
26449,7689
26739,7689
26757,7691
Z" /> 
<path style="fill:#840084; fill-opacity:1.0; 
stroke:#840084; stroke-width:0; stroke-opacity:1; 
stroke-linecap:round; stroke-linejoin:round;fill-rule:evenodd;"
d="M 30471,2877
30550,2909
30661,2955
30661,2955
30832,3070
30978,3215
30978,3215
31092,3386
31138,3497
31170,3576
31211,3778
31211,3983
31180,4137
31170,4185
31092,4375
31092,4375
30978,4546
30832,4691
30746,4749
30661,4805
30550,4851
30471,4884
30270,4924
30064,4924
29862,4884
29784,4851
29672,4805
29588,4749
29502,4691
29356,4546
29242,4375
29242,4375
29163,4185
29154,4137
29123,3983
29123,3778
29163,3576
29196,3497
29242,3386
29356,3215
29356,3215
29502,3070
29672,2955
29672,2955
29784,2909
29862,2877
30064,2837
30270,2837
30471,2877
Z" /> 
<path style="fill:#840084; fill-opacity:1.0; 
stroke:#840084; stroke-width:0; stroke-opacity:1; 
stroke-linecap:round; stroke-linejoin:round;fill-rule:evenodd;"
d="M 2715,2877
2794,2909
2905,2955
2905,2955
3076,3070
3222,3215
3222,3215
3336,3386
3382,3497
3415,3576
3455,3778
3455,3983
3424,4137
3415,4185
3336,4375
3336,4375
3222,4546
3076,4691
2990,4749
2905,4805
2794,4851
2715,4884
2514,4924
2308,4924
2106,4884
2028,4851
1917,4805
1832,4749
1746,4691
1600,4546
1486,4375
1486,4375
1407,4185
1398,4137
1367,3983
1367,3778
1407,3576
1440,3497
1486,3386
1600,3215
1600,3215
1746,3070
1917,2955
1917,2955
2028,2909
2106,2877
2308,2837
2514,2837
2715,2877
Z" /> 
<path style="fill:#840084; fill-opacity:1.0; 
stroke:#840084; stroke-width:0; stroke-opacity:1; 
stroke-linecap:round; stroke-linejoin:round;fill-rule:evenodd;"
d="M 15817,4137
14989,4137
14989,3506
15817,3506
15817,4137
Z" /> 
<path style="fill:#840084; fill-opacity:1.0; 
stroke:#840084; stroke-width:0; stroke-opacity:1; 
stroke-linecap:round; stroke-linejoin:round;fill-rule:evenodd;"
d="M 9754,4137
8926,4137
8926,3506
9754,3506
9754,4137
Z" /> 
<path style="fill:#840084; fill-opacity:1.0; 
stroke:#840084; stroke-width:0; stroke-opacity:1; 
stroke-linecap:round; stroke-linejoin:round;fill-rule:evenodd;"
d="M 13061,4137
12233,4137
12233,3506
13061,3506
13061,4137
Z" /> 
<path style="fill:#840084; fill-opacity:1.0; 
stroke:#840084; stroke-width:0; stroke-opacity:1; 
stroke-linecap:round; stroke-linejoin:round;fill-rule:evenodd;"
d="M 6998,4137
6170,4137
6170,3506
6998,3506
6998,4137
Z" /> 
<path style="fill:#840084; fill-opacity:1.0; 
stroke:#840084; stroke-width:0; stroke-opacity:1; 
stroke-linecap:round; stroke-linejoin:round;fill-rule:evenodd;"
d="M 50540,1873
50603,1892
50661,1923
50712,1965
50754,2016
50754,2016
50785,2074
50804,2138
50809,2187
50809,2377
50804,2426
50785,2490
50757,2542
50754,2548
50712,2599
50661,2641
50661,2641
50603,2672
50540,2691
50474,2697
50408,2691
50345,2672
50287,2641
50287,2641
50236,2599
50194,2548
50191,2542
50163,2490
50144,2426
50139,2377
50139,2187
50144,2138
50163,2074
50194,2016
50236,1965
50287,1923
50293,1920
50345,1892
50408,1873
50474,1867
50540,1873
Z" /> 
<path style="fill:#840084; fill-opacity:1.0; 
stroke:#840084; stroke-width:0; stroke-opacity:1; 
stroke-linecap:round; stroke-linejoin:round;fill-rule:evenodd;"
d="M 48540,1873
48603,1892
48661,1923
48712,1965
48754,2016
48754,2016
48785,2074
48804,2138
48809,2187
48809,2377
48804,2426
48785,2490
48757,2542
48754,2548
48712,2599
48661,2641
48661,2641
48603,2672
48540,2691
48474,2697
48408,2691
48345,2672
48287,2641
48287,2641
48236,2599
48194,2548
48191,2542
48163,2490
48144,2426
48139,2377
48139,2187
48144,2138
48163,2074
48194,2016
48236,1965
48287,1923
48293,1920
48345,1892
48408,1873
48474,1867
48540,1873
Z" /> 
<path style="fill:#840084; fill-opacity:1.0; 
stroke:#840084; stroke-width:0; stroke-opacity:1; 
stroke-linecap:round; stroke-linejoin:round;fill-rule:evenodd;"
d="M 49540,1873
49603,1892
49661,1923
49712,1965
49754,2016
49754,2016
49785,2074
49804,2138
49809,2187
49809,2377
49804,2426
49785,2490
49757,2542
49754,2548
49712,2599
49661,2641
49661,2641
49603,2672
49540,2691
49474,2697
49408,2691
49345,2672
49287,2641
49287,2641
49236,2599
49194,2548
49191,2542
49163,2490
49144,2426
49139,2377
49139,2187
49144,2138
49163,2074
49194,2016
49236,1965
49287,1923
49293,1920
49345,1892
49408,1873
49474,1867
49540,1873
Z" /> 
<path style="fill:#840084; fill-opacity:1.0; 
stroke:#840084; stroke-width:0; stroke-opacity:1; 
stroke-linecap:round; stroke-linejoin:round;fill-rule:evenodd;"
d="M 45540,1873
45603,1892
45661,1923
45712,1965
45754,2016
45754,2016
45785,2074
45804,2138
45809,2187
45809,2377
45804,2426
45785,2490
45757,2542
45754,2548
45712,2599
45661,2641
45661,2641
45603,2672
45540,2691
45474,2697
45408,2691
45345,2672
45287,2641
45287,2641
45236,2599
45194,2548
45191,2542
45163,2490
45144,2426
45139,2377
45139,2187
45144,2138
45163,2074
45194,2016
45236,1965
45287,1923
45293,1920
45345,1892
45408,1873
45474,1867
45540,1873
Z" /> 
<path style="fill:#840084; fill-opacity:1.0; 
stroke:#840084; stroke-width:0; stroke-opacity:1; 
stroke-linecap:round; stroke-linejoin:round;fill-rule:evenodd;"
d="M 46540,1873
46603,1892
46661,1923
46712,1965
46754,2016
46754,2016
46785,2074
46804,2138
46809,2187
46809,2377
46804,2426
46785,2490
46757,2542
46754,2548
46712,2599
46661,2641
46661,2641
46603,2672
46540,2691
46474,2697
46408,2691
46345,2672
46287,2641
46287,2641
46236,2599
46194,2548
46191,2542
46163,2490
46144,2426
46139,2377
46139,2187
46144,2138
46163,2074
46194,2016
46236,1965
46287,1923
46293,1920
46345,1892
46408,1873
46474,1867
46540,1873
Z" /> 
<path style="fill:#840084; fill-opacity:1.0; 
stroke:#840084; stroke-width:0; stroke-opacity:1; 
stroke-linecap:round; stroke-linejoin:round;fill-rule:evenodd;"
d="M 47540,1873
47603,1892
47661,1923
47712,1965
47754,2016
47754,2016
47785,2074
47804,2138
47809,2187
47809,2377
47804,2426
47785,2490
47757,2542
47754,2548
47712,2599
47661,2641
47661,2641
47603,2672
47540,2691
47474,2697
47408,2691
47345,2672
47287,2641
47287,2641
47236,2599
47194,2548
47191,2542
47163,2490
47144,2426
47139,2377
47139,2187
47144,2138
47163,2074
47194,2016
47236,1965
47287,1923
47293,1920
47345,1892
47408,1873
47474,1867
47540,1873
Z" /> 
<path style="fill:#840084; fill-opacity:1.0; 
stroke:#840084; stroke-width:0; stroke-opacity:1; 
stroke-linecap:round; stroke-linejoin:round;fill-rule:evenodd;"
d="M 44540,1873
44603,1892
44661,1923
44712,1965
44754,2016
44754,2016
44785,2074
44804,2138
44809,2187
44809,2377
44804,2426
44785,2490
44757,2542
44754,2548
44712,2599
44661,2641
44661,2641
44603,2672
44540,2691
44474,2697
44408,2691
44345,2672
44287,2641
44287,2641
44236,2599
44194,2548
44191,2542
44163,2490
44144,2426
44139,2377
44139,2187
44144,2138
44163,2074
44194,2016
44236,1965
44287,1923
44293,1920
44345,1892
44408,1873
44474,1867
44540,1873
Z" /> 
<path style="fill:#840084; fill-opacity:1.0; 
stroke:#840084; stroke-width:0; stroke-opacity:1; 
stroke-linecap:round; stroke-linejoin:round;fill-rule:evenodd;"
d="M 43540,1873
43603,1892
43661,1923
43712,1965
43754,2016
43754,2016
43785,2074
43804,2138
43809,2187
43809,2377
43804,2426
43785,2490
43757,2542
43754,2548
43712,2599
43661,2641
43661,2641
43603,2672
43540,2691
43474,2697
43408,2691
43345,2672
43287,2641
43287,2641
43236,2599
43194,2548
43191,2542
43163,2490
43144,2426
43139,2377
43139,2187
43144,2138
43163,2074
43194,2016
43236,1965
43287,1923
43293,1920
43345,1892
43408,1873
43474,1867
43540,1873
Z" /> 
<path style="fill:#840084; fill-opacity:1.0; 
stroke:#840084; stroke-width:0; stroke-opacity:1; 
stroke-linecap:round; stroke-linejoin:round;fill-rule:evenodd;"
d="M 9754,2365
8926,2365
8926,1734
9754,1734
9754,2365
Z" /> 
<path style="fill:#840084; fill-opacity:1.0; 
stroke:#840084; stroke-width:0; stroke-opacity:1; 
stroke-linecap:round; stroke-linejoin:round;fill-rule:evenodd;"
d="M 6998,2365
6170,2365
6170,1734
6998,1734
6998,2365
Z" /> 
<path style="fill:#840084; fill-opacity:1.0; 
stroke:#840084; stroke-width:0; stroke-opacity:1; 
stroke-linecap:round; stroke-linejoin:round;fill-rule:evenodd;"
d="M 13061,2365
12233,2365
12233,1734
13061,1734
13061,2365
Z" /> 
<path style="fill:#840084; fill-opacity:1.0; 
stroke:#840084; stroke-width:0; stroke-opacity:1; 
stroke-linecap:round; stroke-linejoin:round;fill-rule:evenodd;"
d="M 15817,2365
14989,2365
14989,1734
15817,1734
15817,2365
Z" /> 
</g>
<g style="fill:#000000; fill-opacity:1.0; 
stroke:#000000; stroke-width:0; stroke-opacity:1; 
stroke-linecap:round; stroke-linejoin:round;">
</g>
<g style="fill:#6B01FF; fill-opacity:1.0; 
stroke:#6B01FF; stroke-width:0; stroke-opacity:1; 
stroke-linecap:round; stroke-linejoin:round;">
</g>
<g style="fill:#6B01FF; fill-opacity:1.0; 
stroke:#6B01FF; stroke-width:39.3701; stroke-opacity:1; 
stroke-linecap:round; stroke-linejoin:round;">
</g>
<g style="fill:#6B01FF; fill-opacity:0.0; 
stroke:#6B01FF; stroke-width:39.3701; stroke-opacity:1; 
stroke-linecap:round; stroke-linejoin:round;">
<path d="M23006 9561
L23254 9561
" />
<path d="M23130 9685
L23130 9437
" />
<circle cx="23671.3" cy="8625" r="1240.16" /> 
</g>
<g style="fill:#6B01FF; fill-opacity:0.0; 
stroke:#6B01FF; stroke-width:59.0551; stroke-opacity:1; 
stroke-linecap:round; stroke-linejoin:round;">
<path d="M49064 23841
L49064 22778
" />
<path d="M39104 23841
L49064 23841
" />
<path d="M39104 22778
L39104 23841
" />
<path d="M39104 22778
L49064 22778
" />
<path d="M26072 11951
L26466 11558
" />
<path d="M26072 13526
L26072 11951
" />
<path d="M27805 13526
L26072 13526
" />
<path d="M27805 11558
L27805 13526
" />
<path d="M26466 11558
L27805 11558
" />
</g>
<g style="fill:#6B01FF; fill-opacity:0.0; 
stroke:#6B01FF; stroke-width:39.3701; stroke-opacity:1; 
stroke-linecap:round; stroke-linejoin:round;">
<path d="M41037.4 1743.11 A787.441 787.441 0.0 0 0 40242.1 2522.64 " />
<path d="M40242.1 11034.4 A787.402 787.402 0.0 0 0 41029.5 11821.9 " />
<path d="M43474 11428
L43080 11821
" />
<path d="M43868 11821
L43474 11428
" />
<path d="M41029 11821
L43080 11821
" />
<path d="M50990 10821
L53706 10821
" />
<path d="M50990 11821
L50990 10821
" />
<path d="M43868 11821
L50990 11821
" />
<path d="M40242 2530
L40242 11034
" />
<path d="M53706 1743
L41029 1743
" />
<path d="M53706 10821
L53706 1743
" />
<path d="M20561 14117
L21190 14117
" />
<path d="M20561 14432
L20561 14117
" />
<path d="M21190 14432
L20561 14432
" />
<path d="M21190 14117
L21190 14432
" />
<path d="M22293 14117
L22923 14117
" />
<path d="M22293 14432
L22293 14117
" />
<path d="M22923 14432
L22293 14432
" />
<path d="M22923 14117
L22923 14432
" />
<path d="M32687 14117
L33316 14117
" />
<path d="M32687 14432
L32687 14117
" />
<path d="M33316 14432
L32687 14432
" />
<path d="M33316 14117
L33316 14432
" />
<path d="M31584 14432
L30954 14432
" />
<path d="M31584 14117
L31584 14432
" />
<path d="M30954 14117
L31584 14117
" />
<path d="M30954 14432
L30954 14117
" />
<path d="M26624 7739
L27253 7739
" />
<path d="M26624 8054
L26624 7739
" />
<path d="M27253 8054
L26624 8054
" />
<path d="M27253 7739
L27253 8054
" />
<path d="M26624 8999
L27253 8999
" />
<path d="M26624 9313
L26624 8999
" />
<path d="M27253 9313
L26624 9313
" />
<path d="M27253 8999
L27253 9313
" />
</g>
<g style="fill:#6B01FF; fill-opacity:0.0; 
stroke:#6B01FF; stroke-width:59.0551; stroke-opacity:1; 
stroke-linecap:round; stroke-linejoin:round;">
<path d="M14812 23841
L14812 22778
" />
<path d="M4852 23841
L14812 23841
" />
<path d="M4852 22778
L4852 23841
" />
<path d="M4852 22778
L14812 22778
" />
</g>
<g style="fill:#6B01FF; fill-opacity:0.0; 
stroke:#6B01FF; stroke-width:39.3701; stroke-opacity:1; 
stroke-linecap:round; stroke-linejoin:round;">
<path d="M26624 10810
L27253 10810
" />
<path d="M26624 11125
L26624 10810
" />
<path d="M27253 11125
L26624 11125
" />
<path d="M27253 10810
L27253 11125
" />
<g >
</g>
<g >
</g>
<g >
</g>
<g >
</g>
<g >
</g>
<g >
</g>
<g >
</g>
<g >
</g>
<g >
</g>
<g >
</g>
<g >
</g>
<g >
</g>
<g >
</g>
<g >
</g>
<g >
</g>
<g >
</g>
<g >
</g>
<g >
</g>
<g >
</g>
<g >
</g>
<g >
</g>
</g>
<g style="fill:#6B01FF; fill-opacity:0.0; 
stroke:#6B01FF; stroke-width:39.3701; stroke-opacity:1; 
stroke-linecap:round; stroke-linejoin:round;">
</g>
<g style="fill:#6B01FF; fill-opacity:0.0; 
stroke:#6B01FF; stroke-width:59.0551; stroke-opacity:1; 
stroke-linecap:round; stroke-linejoin:round;">
<path d="M25225 9459
L25206 9440
L25187 9403
L25187 9309
L25206 9271
L25225 9253
L25262 9234
L25300 9234
L25356 9253
L25581 9478
L25581 9234
" />
<path d="M25225 9084
L25206 9065
L25187 9028
L25187 8934
L25206 8896
L25225 8878
L25262 8859
L25300 8859
L25356 8878
L25581 9103
L25581 8859
" />
<path d="M25187 8615
L25187 8578
L25206 8540
L25225 8521
L25262 8503
L25337 8484
L25431 8484
L25506 8503
L25544 8521
L25562 8540
L25581 8578
L25581 8615
L25562 8653
L25544 8671
L25506 8690
L25431 8709
L25337 8709
L25262 8690
L25225 8671
L25206 8653
L25187 8615
" />
<path d="M25319 8146
L25581 8146
" />
<path d="M25319 8315
L25525 8315
L25562 8296
L25581 8259
L25581 8203
L25562 8165
L25544 8146
" />
<path d="M25375 7828
L25375 7959
" />
<path d="M25581 7959
L25187 7959
L25187 7771
" />
<path d="M23811 8690
L23830 8709
L23849 8765
L23849 8803
L23830 8859
L23793 8896
L23755 8915
L23680 8934
L23624 8934
L23549 8915
L23511 8896
L23474 8859
L23455 8803
L23455 8765
L23474 8709
L23493 8690
" />
<path d="M23493 8540
L23474 8521
L23455 8484
L23455 8390
L23474 8353
L23493 8334
L23530 8315
L23568 8315
L23624 8334
L23849 8559
L23849 8315
" />
<path d="M50908 18606
L50908 18212
" />
<path d="M50908 18400
L51133 18400
" />
<path d="M51133 18606
L51133 18212
" />
<path d="M51396 18212
L51471 18212
L51508 18231
L51546 18268
L51564 18343
L51564 18475
L51546 18550
L51508 18587
L51471 18606
L51396 18606
L51358 18587
L51321 18550
L51302 18475
L51302 18343
L51321 18268
L51358 18231
L51396 18212
" />
<path d="M51921 18606
L51733 18606
L51733 18212
" />
<path d="M52052 18400
L52183 18400
" />
<path d="M52239 18606
L52052 18606
L52052 18212
L52239 18212
" />
<path d="M1755 2090
L1755 1696
" />
<path d="M1755 1884
L1980 1884
" />
<path d="M1980 2090
L1980 1696
" />
<path d="M2242 1696
L2317 1696
L2355 1715
L2392 1753
L2411 1828
L2411 1959
L2392 2034
L2355 2071
L2317 2090
L2242 2090
L2205 2071
L2167 2034
L2148 1959
L2148 1828
L2167 1753
L2205 1715
L2242 1696
" />
<path d="M2767 2090
L2580 2090
L2580 1696
" />
<path d="M2898 1884
L3030 1884
" />
<path d="M3086 2090
L2898 2090
L2898 1696
L3086 1696
" />
<path d="M1755 18606
L1755 18212
" />
<path d="M1755 18400
L1980 18400
" />
<path d="M1980 18606
L1980 18212
" />
<path d="M2242 18212
L2317 18212
L2355 18231
L2392 18268
L2411 18343
L2411 18475
L2392 18550
L2355 18587
L2317 18606
L2242 18606
L2205 18587
L2167 18550
L2148 18475
L2148 18343
L2167 18268
L2205 18231
L2242 18212
" />
<path d="M2767 18606
L2580 18606
L2580 18212
" />
<path d="M2898 18400
L3030 18400
" />
<path d="M3086 18606
L2898 18606
L2898 18212
L3086 18212
" />
<path d="M29511 2090
L29511 1696
" />
<path d="M29511 1884
L29736 1884
" />
<path d="M29736 2090
L29736 1696
" />
<path d="M29998 1696
L30073 1696
L30111 1715
L30148 1753
L30167 1828
L30167 1959
L30148 2034
L30111 2071
L30073 2090
L29998 2090
L29961 2071
L29923 2034
L29904 1959
L29904 1828
L29923 1753
L29961 1715
L29998 1696
" />
<path d="M30523 2090
L30336 2090
L30336 1696
" />
<path d="M30654 1884
L30785 1884
" />
<path d="M30842 2090
L30654 2090
L30654 1696
L30842 1696
" />
<path d="M41423 22169
L41685 22562
" />
<path d="M41685 22169
L41423 22562
" />
<path d="M42023 22562
L41835 22562
L41835 22169
" />
<path d="M42379 22562
L42248 22375
" />
<path d="M42154 22562
L42154 22169
L42304 22169
L42342 22187
L42360 22206
L42379 22244
L42379 22300
L42360 22337
L42342 22356
L42304 22375
L42154 22375
" />
<path d="M42510 22169
L42754 22169
L42623 22319
L42679 22319
L42717 22337
L42735 22356
L42754 22394
L42754 22487
L42735 22525
L42717 22544
L42679 22562
L42567 22562
L42529 22544
L42510 22525
" />
<path d="M42829 22600
L43129 22600
" />
<path d="M43429 22187
L43391 22169
L43335 22169
L43279 22187
L43241 22225
L43223 22262
L43204 22337
L43204 22394
L43223 22469
L43241 22506
L43279 22544
L43335 22562
L43373 22562
L43429 22544
L43448 22525
L43448 22394
L43373 22394
" />
<path d="M43616 22562
L43616 22300
" />
<path d="M43616 22375
L43635 22337
L43654 22319
L43691 22300
L43729 22300
" />
<path d="M43916 22562
L43879 22544
L43860 22525
L43841 22487
L43841 22375
L43860 22337
L43879 22319
L43916 22300
L43973 22300
L44010 22319
L44029 22337
L44048 22375
L44048 22487
L44029 22525
L44010 22544
L43973 22562
L43916 22562
" />
<path d="M44385 22300
L44385 22562
" />
<path d="M44216 22300
L44216 22506
L44235 22544
L44273 22562
L44329 22562
L44366 22544
L44385 22525
" />
<path d="M44573 22300
L44573 22562
" />
<path d="M44573 22337
L44591 22319
L44629 22300
L44685 22300
L44723 22319
L44741 22356
L44741 22562
" />
<path d="M45097 22562
L45097 22169
" />
<path d="M45097 22544
L45060 22562
L44985 22562
L44947 22544
L44929 22525
L44910 22487
L44910 22375
L44929 22337
L44947 22319
L44985 22300
L45060 22300
L45097 22319
" />
<path d="M45191 22600
L45491 22600
" />
<path d="M45585 22562
L45585 22169
L45716 22450
L45847 22169
L45847 22562
" />
<path d="M46204 22562
L46204 22356
L46185 22319
L46147 22300
L46072 22300
L46035 22319
" />
<path d="M46204 22544
L46166 22562
L46072 22562
L46035 22544
L46016 22506
L46016 22469
L46035 22431
L46072 22412
L46166 22412
L46204 22394
" />
<path d="M46447 22562
L46410 22544
L46391 22506
L46391 22169
" />
<path d="M46747 22544
L46710 22562
L46635 22562
L46597 22544
L46579 22506
L46579 22356
L46597 22319
L46635 22300
L46710 22300
L46747 22319
L46766 22356
L46766 22394
L46579 22431
" />
<path d="M25664 14118
L25664 13724
L25795 14005
L25926 13724
L25926 14118
" />
<path d="M26339 14080
L26320 14099
L26264 14118
L26226 14118
L26170 14099
L26132 14061
L26114 14024
L26095 13949
L26095 13893
L26114 13818
L26132 13780
L26170 13743
L26226 13724
L26264 13724
L26320 13743
L26339 13761
" />
<path d="M26507 14118
L26507 13724
L26657 13724
L26695 13743
L26714 13761
L26732 13799
L26732 13855
L26714 13893
L26695 13911
L26657 13930
L26507 13930
" />
<path d="M27070 13855
L27070 14118
" />
<path d="M26976 13705
L26882 13986
L27126 13986
" />
<path d="M27445 13724
L27370 13724
L27332 13743
L27313 13761
L27276 13818
L27257 13893
L27257 14043
L27276 14080
L27295 14099
L27332 14118
L27407 14118
L27445 14099
L27463 14080
L27482 14043
L27482 13949
L27463 13911
L27445 13893
L27407 13874
L27332 13874
L27295 13893
L27276 13911
L27257 13949
" />
<path d="M27820 13724
L27745 13724
L27707 13743
L27688 13761
L27651 13818
L27632 13893
L27632 14043
L27651 14080
L27670 14099
L27707 14118
L27782 14118
L27820 14099
L27838 14080
L27857 14043
L27857 13949
L27838 13911
L27820 13893
L27782 13874
L27707 13874
L27670 13893
L27651 13911
L27632 13949
" />
<path d="M28232 14118
L28007 14118
" />
<path d="M28120 14118
L28120 13724
L28082 13780
L28045 13818
L28007 13836
" />
<path d="M26699 12369
L26699 12624
L26714 12654
L26729 12669
L26758 12684
L26818 12684
L26848 12669
L26863 12654
L26878 12624
L26878 12369
" />
<path d="M27013 12399
L27028 12384
L27058 12369
L27133 12369
L27163 12384
L27178 12399
L27193 12429
L27193 12459
L27178 12504
L26998 12684
L27193 12684
" />
<path d="M43258 8888
L43652 8794
L43371 8719
L43652 8644
L43258 8550
" />
<path d="M43633 8250
L43652 8288
L43652 8363
L43633 8400
L43596 8419
L43446 8419
L43408 8400
L43390 8363
L43390 8288
L43408 8250
L43446 8232
L43483 8232
L43521 8419
" />
<path d="M43652 8063
L43258 8063
L43540 7932
L43258 7801
L43652 7801
" />
<path d="M43652 7557
L43633 7594
L43615 7613
L43577 7632
L43465 7632
L43427 7613
L43408 7594
L43390 7557
L43390 7501
L43408 7463
L43427 7444
L43465 7426
L43577 7426
L43615 7444
L43633 7463
L43652 7501
L43652 7557
" />
<path d="M43633 7276
L43652 7238
L43652 7163
L43633 7126
L43596 7107
L43577 7107
L43540 7126
L43521 7163
L43521 7219
L43502 7257
L43465 7276
L43446 7276
L43408 7257
L43390 7219
L43390 7163
L43408 7126
" />
<path d="M43690 7032
L43690 6732
" />
<path d="M43652 6638
L43258 6638
L43258 6544
L43277 6488
L43315 6451
L43352 6432
L43427 6413
L43483 6413
L43558 6432
L43596 6451
L43633 6488
L43652 6544
L43652 6638
" />
<path d="M43652 6038
L43652 6263
" />
<path d="M43652 6151
L43258 6151
L43315 6188
L43352 6226
L43371 6263
" />
<path d="M43690 5963
L43690 5663
" />
<path d="M43652 5570
L43390 5570
" />
<path d="M43427 5570
L43408 5551
L43390 5513
L43390 5457
L43408 5420
L43446 5401
L43652 5401
" />
<path d="M43446 5401
L43408 5382
L43390 5345
L43390 5288
L43408 5251
L43446 5232
L43652 5232
" />
<path d="M43652 5045
L43390 5045
" />
<path d="M43258 5045
L43277 5063
L43296 5045
L43277 5026
L43258 5045
L43296 5045
" />
<path d="M43390 4857
L43652 4857
" />
<path d="M43427 4857
L43408 4838
L43390 4801
L43390 4745
L43408 4707
L43446 4688
L43652 4688
" />
<path d="M43652 4501
L43390 4501
" />
<path d="M43258 4501
L43277 4520
L43296 4501
L43277 4482
L43258 4501
L43296 4501
" />
<path d="M47195 7082
L47514 7082
L47552 7063
L47570 7044
L47589 7007
L47589 6932
L47570 6894
L47552 6876
L47514 6857
L47195 6857
" />
<path d="M47589 6463
L47589 6688
" />
<path d="M47589 6576
L47195 6576
L47252 6613
L47289 6651
L47308 6688
" />
<path d="M12825 3095
L12881 3114
L12975 3114
L13013 3095
L13031 3076
L13050 3039
L13050 3001
L13031 2964
L13013 2945
L12975 2926
L12900 2907
L12863 2889
L12844 2870
L12825 2832
L12825 2795
L12844 2757
L12863 2739
L12900 2720
L12994 2720
L13050 2739
" />
<path d="M13181 2720
L13275 3114
L13350 2832
L13425 3114
L13519 2720
" />
<path d="M13575 3151
L13875 3151
" />
<path d="M13969 3114
L13969 2720
L14119 2720
L14156 2739
L14175 2757
L14194 2795
L14194 2851
L14175 2889
L14156 2907
L14119 2926
L13969 2926
" />
<path d="M14531 2851
L14531 3114
" />
<path d="M14363 2851
L14363 3057
L14381 3095
L14419 3114
L14475 3114
L14513 3095
L14531 3076
" />
<path d="M14700 3095
L14738 3114
L14812 3114
L14850 3095
L14869 3057
L14869 3039
L14850 3001
L14812 2982
L14756 2982
L14719 2964
L14700 2926
L14700 2907
L14719 2870
L14756 2851
L14812 2851
L14850 2870
" />
<path d="M15037 3114
L15037 2720
" />
<path d="M15206 3114
L15206 2907
L15187 2870
L15150 2851
L15094 2851
L15056 2870
L15037 2889
" />
<path d="M6841 3095
L6897 3114
L6991 3114
L7028 3095
L7047 3076
L7066 3039
L7066 3001
L7047 2964
L7028 2945
L6991 2926
L6916 2907
L6878 2889
L6860 2870
L6841 2832
L6841 2795
L6860 2757
L6878 2739
L6916 2720
L7010 2720
L7066 2739
" />
<path d="M7197 2720
L7291 3114
L7366 2832
L7441 3114
L7535 2720
" />
<path d="M7591 3151
L7891 3151
" />
<path d="M7985 3114
L7985 2720
L8135 2720
L8172 2739
L8191 2757
L8210 2795
L8210 2851
L8191 2889
L8172 2907
L8135 2926
L7985 2926
" />
<path d="M8547 2851
L8547 3114
" />
<path d="M8378 2851
L8378 3057
L8397 3095
L8435 3114
L8491 3114
L8528 3095
L8547 3076
" />
<path d="M8716 3095
L8753 3114
L8828 3114
L8866 3095
L8884 3057
L8884 3039
L8866 3001
L8828 2982
L8772 2982
L8735 2964
L8716 2926
L8716 2907
L8735 2870
L8772 2851
L8828 2851
L8866 2870
" />
<path d="M9053 3114
L9053 2720
" />
<path d="M9222 3114
L9222 2907
L9203 2870
L9166 2851
L9109 2851
L9072 2870
L9053 2889
" />
<path d="M20416 13533
L20435 13514
L20472 13496
L20566 13496
L20604 13514
L20622 13533
L20641 13571
L20641 13608
L20622 13664
L20397 13889
L20641 13889
" />
<path d="M20810 13889
L20810 13496
" />
<path d="M20847 13739
L20960 13889
" />
<path d="M20960 13627
L20810 13777
" />
<path d="M21110 13533
L21129 13514
L21166 13496
L21260 13496
L21297 13514
L21316 13533
L21335 13571
L21335 13608
L21316 13664
L21091 13889
L21335 13889
" />
</g>
<g style="fill:#6B01FF; fill-opacity:0.0; 
stroke:#6B01FF; stroke-width:23.622; stroke-opacity:1; 
stroke-linecap:round; stroke-linejoin:round;">
<path d="M20849 14345
L20797 14270
" />
<path d="M20759 14345
L20759 14188
L20819 14188
L20834 14195
L20842 14203
L20849 14218
L20849 14240
L20842 14255
L20834 14263
L20819 14270
L20759 14270
" />
<path d="M20984 14188
L20954 14188
L20939 14195
L20932 14203
L20917 14225
L20909 14255
L20909 14315
L20917 14330
L20924 14338
L20939 14345
L20969 14345
L20984 14338
L20992 14330
L20999 14315
L20999 14278
L20992 14263
L20984 14255
L20969 14248
L20939 14248
L20924 14255
L20917 14263
L20909 14278
" />
</g>
<g style="fill:#6B01FF; fill-opacity:0.0; 
stroke:#6B01FF; stroke-width:59.0551; stroke-opacity:1; 
stroke-linecap:round; stroke-linejoin:round;">
<path d="M22148 13533
L22167 13514
L22205 13496
L22298 13496
L22336 13514
L22355 13533
L22373 13571
L22373 13608
L22355 13664
L22130 13889
L22373 13889
" />
<path d="M22542 13889
L22542 13496
" />
<path d="M22580 13739
L22692 13889
" />
<path d="M22692 13627
L22542 13777
" />
<path d="M22842 13533
L22861 13514
L22898 13496
L22992 13496
L23030 13514
L23048 13533
L23067 13571
L23067 13608
L23048 13664
L22823 13889
L23067 13889
" />
</g>
<g style="fill:#6B01FF; fill-opacity:0.0; 
stroke:#6B01FF; stroke-width:23.622; stroke-opacity:1; 
stroke-linecap:round; stroke-linejoin:round;">
<path d="M22582 14345
L22529 14270
" />
<path d="M22492 14345
L22492 14188
L22552 14188
L22567 14195
L22574 14203
L22582 14218
L22582 14240
L22574 14255
L22567 14263
L22552 14270
L22492 14270
" />
<path d="M22724 14188
L22649 14188
L22642 14263
L22649 14255
L22664 14248
L22702 14248
L22717 14255
L22724 14263
L22732 14278
L22732 14315
L22724 14330
L22717 14338
L22702 14345
L22664 14345
L22649 14338
L22642 14330
" />
</g>
<g style="fill:#6B01FF; fill-opacity:0.0; 
stroke:#6B01FF; stroke-width:59.0551; stroke-opacity:1; 
stroke-linecap:round; stroke-linejoin:round;">
<path d="M32542 13533
L32561 13514
L32598 13496
L32692 13496
L32730 13514
L32748 13533
L32767 13571
L32767 13608
L32748 13664
L32523 13889
L32767 13889
" />
<path d="M32936 13889
L32936 13496
" />
<path d="M32973 13739
L33086 13889
" />
<path d="M33086 13627
L32936 13777
" />
<path d="M33236 13533
L33255 13514
L33292 13496
L33386 13496
L33423 13514
L33442 13533
L33461 13571
L33461 13608
L33442 13664
L33217 13889
L33461 13889
" />
</g>
<g style="fill:#6B01FF; fill-opacity:0.0; 
stroke:#6B01FF; stroke-width:23.622; stroke-opacity:1; 
stroke-linecap:round; stroke-linejoin:round;">
<path d="M32975 14345
L32923 14270
" />
<path d="M32885 14345
L32885 14188
L32945 14188
L32960 14195
L32968 14203
L32975 14218
L32975 14240
L32968 14255
L32960 14263
L32945 14270
L32885 14270
" />
<path d="M33110 14240
L33110 14345
" />
<path d="M33073 14180
L33035 14293
L33133 14293
" />
</g>
<g style="fill:#6B01FF; fill-opacity:0.0; 
stroke:#6B01FF; stroke-width:59.0551; stroke-opacity:1; 
stroke-linecap:round; stroke-linejoin:round;">
<path d="M30810 14659
L30829 14640
L30866 14622
L30960 14622
L30997 14640
L31016 14659
L31035 14696
L31035 14734
L31016 14790
L30791 15015
L31035 15015
" />
<path d="M31204 15015
L31204 14622
" />
<path d="M31241 14865
L31354 15015
" />
<path d="M31354 14753
L31204 14903
" />
<path d="M31504 14659
L31522 14640
L31560 14622
L31654 14622
L31691 14640
L31710 14659
L31729 14696
L31729 14734
L31710 14790
L31485 15015
L31729 15015
" />
</g>
<g style="fill:#6B01FF; fill-opacity:0.0; 
stroke:#6B01FF; stroke-width:23.622; stroke-opacity:1; 
stroke-linecap:round; stroke-linejoin:round;">
<path d="M31243 14345
L31190 14270
" />
<path d="M31153 14345
L31153 14188
L31213 14188
L31228 14195
L31235 14203
L31243 14218
L31243 14240
L31235 14255
L31228 14263
L31213 14270
L31153 14270
" />
<path d="M31295 14188
L31393 14188
L31340 14248
L31363 14248
L31378 14255
L31385 14263
L31393 14278
L31393 14315
L31385 14330
L31378 14338
L31363 14345
L31318 14345
L31303 14338
L31295 14330
" />
</g>
<g style="fill:#6B01FF; fill-opacity:0.0; 
stroke:#6B01FF; stroke-width:59.0551; stroke-opacity:1; 
stroke-linecap:round; stroke-linejoin:round;">
<path d="M26667 7249
L26667 7511
" />
<path d="M26573 7099
L26479 7380
L26723 7380
" />
<path d="M26873 7511
L26873 7118
" />
<path d="M26910 7361
L27023 7511
" />
<path d="M27023 7249
L26873 7399
" />
<path d="M27154 7118
L27417 7118
L27248 7511
" />
</g>
<g style="fill:#6B01FF; fill-opacity:0.0; 
stroke:#6B01FF; stroke-width:23.622; stroke-opacity:1; 
stroke-linecap:round; stroke-linejoin:round;">
<path d="M26912 7967
L26860 7892
" />
<path d="M26822 7967
L26822 7810
L26882 7810
L26897 7817
L26905 7825
L26912 7840
L26912 7862
L26905 7877
L26897 7885
L26882 7892
L26822 7892
" />
<path d="M26972 7825
L26980 7817
L26995 7810
L27032 7810
L27047 7817
L27055 7825
L27062 7840
L27062 7855
L27055 7877
L26965 7967
L27062 7967
" />
</g>
<g style="fill:#6B01FF; fill-opacity:0.0; 
stroke:#6B01FF; stroke-width:59.0551; stroke-opacity:1; 
stroke-linecap:round; stroke-linejoin:round;">
<path d="M26667 8509
L26667 8771
" />
<path d="M26573 8359
L26479 8640
L26723 8640
" />
<path d="M26873 8771
L26873 8377
" />
<path d="M26910 8621
L27023 8771
" />
<path d="M27023 8509
L26873 8659
" />
<path d="M27154 8377
L27417 8377
L27248 8771
" />
</g>
<g style="fill:#6B01FF; fill-opacity:0.0; 
stroke:#6B01FF; stroke-width:23.622; stroke-opacity:1; 
stroke-linecap:round; stroke-linejoin:round;">
<path d="M26912 9227
L26860 9152
" />
<path d="M26822 9227
L26822 9070
L26882 9070
L26897 9077
L26905 9085
L26912 9100
L26912 9122
L26905 9137
L26897 9145
L26882 9152
L26822 9152
" />
<path d="M27062 9227
L26972 9227
" />
<path d="M27017 9227
L27017 9070
L27002 9092
L26987 9107
L26972 9115
" />
</g>
<g style="fill:#6B01FF; fill-opacity:0.0; 
stroke:#6B01FF; stroke-width:59.0551; stroke-opacity:1; 
stroke-linecap:round; stroke-linejoin:round;">
<path d="M7250 22169
L7512 22562
" />
<path d="M7512 22169
L7250 22562
" />
<path d="M7850 22562
L7662 22562
L7662 22169
" />
<path d="M8206 22562
L8075 22375
" />
<path d="M7981 22562
L7981 22169
L8131 22169
L8168 22187
L8187 22206
L8206 22244
L8206 22300
L8187 22337
L8168 22356
L8131 22375
L7981 22375
" />
<path d="M8337 22169
L8581 22169
L8450 22319
L8506 22319
L8543 22337
L8562 22356
L8581 22394
L8581 22487
L8562 22525
L8543 22544
L8506 22562
L8393 22562
L8356 22544
L8337 22525
" />
<path d="M8656 22600
L8956 22600
" />
<path d="M9256 22187
L9218 22169
L9162 22169
L9106 22187
L9068 22225
L9049 22262
L9031 22337
L9031 22394
L9049 22469
L9068 22506
L9106 22544
L9162 22562
L9199 22562
L9256 22544
L9274 22525
L9274 22394
L9199 22394
" />
<path d="M9443 22562
L9443 22300
" />
<path d="M9443 22375
L9462 22337
L9481 22319
L9518 22300
L9556 22300
" />
<path d="M9743 22562
L9706 22544
L9687 22525
L9668 22487
L9668 22375
L9687 22337
L9706 22319
L9743 22300
L9799 22300
L9837 22319
L9856 22337
L9874 22375
L9874 22487
L9856 22525
L9837 22544
L9799 22562
L9743 22562
" />
<path d="M10212 22300
L10212 22562
" />
<path d="M10043 22300
L10043 22506
L10062 22544
L10099 22562
L10156 22562
L10193 22544
L10212 22525
" />
<path d="M10399 22300
L10399 22562
" />
<path d="M10399 22337
L10418 22319
L10456 22300
L10512 22300
L10549 22319
L10568 22356
L10568 22562
" />
<path d="M10924 22562
L10924 22169
" />
<path d="M10924 22544
L10887 22562
L10812 22562
L10774 22544
L10755 22525
L10737 22487
L10737 22375
L10755 22337
L10774 22319
L10812 22300
L10887 22300
L10924 22319
" />
<path d="M11018 22600
L11318 22600
" />
<path d="M11412 22562
L11412 22169
L11543 22450
L11674 22169
L11674 22562
" />
<path d="M12030 22562
L12030 22356
L12012 22319
L11974 22300
L11899 22300
L11862 22319
" />
<path d="M12030 22544
L11993 22562
L11899 22562
L11862 22544
L11843 22506
L11843 22469
L11862 22431
L11899 22412
L11993 22412
L12030 22394
" />
<path d="M12274 22562
L12237 22544
L12218 22506
L12218 22169
" />
<path d="M12574 22544
L12537 22562
L12462 22562
L12424 22544
L12405 22506
L12405 22356
L12424 22319
L12462 22300
L12537 22300
L12574 22319
L12593 22356
L12593 22394
L12405 22431
" />
<path d="M30851 22169
L31114 22562
" />
<path d="M31114 22169
L30851 22562
" />
<path d="M31451 22562
L31264 22562
L31264 22169
" />
<path d="M31807 22562
L31676 22375
" />
<path d="M31582 22562
L31582 22169
L31732 22169
L31770 22187
L31788 22206
L31807 22244
L31807 22300
L31788 22337
L31770 22356
L31732 22375
L31582 22375
" />
<path d="M31938 22169
L32182 22169
L32051 22319
L32107 22319
L32145 22337
L32163 22356
L32182 22394
L32182 22487
L32163 22525
L32145 22544
L32107 22562
L31995 22562
L31957 22544
L31938 22525
" />
<path d="M32257 22600
L32557 22600
" />
<path d="M32782 22356
L32651 22356
" />
<path d="M32651 22562
L32651 22169
L32838 22169
" />
<path d="M33138 22544
L33101 22562
L33026 22562
L32988 22544
L32970 22506
L32970 22356
L32988 22319
L33026 22300
L33101 22300
L33138 22319
L33157 22356
L33157 22394
L32970 22431
" />
<path d="M33326 22562
L33326 22300
" />
<path d="M33326 22337
L33345 22319
L33382 22300
L33438 22300
L33476 22319
L33495 22356
L33495 22562
" />
<path d="M33495 22356
L33513 22319
L33551 22300
L33607 22300
L33645 22319
L33663 22356
L33663 22562
" />
<path d="M34019 22562
L34019 22356
L34001 22319
L33963 22300
L33888 22300
L33851 22319
" />
<path d="M34019 22544
L33982 22562
L33888 22562
L33851 22544
L33832 22506
L33832 22469
L33851 22431
L33888 22412
L33982 22412
L34019 22394
" />
<path d="M34263 22562
L34226 22544
L34207 22506
L34207 22169
" />
<path d="M34563 22544
L34526 22562
L34451 22562
L34413 22544
L34394 22506
L34394 22356
L34413 22319
L34451 22300
L34526 22300
L34563 22319
L34582 22356
L34582 22394
L34394 22431
" />
<path d="M19434 22169
L19696 22562
" />
<path d="M19696 22169
L19434 22562
" />
<path d="M20034 22562
L19846 22562
L19846 22169
" />
<path d="M20390 22562
L20259 22375
" />
<path d="M20165 22562
L20165 22169
L20315 22169
L20352 22187
L20371 22206
L20390 22244
L20390 22300
L20371 22337
L20352 22356
L20315 22375
L20165 22375
" />
<path d="M20521 22169
L20765 22169
L20634 22319
L20690 22319
L20727 22337
L20746 22356
L20765 22394
L20765 22487
L20746 22525
L20727 22544
L20690 22562
L20577 22562
L20540 22544
L20521 22525
" />
<path d="M20840 22600
L21140 22600
" />
<path d="M21365 22356
L21234 22356
" />
<path d="M21234 22562
L21234 22169
L21421 22169
" />
<path d="M21721 22544
L21684 22562
L21609 22562
L21571 22544
L21552 22506
L21552 22356
L21571 22319
L21609 22300
L21684 22300
L21721 22319
L21740 22356
L21740 22394
L21552 22431
" />
<path d="M21908 22562
L21908 22300
" />
<path d="M21908 22337
L21927 22319
L21965 22300
L22021 22300
L22058 22319
L22077 22356
L22077 22562
" />
<path d="M22077 22356
L22096 22319
L22133 22300
L22190 22300
L22227 22319
L22246 22356
L22246 22562
" />
<path d="M22602 22562
L22602 22356
L22583 22319
L22546 22300
L22471 22300
L22433 22319
" />
<path d="M22602 22544
L22565 22562
L22471 22562
L22433 22544
L22415 22506
L22415 22469
L22433 22431
L22471 22412
L22565 22412
L22602 22394
" />
<path d="M22846 22562
L22808 22544
L22790 22506
L22790 22169
" />
<path d="M23146 22544
L23108 22562
L23033 22562
L22996 22544
L22977 22506
L22977 22356
L22996 22319
L23033 22300
L23108 22300
L23146 22319
L23165 22356
L23165 22394
L22977 22431
" />
<path d="M26292 10188
L26329 10188
L26367 10207
L26385 10226
L26404 10263
L26423 10338
L26423 10432
L26404 10507
L26385 10545
L26367 10563
L26329 10582
L26292 10582
L26254 10563
L26235 10545
L26217 10507
L26198 10432
L26198 10338
L26217 10263
L26235 10226
L26254 10207
L26292 10188
" />
<path d="M26592 10545
L26610 10563
L26592 10582
L26573 10563
L26592 10545
L26592 10582
" />
<path d="M26985 10582
L26760 10582
" />
<path d="M26873 10582
L26873 10188
L26835 10245
L26798 10282
L26760 10301
" />
<path d="M27323 10320
L27323 10582
" />
<path d="M27154 10320
L27154 10526
L27173 10563
L27210 10582
L27267 10582
L27304 10563
L27323 10545
" />
<path d="M27642 10376
L27510 10376
" />
<path d="M27510 10582
L27510 10188
L27698 10188
" />
</g>
<g style="fill:#6B01FF; fill-opacity:0.0; 
stroke:#6B01FF; stroke-width:23.622; stroke-opacity:1; 
stroke-linecap:round; stroke-linejoin:round;">
<path d="M26912 11023
L26905 11031
L26882 11038
L26867 11038
L26845 11031
L26830 11016
L26822 11001
L26815 10971
L26815 10948
L26822 10918
L26830 10903
L26845 10888
L26867 10881
L26882 10881
L26905 10888
L26912 10896
" />
<path d="M27062 11038
L26972 11038
" />
<path d="M27017 11038
L27017 10881
L27002 10903
L26987 10918
L26972 10926
" />
<g >
</g>
</g>
<g style="fill:#000000; fill-opacity:0.0; 
stroke:#000000; stroke-width:23.622; stroke-opacity:1; 
stroke-linecap:round; stroke-linejoin:round;">
</g>
<g style="fill:#C2C200; fill-opacity:0.0; 
stroke:#C2C200; stroke-width:23.622; stroke-opacity:1; 
stroke-linecap:round; stroke-linejoin:round;">
</g>
<g style="fill:#C2C200; fill-opacity:0.0; 
stroke:#C2C200; stroke-width:19.685; stroke-opacity:1; 
stroke-linecap:round; stroke-linejoin:round;">
<path d="M9 1518
L53946 1518
" />
<path d="M9 1518
L9 22778
" />
<path d="M53946 1518
L53946 22778
" />
<path d="M9 22778
L53946 22778
" />
<g >
</g>
<g >
</g>
<g >
</g>
<g >
</g>
<g >
</g>
<g >
</g>
<g >
</g>
<g >
</g>
<g >
</g>
<g >
</g>
<g >
</g>
<g >
</g>
<g >
</g>
<g >
</g>
<g >
</g>
<g >
</g>
<g >
</g>
<g >
</g>
<g >
</g>
<g >
</g>
<g >
</g>
<g >
</g>
</g> 
</svg>
